<ttFont>
    <TTGlyph name="A" xMin="-59" yMin="0" xMax="1153" yMax="1456">
      <contour>
        <pt x="872" y="340" on="1"/>
        <pt x="358" y="340" on="1"/>
        <pt x="182" y="0" on="1"/>
        <pt x="-59" y="0" on="1"/>
        <pt x="728" y="1456" on="1"/>
        <pt x="954" y="1456" on="1"/>
        <pt x="1153" y="0" on="1"/>
        <pt x="911" y="0" on="1"/>
      </contour>
      <contour>
        <pt x="463" y="543" on="1"/>
        <pt x="849" y="543" on="1"/>
        <pt x="781" y="1145" on="1"/>
        <pt x="775" y="1146" on="1"/>
      </contour>
    </TTGlyph>
    <TTGlyph name="A.smcp" xMin="-57" yMin="0" xMax="1041" yMax="1165">
      <contour>
        <pt x="757" y="233" on="1"/>
        <pt x="319" y="233" on="1"/>
        <pt x="193" y="0" on="1"/>
        <pt x="-57" y="0" on="1"/>
        <pt x="603" y="1165" on="1"/>
        <pt x="847" y="1165" on="1"/>
        <pt x="1041" y="0" on="1"/>
        <pt x="791" y="0" on="1"/>
      </contour>
      <contour>
        <pt x="425" y="427" on="1"/>
        <pt x="729" y="427" on="1"/>
        <pt x="665" y="859" on="1"/>
        <pt x="659" y="860" on="1"/>
      </contour>
    </TTGlyph>
    <TTGlyph name="AE" xMin="-94" yMin="0" xMax="1909" yMax="1456">
      <contour>
        <pt x="1675" y="0" on="1"/>
        <pt x="830" y="0" on="1"/>
        <pt x="884" y="340" on="1"/>
        <pt x="429" y="340" on="1"/>
        <pt x="192" y="0" on="1"/>
        <pt x="-94" y="0" on="1"/>
        <pt x="971" y="1456" on="1"/>
        <pt x="1909" y="1456" on="1"/>
        <pt x="1870" y="1259" on="1"/>
        <pt x="1271" y="1259" on="1"/>
        <pt x="1205" y="851" on="1"/>
        <pt x="1712" y="851" on="1"/>
        <pt x="1673" y="654" on="1"/>
        <pt x="1174" y="654" on="1"/>
        <pt x="1100" y="196" on="1"/>
        <pt x="1714" y="196" on="1"/>
      </contour>
      <contour>
        <pt x="919" y="555" on="1"/>
        <pt x="1018" y="1172" on="1"/>
        <pt x="1012" y="1174" on="1"/>
        <pt x="580" y="555" on="1"/>
      </contour>
    </TTGlyph>
    <TTGlyph name="AEacute" xMin="-94" yMin="0" xMax="1909" yMax="1825">
      <component glyphName="AE" x="0" y="0" flags="0x204"/>
      <component glyphName="acute" x="745" y="347" flags="0x4"/>
    </TTGlyph>
    <TTGlyph name="Aacute" xMin="-59" yMin="0" xMax="1260" yMax="1825">
      <component glyphName="A" x="0" y="0" flags="0x204"/>
      <component glyphName="acute" x="530" y="347" flags="0x4"/>
    </TTGlyph>
    <TTGlyph name="Aacute.smcp" xMin="-57" yMin="0" xMax="1112" yMax="1502">
      <component glyphName="A.smcp" x="0" y="0" flags="0x204"/>
      <component glyphName="acute" x="382" y="24" flags="0x4"/>
    </TTGlyph>
    <TTGlyph name="Abreve" xMin="-59" yMin="0" xMax="1235" yMax="1884">
      <component glyphName="A" x="0" y="0" flags="0x204"/>
      <component glyphName="breve" x="360" y="428" flags="0x4"/>
    </TTGlyph>
    <TTGlyph name="Abreve.smcp" xMin="-57" yMin="0" xMax="1087" yMax="1561">
      <component glyphName="A.smcp" x="0" y="0" flags="0x204"/>
      <component glyphName="breve" x="212" y="105" flags="0x4"/>
    </TTGlyph>
    <TTGlyph name="Acircumflex" xMin="-59" yMin="0" xMax="1215" yMax="1864">
      <component glyphName="A" x="0" y="0" flags="0x204"/>
      <component glyphName="circumflex" x="258" y="345" flags="0x4"/>
    </TTGlyph>
    <TTGlyph name="Acircumflex.smcp" xMin="-57" yMin="0" xMax="1067" yMax="1541">
      <component glyphName="A.smcp" x="0" y="0" flags="0x204"/>
      <component glyphName="circumflex" x="110" y="22" flags="0x4"/>
    </TTGlyph>
    <TTGlyph name="Adieresis" xMin="-59" yMin="0" xMax="1265" yMax="1805">
      <component glyphName="A" x="0" y="0" flags="0x204"/>
      <component glyphName="dieresis" x="261" y="349" flags="0x4"/>
    </TTGlyph>
    <TTGlyph name="Adieresis.smcp" xMin="-57" yMin="0" xMax="1117" yMax="1482">
      <component glyphName="A.smcp" x="0" y="0" flags="0x204"/>
      <component glyphName="dieresis" x="113" y="26" flags="0x4"/>
    </TTGlyph>
    <TTGlyph name="Agrave" xMin="-59" yMin="0" xMax="1153" yMax="1826">
      <component glyphName="A" x="0" y="0" flags="0x204"/>
      <component glyphName="grave" x="360" y="348" flags="0x4"/>
    </TTGlyph>
    <TTGlyph name="Agrave.smcp" xMin="-57" yMin="0" xMax="1041" yMax="1503">
      <component glyphName="A.smcp" x="0" y="0" flags="0x204"/>
      <component glyphName="grave" x="212" y="25" flags="0x4"/>
    </TTGlyph>
    <TTGlyph name="Alpha" xMin="-59" yMin="0" xMax="1153" yMax="1456">
      <component glyphName="A" x="0" y="0" flags="0x204"/>
    </TTGlyph>
    <TTGlyph name="Alphatonos" xMin="-59" yMin="0" xMax="1153" yMax="1648">
      <component glyphName="A" x="0" y="0" flags="0x204"/>
      <component glyphName="tonos" x="-27" y="0" flags="0x4"/>
    </TTGlyph>
    <TTGlyph name="Amacron" xMin="-59" yMin="0" xMax="1266" yMax="1782">
      <component glyphName="A" x="0" y="0" flags="0x204"/>
      <component glyphName="macron" x="286" y="326" flags="0x4"/>
    </TTGlyph>
    <TTGlyph name="Amacron.smcp" xMin="-57" yMin="0" xMax="1118" yMax="1459">
      <component glyphName="A.smcp" x="0" y="0" flags="0x204"/>
      <component glyphName="macron" x="138" y="3" flags="0x4"/>
    </TTGlyph>
    <TTGlyph name="Aogonek" xMin="-59" yMin="-430" xMax="1153" yMax="1456">
      <component glyphName="A" x="0" y="0" flags="0x204"/>
      <component glyphName="ogonek" x="807" y="0" flags="0x4"/>
    </TTGlyph>
    <TTGlyph name="Aogonek.smcp" xMin="-57" yMin="-430" xMax="1041" yMax="1165">
      <component glyphName="A.smcp" x="0" y="0" flags="0x204"/>
      <component glyphName="ogonek" x="692" y="0" flags="0x4"/>
    </TTGlyph>
    <TTGlyph name="Aring" xMin="-59" yMin="0" xMax="1153" yMax="1935">
      <component glyphName="A" x="0" y="0" flags="0x204"/>
      <component glyphName="ring" x="421" y="435" flags="0x4"/>
    </TTGlyph>
    <TTGlyph name="Aring.smcp" xMin="-57" yMin="0" xMax="1041" yMax="1612">
      <component glyphName="A.smcp" x="0" y="0" flags="0x204"/>
      <component glyphName="ring" x="273" y="112" flags="0x4"/>
    </TTGlyph>
    <TTGlyph name="Aringacute" xMin="-59" yMin="0" xMax="1306" yMax="2114">
      <component glyphName="A" x="0" y="0" flags="0x204"/>
      <component glyphName="ringacute" x="422" y="421" flags="0x4"/>
    </TTGlyph>
    <TTGlyph name="Aringacute.smcp" xMin="-57" yMin="0" xMax="1158" yMax="1791">
      <component glyphName="A.smcp" x="0" y="0" flags="0x204"/>
      <component glyphName="ringacute" x="274" y="98" flags="0x4"/>
    </TTGlyph>
    <TTGlyph name="Atilde" xMin="-59" yMin="0" xMax="1271" yMax="1891">
      <component glyphName="A" x="0" y="0" flags="0x204"/>
      <component glyphName="tilde" x="299" y="364" flags="0x4"/>
    </TTGlyph>
    <TTGlyph name="Atilde.smcp" xMin="-57" yMin="0" xMax="1123" yMax="1568">
      <component glyphName="A.smcp" x="0" y="0" flags="0x204"/>
      <component glyphName="tilde" x="151" y="41" flags="0x4"/>
    </TTGlyph>
    <TTGlyph name="B" xMin="65" yMin="0" xMax="1253" yMax="1456">
      <contour>
        <pt x="65" y="0" on="1"/>
        <pt x="356" y="1456" on="1"/>
        <pt x="813" y="1456" on="1"/>
        <pt x="1025" y="1456" on="0"/>
        <pt x="1253" y="1254" on="0"/>
        <pt x="1215" y="1059" on="1"/>
        <pt x="1194" y="954" on="0"/>
        <pt x="1058" y="802" on="0"/>
        <pt x="956" y="765" on="1"/>
        <pt x="1072" y="736" on="0"/>
        <pt x="1162" y="544" on="0"/>
        <pt x="1137" y="418" on="1"/>
        <pt x="1092" y="200" on="0"/>
        <pt x="808" y="0" on="0"/>
        <pt x="581" y="0" on="1"/>
      </contour>
      <contour>
        <pt x="436" y="662" on="1"/>
        <pt x="343" y="194" on="1"/>
        <pt x="620" y="194" on="1"/>
        <pt x="726" y="194" on="0"/>
        <pt x="877" y="311" on="0"/>
        <pt x="899" y="418" on="1"/>
        <pt x="923" y="541" on="0"/>
        <pt x="848" y="662" on="0"/>
        <pt x="739" y="662" on="1"/>
      </contour>
      <contour>
        <pt x="472" y="843" on="1"/>
        <pt x="717" y="843" on="1"/>
        <pt x="809" y="843" on="0"/>
        <pt x="954" y="952" on="0"/>
        <pt x="974" y="1048" on="1"/>
        <pt x="996" y="1163" on="0"/>
        <pt x="895" y="1261" on="0"/>
        <pt x="774" y="1261" on="1"/>
        <pt x="556" y="1261" on="1"/>
      </contour>
    </TTGlyph>
    <TTGlyph name="B.smcp" xMin="49" yMin="0" xMax="1079" yMax="1165">
      <contour>
        <pt x="49" y="0" on="1"/>
        <pt x="282" y="1165" on="1"/>
        <pt x="687" y="1165" on="1"/>
        <pt x="875" y="1165" on="0"/>
        <pt x="1079" y="1001" on="0"/>
        <pt x="1048" y="844" on="1"/>
        <pt x="1030" y="756" on="0"/>
        <pt x="914" y="629" on="0"/>
        <pt x="822" y="597" on="1"/>
        <pt x="923" y="571" on="0"/>
        <pt x="1005" y="427" on="0"/>
        <pt x="987" y="330" on="1"/>
        <pt x="952" y="156" on="0"/>
        <pt x="716" y="0" on="0"/>
        <pt x="518" y="0" on="1"/>
      </contour>
      <contour>
        <pt x="389" y="506" on="1"/>
        <pt x="326" y="192" on="1"/>
        <pt x="556" y="192" on="1"/>
        <pt x="635" y="192" on="0"/>
        <pt x="735" y="270" on="0"/>
        <pt x="751" y="344" on="1"/>
        <pt x="767" y="427" on="0"/>
        <pt x="705" y="506" on="0"/>
        <pt x="619" y="506" on="1"/>
      </contour>
      <contour>
        <pt x="423" y="674" on="1"/>
        <pt x="597" y="674" on="1"/>
        <pt x="679" y="675" on="0"/>
        <pt x="789" y="750" on="0"/>
        <pt x="804" y="818" on="1"/>
        <pt x="819" y="899" on="0"/>
        <pt x="744" y="958" on="0"/>
        <pt x="646" y="958" on="1"/>
        <pt x="480" y="958" on="1"/>
      </contour>
    </TTGlyph>
    <TTGlyph name="Beta" xMin="65" yMin="0" xMax="1253" yMax="1456">
      <component glyphName="B" x="0" y="0" flags="0x204"/>
    </TTGlyph>
    <TTGlyph name="C" xMin="83" yMin="-21" xMax="1283" yMax="1477">
      <contour>
        <pt x="1151" y="470" on="1"/>
        <pt x="1153" y="464" on="1"/>
        <pt x="1092" y="234" on="0"/>
        <pt x="814" y="-21" on="0"/>
        <pt x="584" y="-21" on="1"/>
        <pt x="358" y="-21" on="0"/>
        <pt x="83" y="337" on="0"/>
        <pt x="135" y="596" on="1"/>
        <pt x="190" y="872" on="1"/>
        <pt x="247" y="1160" on="0"/>
        <pt x="567" y="1477" on="0"/>
        <pt x="803" y="1477" on="1"/>
        <pt x="1028" y="1477" on="0"/>
        <pt x="1283" y="1196" on="0"/>
        <pt x="1255" y="969" on="1"/>
        <pt x="1253" y="964" on="1"/>
        <pt x="1020" y="964" on="1"/>
        <pt x="1034" y="1114" on="0"/>
        <pt x="917" y="1282" on="0"/>
        <pt x="778" y="1282" on="1"/>
        <pt x="655" y="1282" on="0"/>
        <pt x="465" y="1052" on="0"/>
        <pt x="430" y="874" on="1"/>
        <pt x="374" y="596" on="1"/>
        <pt x="336" y="406" on="0"/>
        <pt x="464" y="173" on="0"/>
        <pt x="606" y="173" on="1"/>
        <pt x="729" y="173" on="0"/>
        <pt x="874" y="318" on="0"/>
        <pt x="921" y="470" on="1"/>
      </contour>
    </TTGlyph>
    <TTGlyph name="C.smcp" xMin="65" yMin="-17" xMax="1115" yMax="1181">
      <contour>
        <pt x="991" y="391" on="1"/>
        <pt x="993" y="385" on="1"/>
        <pt x="955" y="176" on="0"/>
        <pt x="682" y="-17" on="0"/>
        <pt x="473" y="-17" on="1"/>
        <pt x="285" y="-17" on="0"/>
        <pt x="65" y="254" on="0"/>
        <pt x="106" y="461" on="1"/>
        <pt x="155" y="704" on="1"/>
        <pt x="199" y="928" on="0"/>
        <pt x="507" y="1181" on="0"/>
        <pt x="712" y="1181" on="1"/>
        <pt x="908" y="1181" on="0"/>
        <pt x="1115" y="971" on="0"/>
        <pt x="1073" y="780" on="1"/>
        <pt x="1071" y="775" on="1"/>
        <pt x="839" y="775" on="1"/>
        <pt x="862" y="892" on="0"/>
        <pt x="781" y="988" on="0"/>
        <pt x="674" y="988" on="1"/>
        <pt x="580" y="988" on="0"/>
        <pt x="416" y="825" on="0"/>
        <pt x="393" y="705" on="1"/>
        <pt x="344" y="461" on="1"/>
        <pt x="317" y="329" on="0"/>
        <pt x="409" y="175" on="0"/>
        <pt x="511" y="175" on="1"/>
        <pt x="607" y="175" on="0"/>
        <pt x="739" y="282" on="0"/>
        <pt x="761" y="391" on="1"/>
      </contour>
    </TTGlyph>
    <TTGlyph name="Cacute" xMin="83" yMin="-21" xMax="1283" yMax="1846">
      <component glyphName="C" x="0" y="0" flags="0x204"/>
      <component glyphName="acute" x="512" y="368" flags="0x4"/>
    </TTGlyph>
    <TTGlyph name="Cacute.smcp" xMin="65" yMin="-17" xMax="1115" yMax="1518">
      <component glyphName="C.smcp" x="0" y="0" flags="0x204"/>
      <component glyphName="acute" x="362" y="40" flags="0x4"/>
    </TTGlyph>
    <TTGlyph name="Ccaron" xMin="83" yMin="-21" xMax="1283" yMax="1889">
      <component glyphName="C" x="0" y="0" flags="0x204"/>
      <component glyphName="caron" x="262" y="370" flags="0x4"/>
    </TTGlyph>
    <TTGlyph name="Ccaron.smcp" xMin="65" yMin="-17" xMax="1115" yMax="1561">
      <component glyphName="C.smcp" x="0" y="0" flags="0x204"/>
      <component glyphName="caron" x="112" y="42" flags="0x4"/>
    </TTGlyph>
    <TTGlyph name="Ccedilla" xMin="83" yMin="-449" xMax="1283" yMax="1477">
      <component glyphName="C" x="0" y="0" flags="0x204"/>
      <component glyphName="cedilla" x="410" y="-4" flags="0x4"/>
    </TTGlyph>
    <TTGlyph name="Ccedilla.smcp" xMin="65" yMin="-447" xMax="1115" yMax="1181">
      <component glyphName="C.smcp" x="0" y="0" flags="0x204"/>
      <component glyphName="cedilla" x="326" y="-2" flags="0x4"/>
    </TTGlyph>
    <TTGlyph name="Ccircumflex" xMin="83" yMin="-21" xMax="1283" yMax="1885">
      <component glyphName="C" x="0" y="0" flags="0x204"/>
      <component glyphName="circumflex" x="240" y="366" flags="0x4"/>
    </TTGlyph>
    <TTGlyph name="Ccircumflex.smcp" xMin="65" yMin="-17" xMax="1115" yMax="1557">
      <component glyphName="C.smcp" x="0" y="0" flags="0x204"/>
      <component glyphName="circumflex" x="90" y="38" flags="0x4"/>
    </TTGlyph>
    <TTGlyph name="Chi" xMin="-19" yMin="0" xMax="1333" yMax="1456">
      <component glyphName="X" x="0" y="0" flags="0x204"/>
    </TTGlyph>
    <TTGlyph name="D" xMin="65" yMin="0" xMax="1309" yMax="1456">
      <contour>
        <pt x="65" y="0" on="1"/>
        <pt x="356" y="1456" on="1"/>
        <pt x="763" y="1456" on="1"/>
        <pt x="1008" y="1456" on="0"/>
        <pt x="1309" y="1093" on="0"/>
        <pt x="1257" y="828" on="1"/>
        <pt x="1212" y="607" on="1"/>
        <pt x="1153" y="313" on="0"/>
        <pt x="808" y="0" on="0"/>
        <pt x="546" y="0" on="1"/>
      </contour>
      <contour>
        <pt x="556" y="1261" on="1"/>
        <pt x="343" y="194" on="1"/>
        <pt x="578" y="194" on="1"/>
        <pt x="730" y="194" on="0"/>
        <pt x="935" y="419" on="0"/>
        <pt x="973" y="607" on="1"/>
        <pt x="1018" y="830" on="1"/>
        <pt x="1056" y="1023" on="0"/>
        <pt x="888" y="1261" on="0"/>
        <pt x="717" y="1261" on="1"/>
      </contour>
    </TTGlyph>
    <TTGlyph name="D.smcp" xMin="49" yMin="0" xMax="1117" yMax="1165">
      <contour>
        <pt x="49" y="0" on="1"/>
        <pt x="282" y="1165" on="1"/>
        <pt x="695" y="1165" on="1"/>
        <pt x="885" y="1165" on="0"/>
        <pt x="1117" y="893" on="0"/>
        <pt x="1076" y="687" on="1"/>
        <pt x="1034" y="477" on="1"/>
        <pt x="989" y="253" on="0"/>
        <pt x="670" y="0" on="0"/>
        <pt x="462" y="0" on="1"/>
      </contour>
      <contour>
        <pt x="482" y="972" on="1"/>
        <pt x="326" y="192" on="1"/>
        <pt x="500" y="192" on="1"/>
        <pt x="595" y="192" on="0"/>
        <pt x="771" y="357" on="0"/>
        <pt x="795" y="477" on="1"/>
        <pt x="838" y="688" on="1"/>
        <pt x="863" y="817" on="0"/>
        <pt x="760" y="972" on="0"/>
        <pt x="656" y="972" on="1"/>
      </contour>
    </TTGlyph>
    <TTGlyph name="Dcaron" xMin="65" yMin="0" xMax="1309" yMax="1868">
      <component glyphName="D" x="0" y="0" flags="0x204"/>
      <component glyphName="caron" x="196" y="349" flags="0x4"/>
    </TTGlyph>
    <TTGlyph name="Dcaron.smcp" xMin="49" yMin="0" xMax="1117" yMax="1545">
      <component glyphName="D.smcp" x="0" y="0" flags="0x204"/>
      <component glyphName="caron" x="35" y="26" flags="0x4"/>
    </TTGlyph>
    <TTGlyph name="Dcroat" xMin="82" yMin="0" xMax="1339" yMax="1456">
      <contour>
        <pt x="95" y="0" on="1"/>
        <pt x="226" y="657" on="1"/>
        <pt x="82" y="657" on="1"/>
        <pt x="116" y="827" on="1"/>
        <pt x="260" y="827" on="1"/>
        <pt x="386" y="1456" on="1"/>
        <pt x="793" y="1456" on="1"/>
        <pt x="1038" y="1456" on="0"/>
        <pt x="1339" y="1093" on="0"/>
        <pt x="1287" y="828" on="1"/>
        <pt x="1242" y="607" on="1"/>
        <pt x="1183" y="313" on="0"/>
        <pt x="838" y="0" on="0"/>
        <pt x="576" y="0" on="1"/>
      </contour>
      <contour>
        <pt x="696" y="657" on="1"/>
        <pt x="465" y="657" on="1"/>
        <pt x="373" y="194" on="1"/>
        <pt x="608" y="194" on="1"/>
        <pt x="760" y="194" on="0"/>
        <pt x="965" y="419" on="0"/>
        <pt x="1003" y="607" on="1"/>
        <pt x="1048" y="830" on="1"/>
        <pt x="1086" y="1023" on="0"/>
        <pt x="918" y="1261" on="0"/>
        <pt x="747" y="1261" on="1"/>
        <pt x="586" y="1261" on="1"/>
        <pt x="499" y="827" on="1"/>
        <pt x="730" y="827" on="1"/>
      </contour>
    </TTGlyph>
    <TTGlyph name="Dcroat.smcp" xMin="1" yMin="0" xMax="1117" yMax="1165">
      <component glyphName="D.smcp" x="0" y="0" flags="0x204"/>
      <component glyphName="crossbar" x="-191" y="-136" flags="0x4"/>
    </TTGlyph>
    <TTGlyph name="Delta" xMin="-58" yMin="0" xMax="1257" yMax="1456">
      <contour>
        <pt x="791" y="1456" on="1"/>
        <pt x="1017" y="1456" on="1"/>
        <pt x="1257" y="0" on="1"/>
        <pt x="-58" y="0" on="1"/>
      </contour>
      <contour>
        <pt x="299" y="194" on="1"/>
        <pt x="981" y="194" on="1"/>
        <pt x="841" y="1140" on="1"/>
        <pt x="835" y="1141" on="1"/>
      </contour>
    </TTGlyph>
    <TTGlyph name="E" xMin="65" yMin="0" xMax="1269" yMax="1456">
      <contour>
        <pt x="1021" y="655" on="1"/>
        <pt x="435" y="655" on="1"/>
        <pt x="343" y="194" on="1"/>
        <pt x="1024" y="194" on="1"/>
        <pt x="985" y="0" on="1"/>
        <pt x="65" y="0" on="1"/>
        <pt x="356" y="1456" on="1"/>
        <pt x="1269" y="1456" on="1"/>
        <pt x="1230" y="1261" on="1"/>
        <pt x="556" y="1261" on="1"/>
        <pt x="474" y="850" on="1"/>
        <pt x="1060" y="850" on="1"/>
      </contour>
    </TTGlyph>
    <TTGlyph name="E.smcp" xMin="49" yMin="0" xMax="1060" yMax="1165">
      <contour>
        <pt x="850" y="508" on="1"/>
        <pt x="389" y="508" on="1"/>
        <pt x="326" y="192" on="1"/>
        <pt x="865" y="192" on="1"/>
        <pt x="827" y="0" on="1"/>
        <pt x="49" y="0" on="1"/>
        <pt x="282" y="1165" on="1"/>
        <pt x="1060" y="1165" on="1"/>
        <pt x="1021" y="972" on="1"/>
        <pt x="482" y="972" on="1"/>
        <pt x="428" y="702" on="1"/>
        <pt x="888" y="702" on="1"/>
      </contour>
    </TTGlyph>
    <TTGlyph name="Eacute" xMin="65" yMin="0" xMax="1269" yMax="1825">
      <component glyphName="E" x="0" y="0" flags="0x204"/>
      <component glyphName="acute" x="453" y="347" flags="0x4"/>
    </TTGlyph>
    <TTGlyph name="Eacute.smcp" xMin="49" yMin="0" xMax="1060" yMax="1502">
      <component glyphName="E.smcp" x="0" y="0" flags="0x204"/>
      <component glyphName="acute" x="321" y="24" flags="0x4"/>
    </TTGlyph>
    <TTGlyph name="Ebreve" xMin="65" yMin="0" xMax="1269" yMax="1884">
      <component glyphName="E" x="0" y="0" flags="0x204"/>
      <component glyphName="breve" x="283" y="428" flags="0x4"/>
    </TTGlyph>
    <TTGlyph name="Ebreve.smcp" xMin="49" yMin="0" xMax="1060" yMax="1561">
      <component glyphName="E.smcp" x="0" y="0" flags="0x204"/>
      <component glyphName="breve" x="151" y="105" flags="0x4"/>
    </TTGlyph>
    <TTGlyph name="Ecaron" xMin="65" yMin="0" xMax="1269" yMax="1868">
      <component glyphName="E" x="0" y="0" flags="0x204"/>
      <component glyphName="caron" x="203" y="349" flags="0x4"/>
    </TTGlyph>
    <TTGlyph name="Ecaron.smcp" xMin="49" yMin="0" xMax="1063" yMax="1545">
      <component glyphName="E.smcp" x="0" y="0" flags="0x204"/>
      <component glyphName="caron" x="71" y="26" flags="0x4"/>
    </TTGlyph>
    <TTGlyph name="Ecircumflex" xMin="65" yMin="0" xMax="1269" yMax="1864">
      <component glyphName="E" x="0" y="0" flags="0x204"/>
      <component glyphName="circumflex" x="181" y="345" flags="0x4"/>
    </TTGlyph>
    <TTGlyph name="Ecircumflex.smcp" xMin="49" yMin="0" xMax="1060" yMax="1541">
      <component glyphName="E.smcp" x="0" y="0" flags="0x204"/>
      <component glyphName="circumflex" x="49" y="22" flags="0x4"/>
    </TTGlyph>
    <TTGlyph name="Edieresis" xMin="65" yMin="0" xMax="1269" yMax="1805">
      <component glyphName="E" x="0" y="0" flags="0x204"/>
      <component glyphName="dieresis" x="184" y="349" flags="0x4"/>
    </TTGlyph>
    <TTGlyph name="Edieresis.smcp" xMin="49" yMin="0" xMax="1060" yMax="1482">
      <component glyphName="E.smcp" x="0" y="0" flags="0x204"/>
      <component glyphName="dieresis" x="52" y="26" flags="0x4"/>
    </TTGlyph>
    <TTGlyph name="Edotaccent" xMin="65" yMin="0" xMax="1269" yMax="1825">
      <component glyphName="E" x="0" y="0" flags="0x204"/>
      <component glyphName="dotaccent" x="375" y="363" flags="0x4"/>
    </TTGlyph>
    <TTGlyph name="Edotaccent.smcp" xMin="49" yMin="0" xMax="1060" yMax="1502">
      <component glyphName="E.smcp" x="0" y="0" flags="0x204"/>
      <component glyphName="dotaccent" x="243" y="40" flags="0x4"/>
    </TTGlyph>
    <TTGlyph name="Egrave" xMin="65" yMin="0" xMax="1269" yMax="1826">
      <component glyphName="E" x="0" y="0" flags="0x204"/>
      <component glyphName="grave" x="283" y="348" flags="0x4"/>
    </TTGlyph>
    <TTGlyph name="Egrave.smcp" xMin="49" yMin="0" xMax="1060" yMax="1503">
      <component glyphName="E.smcp" x="0" y="0" flags="0x204"/>
      <component glyphName="grave" x="151" y="25" flags="0x4"/>
    </TTGlyph>
    <TTGlyph name="Emacron" xMin="65" yMin="0" xMax="1269" yMax="1782">
      <component glyphName="E" x="0" y="0" flags="0x204"/>
      <component glyphName="macron" x="209" y="326" flags="0x4"/>
    </TTGlyph>
    <TTGlyph name="Emacron.smcp" xMin="49" yMin="0" xMax="1060" yMax="1459">
      <component glyphName="E.smcp" x="0" y="0" flags="0x204"/>
      <component glyphName="macron" x="77" y="3" flags="0x4"/>
    </TTGlyph>
    <TTGlyph name="Eng" xMin="53" yMin="-437" xMax="1408" yMax="1456">
      <contour>
        <pt x="1408" y="1456" on="1"/>
        <pt x="1104" y="-63" on="1"/>
        <pt x="1066" y="-253" on="0"/>
        <pt x="856" y="-437" on="0"/>
        <pt x="696" y="-437" on="1"/>
        <pt x="664" y="-437" on="0"/>
        <pt x="608" y="-429" on="0"/>
        <pt x="580" y="-420" on="1"/>
        <pt x="631" y="-229" on="1"/>
        <pt x="647" y="-234" on="0"/>
        <pt x="702" y="-242" on="0"/>
        <pt x="721" y="-242" on="1"/>
        <pt x="769" y="-242" on="0"/>
        <pt x="847" y="-146" on="0"/>
        <pt x="864" y="-63" on="1"/>
        <pt x="876" y="0" on="1"/>
        <pt x="503" y="1029" on="1"/>
        <pt x="497" y="1028" on="1"/>
        <pt x="292" y="0" on="1"/>
        <pt x="53" y="0" on="1"/>
        <pt x="344" y="1456" on="1"/>
        <pt x="583" y="1456" on="1"/>
        <pt x="956" y="429" on="1"/>
        <pt x="962" y="430" on="1"/>
        <pt x="1168" y="1456" on="1"/>
      </contour>
    </TTGlyph>
    <TTGlyph name="Eogonek" xMin="65" yMin="-430" xMax="1269" yMax="1456">
      <component glyphName="E" x="0" y="0" flags="0x204"/>
      <component glyphName="ogonek" x="446" y="0" flags="0x4"/>
    </TTGlyph>
    <TTGlyph name="Eogonek.smcp" xMin="49" yMin="-430" xMax="1060" yMax="1165">
      <component glyphName="E.smcp" x="0" y="0" flags="0x204"/>
      <component glyphName="ogonek" x="404" y="0" flags="0x4"/>
    </TTGlyph>
    <TTGlyph name="Epsilon" xMin="65" yMin="0" xMax="1269" yMax="1456">
      <component glyphName="E" x="0" y="0" flags="0x204"/>
    </TTGlyph>
    <TTGlyph name="Epsilontonos" xMin="101" yMin="0" xMax="1369" yMax="1650">
      <component glyphName="E" x="100" y="0" flags="0x4"/>
      <component glyphName="tonos" x="-275" y="2" flags="0x4"/>
    </TTGlyph>
    <TTGlyph name="Eta" xMin="65" yMin="0" xMax="1420" yMax="1456">
      <component glyphName="H" x="0" y="0" flags="0x204"/>
    </TTGlyph>
    <TTGlyph name="Etatonos" xMin="145" yMin="0" xMax="1520" yMax="1648">
      <component glyphName="H" x="100" y="0" flags="0x4"/>
      <component glyphName="tonos" x="-231" y="0" flags="0x4"/>
    </TTGlyph>
    <TTGlyph name="Eth" xMin="82" yMin="0" xMax="1339" yMax="1456">
      <contour>
        <pt x="95" y="0" on="1"/>
        <pt x="226" y="657" on="1"/>
        <pt x="82" y="657" on="1"/>
        <pt x="116" y="827" on="1"/>
        <pt x="260" y="827" on="1"/>
        <pt x="386" y="1456" on="1"/>
        <pt x="793" y="1456" on="1"/>
        <pt x="1038" y="1456" on="0"/>
        <pt x="1339" y="1093" on="0"/>
        <pt x="1287" y="828" on="1"/>
        <pt x="1242" y="607" on="1"/>
        <pt x="1183" y="313" on="0"/>
        <pt x="838" y="0" on="0"/>
        <pt x="576" y="0" on="1"/>
      </contour>
      <contour>
        <pt x="696" y="657" on="1"/>
        <pt x="465" y="657" on="1"/>
        <pt x="373" y="194" on="1"/>
        <pt x="608" y="194" on="1"/>
        <pt x="760" y="194" on="0"/>
        <pt x="965" y="419" on="0"/>
        <pt x="1003" y="607" on="1"/>
        <pt x="1048" y="830" on="1"/>
        <pt x="1086" y="1023" on="0"/>
        <pt x="918" y="1261" on="0"/>
        <pt x="747" y="1261" on="1"/>
        <pt x="586" y="1261" on="1"/>
        <pt x="499" y="827" on="1"/>
        <pt x="730" y="827" on="1"/>
      </contour>
    </TTGlyph>
    <TTGlyph name="Eth.smcp" xMin="1" yMin="0" xMax="1117" yMax="1165">
      <component glyphName="D.smcp" x="0" y="0" flags="0x204"/>
      <component glyphName="crossbar" x="-191" y="-136" flags="0x4"/>
    </TTGlyph>
    <TTGlyph name="Euro" xMin="81" yMin="-21" xMax="1134" yMax="1477">
      <contour>
        <pt x="872" y="456" on="1"/>
        <pt x="453" y="456" on="1"/>
        <pt x="453" y="454" on="1"/>
        <pt x="427" y="334" on="0"/>
        <pt x="532" y="173" on="0"/>
        <pt x="654" y="173" on="1"/>
        <pt x="704" y="173" on="0"/>
        <pt x="815" y="190" on="0"/>
        <pt x="866" y="207" on="1"/>
        <pt x="847" y="10" on="1"/>
        <pt x="790" y="-5" on="0"/>
        <pt x="673" y="-21" on="0"/>
        <pt x="615" y="-21" on="1"/>
        <pt x="406" y="-21" on="0"/>
        <pt x="174" y="262" on="0"/>
        <pt x="214" y="454" on="1"/>
        <pt x="214" y="456" on="1"/>
        <pt x="81" y="456" on="1"/>
        <pt x="119" y="651" on="1"/>
        <pt x="252" y="651" on="1"/>
        <pt x="278" y="781" on="1"/>
        <pt x="145" y="781" on="1"/>
        <pt x="186" y="976" on="1"/>
        <pt x="319" y="976" on="1"/>
        <pt x="322" y="988" on="1"/>
        <pt x="363" y="1205" on="0"/>
        <pt x="685" y="1477" on="0"/>
        <pt x="912" y="1477" on="1"/>
        <pt x="964" y="1477" on="0"/>
        <pt x="1077" y="1460" on="0"/>
        <pt x="1134" y="1446" on="1"/>
        <pt x="1074" y="1247" on="1"/>
        <pt x="1027" y="1263" on="0"/>
        <pt x="926" y="1282" on="0"/>
        <pt x="873" y="1282" on="1"/>
        <pt x="762" y="1282" on="0"/>
        <pt x="581" y="1100" on="0"/>
        <pt x="561" y="990" on="1"/>
        <pt x="558" y="976" on="1"/>
        <pt x="977" y="976" on="1"/>
        <pt x="936" y="781" on="1"/>
        <pt x="517" y="781" on="1"/>
        <pt x="491" y="651" on="1"/>
        <pt x="910" y="651" on="1"/>
      </contour>
    </TTGlyph>
    <TTGlyph name="F" xMin="65" yMin="0" xMax="1276" yMax="1456">
      <contour>
        <pt x="1014" y="621" on="1"/>
        <pt x="428" y="621" on="1"/>
        <pt x="304" y="0" on="1"/>
        <pt x="65" y="0" on="1"/>
        <pt x="356" y="1456" on="1"/>
        <pt x="1276" y="1456" on="1"/>
        <pt x="1237" y="1261" on="1"/>
        <pt x="556" y="1261" on="1"/>
        <pt x="467" y="816" on="1"/>
        <pt x="1053" y="816" on="1"/>
      </contour>
    </TTGlyph>
    <TTGlyph name="F.smcp" xMin="49" yMin="0" xMax="1073" yMax="1165">
      <contour>
        <pt x="855" y="478" on="1"/>
        <pt x="383" y="478" on="1"/>
        <pt x="288" y="0" on="1"/>
        <pt x="49" y="0" on="1"/>
        <pt x="282" y="1165" on="1"/>
        <pt x="1073" y="1165" on="1"/>
        <pt x="1034" y="972" on="1"/>
        <pt x="482" y="972" on="1"/>
        <pt x="422" y="672" on="1"/>
        <pt x="893" y="672" on="1"/>
      </contour>
    </TTGlyph>
    <TTGlyph name="G" xMin="81" yMin="-21" xMax="1294" yMax="1477">
      <contour>
        <pt x="1117" y="197" on="1"/>
        <pt x="1045" y="113" on="0"/>
        <pt x="772" y="-21" on="0"/>
        <pt x="578" y="-21" on="1"/>
        <pt x="348" y="-21" on="0"/>
        <pt x="81" y="317" on="0"/>
        <pt x="133" y="576" on="1"/>
        <pt x="194" y="880" on="1"/>
        <pt x="250" y="1161" on="0"/>
        <pt x="609" y="1477" on="0"/>
        <pt x="850" y="1477" on="1"/>
        <pt x="1074" y="1477" on="0"/>
        <pt x="1294" y="1224" on="0"/>
        <pt x="1276" y="1021" on="1"/>
        <pt x="1273" y="1015" on="1"/>
        <pt x="1046" y="1015" on="1"/>
        <pt x="1050" y="1140" on="0"/>
        <pt x="947" y="1282" on="0"/>
        <pt x="814" y="1282" on="1"/>
        <pt x="688" y="1282" on="0"/>
        <pt x="466" y="1053" on="0"/>
        <pt x="432" y="882" on="1"/>
        <pt x="371" y="576" on="1"/>
        <pt x="334" y="388" on="0"/>
        <pt x="470" y="173" on="0"/>
        <pt x="617" y="173" on="1"/>
        <pt x="711" y="173" on="0"/>
        <pt x="856" y="227" on="0"/>
        <pt x="891" y="262" on="1"/>
        <pt x="950" y="554" on="1"/>
        <pt x="692" y="554" on="1"/>
        <pt x="728" y="736" on="1"/>
        <pt x="1225" y="736" on="1"/>
      </contour>
    </TTGlyph>
    <TTGlyph name="G.smcp" xMin="64" yMin="-17" xMax="1147" yMax="1181">
      <contour>
        <pt x="998" y="159" on="1"/>
        <pt x="931" y="89" on="0"/>
        <pt x="681" y="-17" on="0"/>
        <pt x="506" y="-17" on="1"/>
        <pt x="301" y="-17" on="0"/>
        <pt x="64" y="253" on="0"/>
        <pt x="106" y="461" on="1"/>
        <pt x="155" y="704" on="1"/>
        <pt x="199" y="928" on="0"/>
        <pt x="519" y="1181" on="0"/>
        <pt x="738" y="1181" on="1"/>
        <pt x="937" y="1181" on="0"/>
        <pt x="1147" y="978" on="0"/>
        <pt x="1108" y="813" on="1"/>
        <pt x="1106" y="807" on="1"/>
        <pt x="876" y="807" on="1"/>
        <pt x="895" y="897" on="0"/>
        <pt x="804" y="988" on="0"/>
        <pt x="700" y="988" on="1"/>
        <pt x="596" y="988" on="0"/>
        <pt x="416" y="825" on="0"/>
        <pt x="393" y="705" on="1"/>
        <pt x="344" y="461" on="1"/>
        <pt x="317" y="328" on="0"/>
        <pt x="424" y="175" on="0"/>
        <pt x="544" y="175" on="1"/>
        <pt x="623" y="175" on="0"/>
        <pt x="742" y="207" on="0"/>
        <pt x="774" y="229" on="1"/>
        <pt x="816" y="441" on="1"/>
        <pt x="600" y="441" on="1"/>
        <pt x="636" y="618" on="1"/>
        <pt x="1090" y="618" on="1"/>
      </contour>
    </TTGlyph>
    <TTGlyph name="Gamma" xMin="65" yMin="0" xMax="1216" yMax="1456">
      <contour>
        <pt x="1177" y="1261" on="1"/>
        <pt x="557" y="1261" on="1"/>
        <pt x="305" y="0" on="1"/>
        <pt x="65" y="0" on="1"/>
        <pt x="356" y="1456" on="1"/>
        <pt x="1216" y="1456" on="1"/>
      </contour>
    </TTGlyph>
    <TTGlyph name="Gbreve" xMin="81" yMin="-21" xMax="1294" yMax="1905">
      <component glyphName="G" x="0" y="0" flags="0x204"/>
      <component glyphName="breve" x="335" y="449" flags="0x4"/>
    </TTGlyph>
    <TTGlyph name="Gbreve.smcp" xMin="64" yMin="-17" xMax="1147" yMax="1577">
      <component glyphName="G.smcp" x="0" y="0" flags="0x204"/>
      <component glyphName="breve" x="210" y="121" flags="0x4"/>
    </TTGlyph>
    <TTGlyph name="Gcircumflex" xMin="81" yMin="-21" xMax="1294" yMax="1885">
      <component glyphName="G" x="0" y="0" flags="0x204"/>
      <component glyphName="circumflex" x="233" y="366" flags="0x4"/>
    </TTGlyph>
    <TTGlyph name="Gcircumflex.smcp" xMin="64" yMin="-17" xMax="1147" yMax="1557">
      <component glyphName="G.smcp" x="0" y="0" flags="0x204"/>
      <component glyphName="circumflex" x="108" y="38" flags="0x4"/>
    </TTGlyph>
    <TTGlyph name="Gcommaaccent" xMin="81" yMin="-500" xMax="1294" yMax="1477">
      <component glyphName="G" x="0" y="0" flags="0x204"/>
      <component glyphName="commaaccent" x="331" y="-372" flags="0x4"/>
    </TTGlyph>
    <TTGlyph name="Gcommaaccent.smcp" xMin="64" yMin="-498" xMax="1147" yMax="1181">
      <component glyphName="G.smcp" x="0" y="0" flags="0x204"/>
      <component glyphName="commaaccent" x="269" y="-370" flags="0x4"/>
    </TTGlyph>
    <TTGlyph name="H" xMin="65" yMin="0" xMax="1420" yMax="1456">
      <contour>
        <pt x="1129" y="0" on="1"/>
        <pt x="891" y="0" on="1"/>
        <pt x="1015" y="621" on="1"/>
        <pt x="428" y="621" on="1"/>
        <pt x="304" y="0" on="1"/>
        <pt x="65" y="0" on="1"/>
        <pt x="356" y="1456" on="1"/>
        <pt x="595" y="1456" on="1"/>
        <pt x="467" y="816" on="1"/>
        <pt x="1054" y="816" on="1"/>
        <pt x="1182" y="1456" on="1"/>
        <pt x="1420" y="1456" on="1"/>
      </contour>
    </TTGlyph>
    <TTGlyph name="H.smcp" xMin="49" yMin="0" xMax="1225" yMax="1165">
      <contour>
        <pt x="992" y="0" on="1"/>
        <pt x="752" y="0" on="1"/>
        <pt x="846" y="472" on="1"/>
        <pt x="382" y="472" on="1"/>
        <pt x="288" y="0" on="1"/>
        <pt x="49" y="0" on="1"/>
        <pt x="282" y="1165" on="1"/>
        <pt x="521" y="1165" on="1"/>
        <pt x="421" y="666" on="1"/>
        <pt x="885" y="666" on="1"/>
        <pt x="985" y="1165" on="1"/>
        <pt x="1225" y="1165" on="1"/>
      </contour>
    </TTGlyph>
    <TTGlyph name="Hbar" xMin="67" yMin="0" xMax="1493" yMax="1456">
      <contour>
        <pt x="1368" y="1188" on="1"/>
        <pt x="1493" y="1188" on="1"/>
        <pt x="1460" y="1026" on="1"/>
        <pt x="1336" y="1026" on="1"/>
        <pt x="1131" y="0" on="1"/>
        <pt x="893" y="0" on="1"/>
        <pt x="1017" y="621" on="1"/>
        <pt x="430" y="621" on="1"/>
        <pt x="306" y="0" on="1"/>
        <pt x="67" y="0" on="1"/>
        <pt x="272" y="1026" on="1"/>
        <pt x="148" y="1026" on="1"/>
        <pt x="181" y="1188" on="1"/>
        <pt x="304" y="1188" on="1"/>
        <pt x="358" y="1456" on="1"/>
        <pt x="597" y="1456" on="1"/>
        <pt x="543" y="1188" on="1"/>
        <pt x="1130" y="1188" on="1"/>
        <pt x="1184" y="1456" on="1"/>
        <pt x="1422" y="1456" on="1"/>
      </contour>
      <contour>
        <pt x="469" y="816" on="1"/>
        <pt x="1056" y="816" on="1"/>
        <pt x="1098" y="1026" on="1"/>
        <pt x="511" y="1026" on="1"/>
      </contour>
    </TTGlyph>
    <TTGlyph name="Hcircumflex" xMin="65" yMin="0" xMax="1420" yMax="1864">
      <component glyphName="H" x="0" y="0" flags="0x204"/>
      <component glyphName="circumflex" x="279" y="345" flags="0x4"/>
    </TTGlyph>
    <TTGlyph name="Hcircumflex.smcp" xMin="49" yMin="0" xMax="1225" yMax="1541">
      <component glyphName="H.smcp" x="0" y="0" flags="0x204"/>
      <component glyphName="circumflex" x="122" y="22" flags="0x4"/>
    </TTGlyph>
    <TTGlyph name="I" xMin="76" yMin="0" xMax="606" yMax="1456">
      <contour>
        <pt x="315" y="0" on="1"/>
        <pt x="76" y="0" on="1"/>
        <pt x="367" y="1456" on="1"/>
        <pt x="606" y="1456" on="1"/>
      </contour>
    </TTGlyph>
    <TTGlyph name="I.smcp" xMin="49" yMin="0" xMax="521" yMax="1165">
      <contour>
        <pt x="288" y="0" on="1"/>
        <pt x="49" y="0" on="1"/>
        <pt x="282" y="1165" on="1"/>
        <pt x="521" y="1165" on="1"/>
      </contour>
    </TTGlyph>
    <TTGlyph name="IJ" xMin="76" yMin="-21" xMax="1706" yMax="1456">
      <component glyphName="I" x="0" y="0" flags="0x4"/>
      <component glyphName="J" x="562" y="0" flags="0x4"/>
    </TTGlyph>
    <TTGlyph name="Iacute" xMin="76" yMin="0" xMax="884" yMax="1825">
      <component glyphName="I" x="0" y="0" flags="0x204"/>
      <component glyphName="acute" x="154" y="347" flags="0x4"/>
    </TTGlyph>
    <TTGlyph name="Iacute.smcp" xMin="49" yMin="0" xMax="792" yMax="1502">
      <component glyphName="I.smcp" x="0" y="0" flags="0x204"/>
      <component glyphName="acute" x="62" y="24" flags="0x4"/>
    </TTGlyph>
    <TTGlyph name="Ibreve" xMin="76" yMin="0" xMax="861" yMax="1884">
      <component glyphName="I" x="0" y="0" flags="0x204"/>
      <component glyphName="breve" x="-14" y="428" flags="0x4"/>
    </TTGlyph>
    <TTGlyph name="Ibreve.smcp" xMin="49" yMin="0" xMax="769" yMax="1561">
      <component glyphName="I.smcp" x="0" y="0" flags="0x204"/>
      <component glyphName="breve" x="-106" y="105" flags="0x4"/>
    </TTGlyph>
    <TTGlyph name="Icircumflex" xMin="76" yMin="0" xMax="841" yMax="1864">
      <component glyphName="I" x="0" y="0" flags="0x204"/>
      <component glyphName="circumflex" x="-116" y="345" flags="0x4"/>
    </TTGlyph>
    <TTGlyph name="Icircumflex.smcp" xMin="49" yMin="0" xMax="749" yMax="1541">
      <component glyphName="I.smcp" x="0" y="0" flags="0x204"/>
      <component glyphName="circumflex" x="-208" y="22" flags="0x4"/>
    </TTGlyph>
    <TTGlyph name="Idieresis" xMin="76" yMin="0" xMax="891" yMax="1805">
      <component glyphName="I" x="0" y="0" flags="0x204"/>
      <component glyphName="dieresis" x="-113" y="349" flags="0x4"/>
    </TTGlyph>
    <TTGlyph name="Idieresis.smcp" xMin="49" yMin="0" xMax="799" yMax="1482">
      <component glyphName="I.smcp" x="0" y="0" flags="0x204"/>
      <component glyphName="dieresis" x="-205" y="26" flags="0x4"/>
    </TTGlyph>
    <TTGlyph name="Idotaccent" xMin="76" yMin="0" xMax="684" yMax="1825">
      <component glyphName="I" x="0" y="0" flags="0x204"/>
      <component glyphName="dotaccent" x="76" y="363" flags="0x4"/>
    </TTGlyph>
    <TTGlyph name="Idotaccent.smcp" xMin="49" yMin="0" xMax="594" yMax="1502">
      <component glyphName="I.smcp" x="0" y="0" flags="0x204"/>
      <component glyphName="dotaccent" x="-14" y="40" flags="0x4"/>
    </TTGlyph>
    <TTGlyph name="Igrave" xMin="76" yMin="0" xMax="621" yMax="1826">
      <component glyphName="I" x="0" y="0" flags="0x204"/>
      <component glyphName="grave" x="-14" y="348" flags="0x4"/>
    </TTGlyph>
    <TTGlyph name="Igrave.smcp" xMin="49" yMin="0" xMax="529" yMax="1503">
      <component glyphName="I.smcp" x="0" y="0" flags="0x204"/>
      <component glyphName="grave" x="-106" y="25" flags="0x4"/>
    </TTGlyph>
    <TTGlyph name="Imacron" xMin="76" yMin="0" xMax="892" yMax="1782">
      <component glyphName="I" x="0" y="0" flags="0x204"/>
      <component glyphName="macron" x="-88" y="326" flags="0x4"/>
    </TTGlyph>
    <TTGlyph name="Imacron.smcp" xMin="49" yMin="0" xMax="800" yMax="1459">
      <component glyphName="I.smcp" x="0" y="0" flags="0x204"/>
      <component glyphName="macron" x="-180" y="3" flags="0x4"/>
    </TTGlyph>
    <TTGlyph name="Iogonek" xMin="-105" yMin="-430" xMax="606" yMax="1456">
      <component glyphName="I" x="0" y="0" flags="0x204"/>
      <component glyphName="ogonek" x="-29" y="0" flags="0x4"/>
    </TTGlyph>
    <TTGlyph name="Iogonek.smcp" xMin="-133" yMin="-430" xMax="521" yMax="1165">
      <component glyphName="I.smcp" x="0" y="0" flags="0x204"/>
      <component glyphName="ogonek" x="-57" y="0" flags="0x4"/>
    </TTGlyph>
    <TTGlyph name="Iota" xMin="76" yMin="0" xMax="606" yMax="1456">
      <component glyphName="I" x="0" y="0" flags="0x204"/>
    </TTGlyph>
    <TTGlyph name="Iotadieresis" xMin="76" yMin="0" xMax="891" yMax="1805">
      <component glyphName="I" x="0" y="0" flags="0x204"/>
      <component glyphName="dieresis" x="-113" y="349" flags="0x4"/>
    </TTGlyph>
    <TTGlyph name="Iotatonos" xMin="150" yMin="0" xMax="706" yMax="1650">
      <component glyphName="I" x="100" y="0" flags="0x4"/>
      <component glyphName="tonos" x="-226" y="2" flags="0x4"/>
    </TTGlyph>
    <TTGlyph name="Itilde" xMin="76" yMin="0" xMax="897" yMax="1891">
      <component glyphName="I" x="0" y="0" flags="0x204"/>
      <component glyphName="tilde" x="-75" y="364" flags="0x4"/>
    </TTGlyph>
    <TTGlyph name="Itilde.smcp" xMin="49" yMin="0" xMax="805" yMax="1568">
      <component glyphName="I.smcp" x="0" y="0" flags="0x204"/>
      <component glyphName="tilde" x="-167" y="41" flags="0x4"/>
    </TTGlyph>
    <TTGlyph name="J" xMin="13" yMin="-21" xMax="1144" yMax="1456">
      <contour>
        <pt x="905" y="1456" on="1"/>
        <pt x="1144" y="1456" on="1"/>
        <pt x="937" y="421" on="1"/>
        <pt x="893" y="204" on="0"/>
        <pt x="609" y="-21" on="0"/>
        <pt x="414" y="-21" on="1"/>
        <pt x="222" y="-21" on="0"/>
        <pt x="13" y="200" on="0"/>
        <pt x="59" y="408" on="1"/>
        <pt x="62" y="413" on="1"/>
        <pt x="294" y="413" on="1"/>
        <pt x="267" y="281" on="0"/>
        <pt x="353" y="173" on="0"/>
        <pt x="453" y="173" on="1"/>
        <pt x="533" y="173" on="0"/>
        <pt x="675" y="309" on="0"/>
        <pt x="698" y="421" on="1"/>
      </contour>
    </TTGlyph>
    <TTGlyph name="J.smcp" xMin="-3" yMin="-18" xMax="1004" yMax="1165">
      <contour>
        <pt x="766" y="1165" on="1"/>
        <pt x="1004" y="1165" on="1"/>
        <pt x="845" y="370" on="1"/>
        <pt x="807" y="182" on="0"/>
        <pt x="547" y="-18" on="0"/>
        <pt x="370" y="-18" on="1"/>
        <pt x="190" y="-18" on="0"/>
        <pt x="-3" y="172" on="0"/>
        <pt x="36" y="348" on="1"/>
        <pt x="38" y="353" on="1"/>
        <pt x="270" y="353" on="1"/>
        <pt x="250" y="258" on="0"/>
        <pt x="327" y="174" on="0"/>
        <pt x="409" y="174" on="1"/>
        <pt x="473" y="174" on="0"/>
        <pt x="589" y="283" on="0"/>
        <pt x="607" y="370" on="1"/>
      </contour>
    </TTGlyph>
    <TTGlyph name="Jcircumflex" xMin="13" yMin="-21" xMax="1364" yMax="1856">
      <component glyphName="J" x="0" y="0" flags="0x204"/>
      <component glyphName="circumflex" x="407" y="337" flags="0x4"/>
    </TTGlyph>
    <TTGlyph name="Jcircumflex.smcp" xMin="-3" yMin="-18" xMax="1224" yMax="1537">
      <component glyphName="J.smcp" x="0" y="0" flags="0x204"/>
      <component glyphName="circumflex" x="267" y="18" flags="0x4"/>
    </TTGlyph>
    <TTGlyph name="K" xMin="49" yMin="0" xMax="1358" yMax="1456">
      <contour>
        <pt x="537" y="628" on="1"/>
        <pt x="414" y="628" on="1"/>
        <pt x="289" y="0" on="1"/>
        <pt x="49" y="0" on="1"/>
        <pt x="340" y="1456" on="1"/>
        <pt x="580" y="1456" on="1"/>
        <pt x="457" y="844" on="1"/>
        <pt x="585" y="844" on="1"/>
        <pt x="1055" y="1456" on="1"/>
        <pt x="1356" y="1456" on="1"/>
        <pt x="1358" y="1451" on="1"/>
        <pt x="748" y="724" on="1"/>
        <pt x="1089" y="0" on="1"/>
        <pt x="816" y="0" on="1"/>
      </contour>
    </TTGlyph>
    <TTGlyph name="K.smcp" xMin="49" yMin="0" xMax="1171" yMax="1165">
      <contour>
        <pt x="474" y="469" on="1"/>
        <pt x="382" y="469" on="1"/>
        <pt x="288" y="0" on="1"/>
        <pt x="49" y="0" on="1"/>
        <pt x="282" y="1165" on="1"/>
        <pt x="521" y="1165" on="1"/>
        <pt x="425" y="685" on="1"/>
        <pt x="497" y="685" on="1"/>
        <pt x="880" y="1165" on="1"/>
        <pt x="1169" y="1165" on="1"/>
        <pt x="1171" y="1160" on="1"/>
        <pt x="686" y="614" on="1"/>
        <pt x="965" y="0" on="1"/>
        <pt x="661" y="0" on="1"/>
      </contour>
    </TTGlyph>
    <TTGlyph name="Kappa" xMin="49" yMin="0" xMax="1358" yMax="1456">
      <component glyphName="K" x="0" y="0" flags="0x4"/>
    </TTGlyph>
    <TTGlyph name="Kcommaaccent" xMin="49" yMin="-486" xMax="1358" yMax="1456">
      <component glyphName="K" x="0" y="0" flags="0x4"/>
      <component glyphName="commaaccent" x="303" y="-358" flags="0x4"/>
    </TTGlyph>
    <TTGlyph name="Kcommaaccent.smcp" xMin="49" yMin="-498" xMax="1171" yMax="1165">
      <component glyphName="K.smcp" x="0" y="0" flags="0x204"/>
      <component glyphName="commaaccent" x="199" y="-370" flags="0x4"/>
    </TTGlyph>
    <TTGlyph name="L" xMin="65" yMin="0" xMax="960" yMax="1456">
      <contour>
        <pt x="343" y="194" on="1"/>
        <pt x="960" y="194" on="1"/>
        <pt x="921" y="0" on="1"/>
        <pt x="65" y="0" on="1"/>
        <pt x="356" y="1456" on="1"/>
        <pt x="595" y="1456" on="1"/>
      </contour>
    </TTGlyph>
    <TTGlyph name="L.smcp" xMin="49" yMin="0" xMax="787" yMax="1165">
      <contour>
        <pt x="326" y="192" on="1"/>
        <pt x="787" y="192" on="1"/>
        <pt x="749" y="0" on="1"/>
        <pt x="49" y="0" on="1"/>
        <pt x="282" y="1165" on="1"/>
        <pt x="521" y="1165" on="1"/>
      </contour>
    </TTGlyph>
    <TTGlyph name="Lacute" xMin="65" yMin="0" xMax="960" yMax="1784">
      <component glyphName="L" x="0" y="0" flags="0x204"/>
      <component glyphName="acute" x="135" y="306" flags="0x4"/>
    </TTGlyph>
    <TTGlyph name="Lacute.smcp" xMin="49" yMin="0" xMax="788" yMax="1483">
      <component glyphName="L.smcp" x="0" y="0" flags="0x204"/>
      <component glyphName="acute" x="58" y="5" flags="0x4"/>
    </TTGlyph>
    <TTGlyph name="Lambda" xMin="-51" yMin="0" xMax="1132" yMax="1456">
      <contour>
        <pt x="767" y="1121" on="1"/>
        <pt x="761" y="1122" on="1"/>
        <pt x="196" y="0" on="1"/>
        <pt x="-51" y="0" on="1"/>
        <pt x="718" y="1456" on="1"/>
        <pt x="944" y="1456" on="1"/>
        <pt x="1132" y="0" on="1"/>
        <pt x="884" y="0" on="1"/>
      </contour>
    </TTGlyph>
    <TTGlyph name="Lcaron" xMin="65" yMin="0" xMax="998" yMax="1458">
      <component glyphName="L" x="0" y="0" flags="0x204"/>
      <component glyphName="commaaccent" x="728" y="1196" flags="0x4"/>
    </TTGlyph>
    <TTGlyph name="Lcaron.smcp" xMin="49" yMin="0" xMax="833" yMax="1167">
      <component glyphName="L.smcp" x="0" y="0" flags="0x204"/>
      <component glyphName="commaaccent" x="563" y="905" flags="0x4"/>
    </TTGlyph>
    <TTGlyph name="Lcommaaccent" xMin="65" yMin="-484" xMax="960" yMax="1456">
      <component glyphName="L" x="0" y="0" flags="0x204"/>
      <component glyphName="commaaccent" x="282" y="-356" flags="0x4"/>
    </TTGlyph>
    <TTGlyph name="Lcommaaccent.smcp" xMin="49" yMin="-498" xMax="787" yMax="1165">
      <component glyphName="L.smcp" x="0" y="0" flags="0x204"/>
      <component glyphName="commaaccent" x="156" y="-370" flags="0x4"/>
    </TTGlyph>
    <TTGlyph name="Ldot" xMin="65" yMin="0" xMax="960" yMax="1456">
      <component glyphName="L" x="0" y="0" flags="0x204"/>
      <component glyphName="dotaccent" x="300" y="-555" flags="0x4"/>
    </TTGlyph>
    <TTGlyph name="Ldot.smcp" xMin="49" yMin="0" xMax="787" yMax="1165">
      <component glyphName="L.smcp" x="0" y="0" flags="0x204"/>
      <component glyphName="dotaccent" x="164" y="-717" flags="0x4"/>
    </TTGlyph>
    <TTGlyph name="Lslash" xMin="51" yMin="0" xMax="946" yMax="1456">
      <contour>
        <pt x="463" y="867" on="1"/>
        <pt x="712" y="943" on="1"/>
        <pt x="675" y="759" on="1"/>
        <pt x="426" y="683" on="1"/>
        <pt x="329" y="194" on="1"/>
        <pt x="946" y="194" on="1"/>
        <pt x="907" y="0" on="1"/>
        <pt x="51" y="0" on="1"/>
        <pt x="172" y="606" on="1"/>
        <pt x="60" y="572" on="1"/>
        <pt x="97" y="756" on="1"/>
        <pt x="209" y="790" on="1"/>
        <pt x="342" y="1456" on="1"/>
        <pt x="581" y="1456" on="1"/>
      </contour>
    </TTGlyph>
    <TTGlyph name="M" xMin="65" yMin="0" xMax="1736" yMax="1456">
      <contour>
        <pt x="666" y="1456" on="1"/>
        <pt x="820" y="338" on="1"/>
        <pt x="826" y="337" on="1"/>
        <pt x="1427" y="1456" on="1"/>
        <pt x="1736" y="1456" on="1"/>
        <pt x="1445" y="0" on="1"/>
        <pt x="1206" y="0" on="1"/>
        <pt x="1305" y="496" on="1"/>
        <pt x="1450" y="1102" on="1"/>
        <pt x="1444" y="1105" on="1"/>
        <pt x="834" y="0" on="1"/>
        <pt x="674" y="0" on="1"/>
        <pt x="507" y="1102" on="1"/>
        <pt x="501" y="1102" on="1"/>
        <pt x="403" y="496" on="1"/>
        <pt x="304" y="0" on="1"/>
        <pt x="65" y="0" on="1"/>
        <pt x="356" y="1456" on="1"/>
      </contour>
    </TTGlyph>
    <TTGlyph name="M.smcp" xMin="49" yMin="0" xMax="1452" yMax="1165">
      <contour>
        <pt x="693" y="309" on="1"/>
        <pt x="699" y="308" on="1"/>
        <pt x="1152" y="1165" on="1"/>
        <pt x="1452" y="1165" on="1"/>
        <pt x="1219" y="0" on="1"/>
        <pt x="980" y="0" on="1"/>
        <pt x="1126" y="731" on="1"/>
        <pt x="1121" y="733" on="1"/>
        <pt x="714" y="0" on="1"/>
        <pt x="552" y="0" on="1"/>
        <pt x="440" y="731" on="1"/>
        <pt x="434" y="731" on="1"/>
        <pt x="288" y="0" on="1"/>
        <pt x="49" y="0" on="1"/>
        <pt x="282" y="1165" on="1"/>
        <pt x="583" y="1165" on="1"/>
      </contour>
    </TTGlyph>
    <TTGlyph name="Mu" xMin="65" yMin="0" xMax="1736" yMax="1456">
      <component glyphName="M" x="0" y="0" flags="0x204"/>
    </TTGlyph>
    <TTGlyph name="N" xMin="65" yMin="0" xMax="1420" yMax="1456">
      <contour>
        <pt x="1129" y="0" on="1"/>
        <pt x="890" y="0" on="1"/>
        <pt x="518" y="1042" on="1"/>
        <pt x="512" y="1042" on="1"/>
        <pt x="304" y="0" on="1"/>
        <pt x="65" y="0" on="1"/>
        <pt x="356" y="1456" on="1"/>
        <pt x="595" y="1456" on="1"/>
        <pt x="967" y="415" on="1"/>
        <pt x="973" y="415" on="1"/>
        <pt x="1181" y="1456" on="1"/>
        <pt x="1420" y="1456" on="1"/>
      </contour>
    </TTGlyph>
    <TTGlyph name="N.smcp" xMin="49" yMin="0" xMax="1233" yMax="1165">
      <contour>
        <pt x="1000" y="0" on="1"/>
        <pt x="762" y="0" on="1"/>
        <pt x="448" y="771" on="1"/>
        <pt x="442" y="771" on="1"/>
        <pt x="288" y="0" on="1"/>
        <pt x="49" y="0" on="1"/>
        <pt x="282" y="1165" on="1"/>
        <pt x="521" y="1165" on="1"/>
        <pt x="835" y="394" on="1"/>
        <pt x="841" y="394" on="1"/>
        <pt x="995" y="1165" on="1"/>
        <pt x="1233" y="1165" on="1"/>
      </contour>
    </TTGlyph>
    <TTGlyph name="Nacute" xMin="65" yMin="0" xMax="1420" yMax="1825">
      <component glyphName="N" x="0" y="0" flags="0x204"/>
      <component glyphName="acute" x="554" y="347" flags="0x4"/>
    </TTGlyph>
    <TTGlyph name="Nacute.smcp" xMin="49" yMin="0" xMax="1233" yMax="1502">
      <component glyphName="N.smcp" x="0" y="0" flags="0x204"/>
      <component glyphName="acute" x="404" y="24" flags="0x4"/>
    </TTGlyph>
    <TTGlyph name="Ncaron" xMin="65" yMin="0" xMax="1420" yMax="1868">
      <component glyphName="N" x="0" y="0" flags="0x204"/>
      <component glyphName="caron" x="304" y="349" flags="0x4"/>
    </TTGlyph>
    <TTGlyph name="Ncaron.smcp" xMin="49" yMin="0" xMax="1233" yMax="1545">
      <component glyphName="N.smcp" x="0" y="0" flags="0x204"/>
      <component glyphName="caron" x="154" y="26" flags="0x4"/>
    </TTGlyph>
    <TTGlyph name="Ncommaaccent" xMin="65" yMin="-484" xMax="1420" yMax="1456">
      <component glyphName="N" x="0" y="0" flags="0x204"/>
      <component glyphName="commaaccent" x="382" y="-356" flags="0x4"/>
    </TTGlyph>
    <TTGlyph name="Ncommaaccent.smcp" xMin="49" yMin="-498" xMax="1233" yMax="1165">
      <component glyphName="N.smcp" x="0" y="0" flags="0x204"/>
      <component glyphName="commaaccent" x="296" y="-370" flags="0x4"/>
    </TTGlyph>
    <TTGlyph name="Ntilde" xMin="65" yMin="0" xMax="1420" yMax="1891">
      <component glyphName="N" x="0" y="0" flags="0x204"/>
      <component glyphName="tilde" x="323" y="364" flags="0x4"/>
    </TTGlyph>
    <TTGlyph name="Ntilde.smcp" xMin="49" yMin="0" xMax="1233" yMax="1568">
      <component glyphName="N.smcp" x="0" y="0" flags="0x204"/>
      <component glyphName="tilde" x="173" y="41" flags="0x4"/>
    </TTGlyph>
    <TTGlyph name="Nu" xMin="65" yMin="0" xMax="1420" yMax="1456">
      <component glyphName="N" x="0" y="0" flags="0x204"/>
    </TTGlyph>
    <TTGlyph name="O" xMin="82" yMin="-21" xMax="1350" yMax="1477">
      <contour>
        <pt x="1246" y="590" on="1"/>
        <pt x="1188" y="303" on="0"/>
        <pt x="839" y="-21" on="0"/>
        <pt x="587" y="-21" on="1"/>
        <pt x="357" y="-21" on="0"/>
        <pt x="82" y="344" on="0"/>
        <pt x="135" y="603" on="1"/>
        <pt x="187" y="865" on="1"/>
        <pt x="244" y="1152" on="0"/>
        <pt x="582" y="1477" on="0"/>
        <pt x="828" y="1477" on="1"/>
        <pt x="1063" y="1477" on="0"/>
        <pt x="1350" y="1110" on="0"/>
        <pt x="1298" y="852" on="1"/>
      </contour>
      <contour>
        <pt x="1061" y="854" on="1"/>
        <pt x="1098" y="1044" on="0"/>
        <pt x="943" y="1277" on="0"/>
        <pt x="788" y="1277" on="1"/>
        <pt x="656" y="1277" on="0"/>
        <pt x="461" y="1049" on="0"/>
        <pt x="425" y="867" on="1"/>
        <pt x="373" y="603" on="1"/>
        <pt x="334" y="411" on="0"/>
        <pt x="478" y="178" on="0"/>
        <pt x="627" y="178" on="1"/>
        <pt x="765" y="178" on="0"/>
        <pt x="971" y="406" on="0"/>
        <pt x="1008" y="590" on="1"/>
      </contour>
    </TTGlyph>
    <TTGlyph name="O.smcp" xMin="62" yMin="-18" xMax="1151" yMax="1181">
      <contour>
        <pt x="1061" y="461" on="1"/>
        <pt x="1016" y="234" on="0"/>
        <pt x="704" y="-18" on="0"/>
        <pt x="487" y="-18" on="1"/>
        <pt x="289" y="-18" on="0"/>
        <pt x="62" y="252" on="0"/>
        <pt x="104" y="461" on="1"/>
        <pt x="153" y="704" on="1"/>
        <pt x="197" y="929" on="0"/>
        <pt x="509" y="1181" on="0"/>
        <pt x="726" y="1181" on="1"/>
        <pt x="925" y="1181" on="0"/>
        <pt x="1151" y="912" on="0"/>
        <pt x="1110" y="704" on="1"/>
      </contour>
      <contour>
        <pt x="871" y="705" on="1"/>
        <pt x="897" y="840" on="0"/>
        <pt x="801" y="988" on="0"/>
        <pt x="688" y="988" on="1"/>
        <pt x="583" y="988" on="0"/>
        <pt x="417" y="830" on="0"/>
        <pt x="392" y="705" on="1"/>
        <pt x="343" y="461" on="1"/>
        <pt x="316" y="324" on="0"/>
        <pt x="412" y="174" on="0"/>
        <pt x="526" y="174" on="1"/>
        <pt x="629" y="174" on="0"/>
        <pt x="796" y="334" on="0"/>
        <pt x="822" y="461" on="1"/>
      </contour>
    </TTGlyph>
    <TTGlyph name="OE" xMin="76" yMin="-21" xMax="1956" yMax="1477">
      <contour>
        <pt x="1672" y="0" on="1"/>
        <pt x="824" y="0" on="1"/>
        <pt x="737" y="-10" on="0"/>
        <pt x="616" y="-21" on="0"/>
        <pt x="555" y="-21" on="1"/>
        <pt x="327" y="-21" on="0"/>
        <pt x="76" y="316" on="0"/>
        <pt x="128" y="576" on="1"/>
        <pt x="189" y="880" on="1"/>
        <pt x="245" y="1162" on="0"/>
        <pt x="603" y="1477" on="0"/>
        <pt x="852" y="1477" on="1"/>
        <pt x="911" y="1477" on="0"/>
        <pt x="1047" y="1465" on="0"/>
        <pt x="1115" y="1456" on="1"/>
        <pt x="1956" y="1456" on="1"/>
        <pt x="1917" y="1261" on="1"/>
        <pt x="1243" y="1261" on="1"/>
        <pt x="1161" y="850" on="1"/>
        <pt x="1747" y="850" on="1"/>
        <pt x="1708" y="655" on="1"/>
        <pt x="1122" y="655" on="1"/>
        <pt x="1030" y="194" on="1"/>
        <pt x="1711" y="194" on="1"/>
      </contour>
      <contour>
        <pt x="594" y="174" on="1"/>
        <pt x="638" y="174" on="0"/>
        <pt x="739" y="181" on="0"/>
        <pt x="790" y="189" on="1"/>
        <pt x="1005" y="1266" on="1"/>
        <pt x="954" y="1273" on="0"/>
        <pt x="860" y="1282" on="0"/>
        <pt x="813" y="1282" on="1"/>
        <pt x="678" y="1282" on="0"/>
        <pt x="465" y="1073" on="0"/>
        <pt x="427" y="882" on="1"/>
        <pt x="366" y="576" on="1"/>
        <pt x="324" y="367" on="0"/>
        <pt x="446" y="174" on="0"/>
      </contour>
    </TTGlyph>
    <TTGlyph name="Oacute" xMin="82" yMin="-21" xMax="1350" yMax="1846">
      <component glyphName="O" x="0" y="0" flags="0x204"/>
      <component glyphName="acute" x="536" y="368" flags="0x4"/>
    </TTGlyph>
    <TTGlyph name="Oacute.smcp" xMin="62" yMin="-18" xMax="1151" yMax="1519">
      <component glyphName="O.smcp" x="0" y="0" flags="0x204"/>
      <component glyphName="acute" x="376" y="41" flags="0x4"/>
    </TTGlyph>
    <TTGlyph name="Obreve" xMin="82" yMin="-21" xMax="1350" yMax="1905">
      <component glyphName="O" x="0" y="0" flags="0x204"/>
      <component glyphName="breve" x="366" y="449" flags="0x4"/>
    </TTGlyph>
    <TTGlyph name="Obreve.smcp" xMin="62" yMin="-18" xMax="1151" yMax="1578">
      <component glyphName="O.smcp" x="0" y="0" flags="0x204"/>
      <component glyphName="breve" x="206" y="122" flags="0x4"/>
    </TTGlyph>
    <TTGlyph name="Ocircumflex" xMin="82" yMin="-21" xMax="1350" yMax="1885">
      <component glyphName="O" x="0" y="0" flags="0x204"/>
      <component glyphName="circumflex" x="264" y="366" flags="0x4"/>
    </TTGlyph>
    <TTGlyph name="Ocircumflex.smcp" xMin="62" yMin="-18" xMax="1151" yMax="1558">
      <component glyphName="O.smcp" x="0" y="0" flags="0x204"/>
      <component glyphName="circumflex" x="104" y="39" flags="0x4"/>
    </TTGlyph>
    <TTGlyph name="Odieresis" xMin="82" yMin="-21" xMax="1350" yMax="1826">
      <component glyphName="O" x="0" y="0" flags="0x204"/>
      <component glyphName="dieresis" x="267" y="370" flags="0x4"/>
    </TTGlyph>
    <TTGlyph name="Odieresis.smcp" xMin="62" yMin="-18" xMax="1151" yMax="1499">
      <component glyphName="O.smcp" x="0" y="0" flags="0x204"/>
      <component glyphName="dieresis" x="107" y="43" flags="0x4"/>
    </TTGlyph>
    <TTGlyph name="Ograve" xMin="82" yMin="-21" xMax="1350" yMax="1847">
      <component glyphName="O" x="0" y="0" flags="0x204"/>
      <component glyphName="grave" x="366" y="369" flags="0x4"/>
    </TTGlyph>
    <TTGlyph name="Ograve.smcp" xMin="62" yMin="-18" xMax="1151" yMax="1520">
      <component glyphName="O.smcp" x="0" y="0" flags="0x204"/>
      <component glyphName="grave" x="206" y="42" flags="0x4"/>
    </TTGlyph>
    <TTGlyph name="Ohorn" xMin="77" yMin="-21" xMax="1684" yMax="1635">
      <contour>
        <pt x="1244" y="597" on="1"/>
        <pt x="1187" y="313" on="0"/>
        <pt x="811" y="-21" on="0"/>
        <pt x="557" y="-21" on="1"/>
        <pt x="329" y="-21" on="0"/>
        <pt x="77" y="335" on="0"/>
        <pt x="130" y="597" on="1"/>
        <pt x="183" y="859" on="1"/>
        <pt x="239" y="1142" on="0"/>
        <pt x="607" y="1477" on="0"/>
        <pt x="855" y="1477" on="1"/>
        <pt x="964" y="1477" on="0"/>
        <pt x="1145" y="1390" on="0"/>
        <pt x="1207" y="1313" on="1"/>
        <pt x="1310" y="1335" on="0"/>
        <pt x="1457" y="1503" on="0"/>
        <pt x="1484" y="1635" on="1"/>
        <pt x="1681" y="1635" on="1"/>
        <pt x="1684" y="1630" on="1"/>
        <pt x="1646" y="1430" on="0"/>
        <pt x="1446" y="1188" on="0"/>
        <pt x="1291" y="1146" on="1"/>
        <pt x="1309" y="1081" on="0"/>
        <pt x="1312" y="936" on="0"/>
        <pt x="1297" y="859" on="1"/>
      </contour>
      <contour>
        <pt x="1059" y="861" on="1"/>
        <pt x="1098" y="1054" on="0"/>
        <pt x="968" y="1277" on="0"/>
        <pt x="815" y="1277" on="1"/>
        <pt x="681" y="1277" on="0"/>
        <pt x="457" y="1039" on="0"/>
        <pt x="421" y="861" on="1"/>
        <pt x="368" y="597" on="1"/>
        <pt x="329" y="401" on="0"/>
        <pt x="450" y="178" on="0"/>
        <pt x="597" y="178" on="1"/>
        <pt x="737" y="178" on="0"/>
        <pt x="970" y="417" on="0"/>
        <pt x="1006" y="597" on="1"/>
      </contour>
    </TTGlyph>
    <TTGlyph name="Ohungarumlaut" xMin="82" yMin="-21" xMax="1451" yMax="1888">
      <component glyphName="O" x="0" y="0" flags="0x204"/>
      <component glyphName="hungarumlaut" x="361" y="370" flags="0x4"/>
    </TTGlyph>
    <TTGlyph name="Ohungarumlaut.smcp" xMin="62" yMin="-18" xMax="1291" yMax="1561">
      <component glyphName="O.smcp" x="0" y="0" flags="0x204"/>
      <component glyphName="hungarumlaut" x="201" y="43" flags="0x4"/>
    </TTGlyph>
    <TTGlyph name="Omacron" xMin="82" yMin="-21" xMax="1350" yMax="1803">
      <component glyphName="O" x="0" y="0" flags="0x204"/>
      <component glyphName="macron" x="292" y="347" flags="0x4"/>
    </TTGlyph>
    <TTGlyph name="Omacron.smcp" xMin="62" yMin="-18" xMax="1151" yMax="1476">
      <component glyphName="O.smcp" x="0" y="0" flags="0x204"/>
      <component glyphName="macron" x="132" y="20" flags="0x4"/>
    </TTGlyph>
    <TTGlyph name="Omega" xMin="32" yMin="0" xMax="1304" yMax="1477">
      <contour>
        <pt x="641" y="196" on="1"/>
        <pt x="642" y="200" on="1"/>
        <pt x="756" y="228" on="0"/>
        <pt x="927" y="500" on="0"/>
        <pt x="976" y="745" on="1"/>
        <pt x="997" y="850" on="1"/>
        <pt x="1041" y="1073" on="0"/>
        <pt x="938" y="1280" on="0"/>
        <pt x="804" y="1280" on="1"/>
        <pt x="681" y="1280" on="0"/>
        <pt x="483" y="1056" on="0"/>
        <pt x="442" y="850" on="1"/>
        <pt x="421" y="745" on="1"/>
        <pt x="368" y="483" on="0"/>
        <pt x="433" y="228" on="0"/>
        <pt x="542" y="200" on="1"/>
        <pt x="518" y="79" on="1"/>
        <pt x="517" y="79" on="1"/>
        <pt x="502" y="0" on="1"/>
        <pt x="32" y="0" on="1"/>
        <pt x="71" y="196" on="1"/>
        <pt x="290" y="196" on="1"/>
        <pt x="202" y="291" on="0"/>
        <pt x="134" y="585" on="0"/>
        <pt x="167" y="745" on="1"/>
        <pt x="188" y="848" on="1"/>
        <pt x="246" y="1144" on="0"/>
        <pt x="602" y="1477" on="0"/>
        <pt x="843" y="1477" on="1"/>
        <pt x="1064" y="1477" on="0"/>
        <pt x="1304" y="1121" on="0"/>
        <pt x="1250" y="848" on="1"/>
        <pt x="1229" y="745" on="1"/>
        <pt x="1195" y="575" on="0"/>
        <pt x="1016" y="287" on="0"/>
        <pt x="895" y="196" on="1"/>
        <pt x="1111" y="196" on="1"/>
        <pt x="1072" y="0" on="1"/>
        <pt x="602" y="0" on="1"/>
      </contour>
    </TTGlyph>
    <TTGlyph name="Omegatonos" xMin="52" yMin="0" xMax="1324" yMax="1648">
      <component glyphName="Omega" x="20" y="0" flags="0x4"/>
      <component glyphName="tonos" x="-188" y="0" flags="0x4"/>
    </TTGlyph>
    <TTGlyph name="Omicron" xMin="82" yMin="-21" xMax="1350" yMax="1477">
      <component glyphName="O" x="0" y="0" flags="0x204"/>
    </TTGlyph>
    <TTGlyph name="Omicrontonos" xMin="102" yMin="-21" xMax="1370" yMax="1648">
      <component glyphName="O" x="20" y="0" flags="0x4"/>
      <component glyphName="tonos" x="-174" y="0" flags="0x4"/>
    </TTGlyph>
    <TTGlyph name="Oslash" xMin="54" yMin="-95" xMax="1398" yMax="1518">
      <contour>
        <pt x="1249" y="597" on="1"/>
        <pt x="1192" y="313" on="0"/>
        <pt x="816" y="-21" on="0"/>
        <pt x="562" y="-21" on="1"/>
        <pt x="490" y="-21" on="0"/>
        <pt x="362" y="18" on="0"/>
        <pt x="309" y="56" on="1"/>
        <pt x="197" y="-95" on="1"/>
        <pt x="54" y="-95" on="1"/>
        <pt x="225" y="135" on="1"/>
        <pt x="156" y="220" on="0"/>
        <pt x="107" y="459" on="0"/>
        <pt x="135" y="597" on="1"/>
        <pt x="188" y="859" on="1"/>
        <pt x="244" y="1142" on="0"/>
        <pt x="612" y="1477" on="0"/>
        <pt x="860" y="1477" on="1"/>
        <pt x="943" y="1477" on="0"/>
        <pt x="1091" y="1425" on="0"/>
        <pt x="1150" y="1377" on="1"/>
        <pt x="1255" y="1518" on="1"/>
        <pt x="1398" y="1518" on="1"/>
        <pt x="1229" y="1291" on="1"/>
        <pt x="1287" y="1206" on="0"/>
        <pt x="1326" y="983" on="0"/>
        <pt x="1302" y="859" on="1"/>
      </contour>
      <contour>
        <pt x="373" y="597" on="1"/>
        <pt x="357" y="520" on="0"/>
        <pt x="359" y="389" on="0"/>
        <pt x="375" y="345" on="1"/>
        <pt x="381" y="344" on="1"/>
        <pt x="1016" y="1197" on="1"/>
        <pt x="982" y="1235" on="0"/>
        <pt x="883" y="1277" on="0"/>
        <pt x="820" y="1277" on="1"/>
        <pt x="686" y="1277" on="0"/>
        <pt x="462" y="1039" on="0"/>
        <pt x="426" y="861" on="1"/>
      </contour>
      <contour>
        <pt x="1064" y="861" on="1"/>
        <pt x="1076" y="922" on="0"/>
        <pt x="1079" y="1028" on="0"/>
        <pt x="1070" y="1068" on="1"/>
        <pt x="1064" y="1070" on="1"/>
        <pt x="440" y="232" on="1"/>
        <pt x="470" y="205" on="0"/>
        <pt x="551" y="178" on="0"/>
        <pt x="602" y="178" on="1"/>
        <pt x="742" y="178" on="0"/>
        <pt x="975" y="417" on="0"/>
        <pt x="1011" y="597" on="1"/>
      </contour>
    </TTGlyph>
    <TTGlyph name="Oslashacute" xMin="54" yMin="-95" xMax="1398" yMax="1887">
      <component glyphName="Oslash" x="0" y="0" flags="0x204"/>
      <component glyphName="acute" x="547" y="409" flags="0x4"/>
    </TTGlyph>
    <TTGlyph name="Otilde" xMin="82" yMin="-21" xMax="1350" yMax="1912">
      <component glyphName="O" x="0" y="0" flags="0x204"/>
      <component glyphName="tilde" x="305" y="385" flags="0x4"/>
    </TTGlyph>
    <TTGlyph name="Otilde.smcp" xMin="62" yMin="-18" xMax="1151" yMax="1585">
      <component glyphName="O.smcp" x="0" y="0" flags="0x204"/>
      <component glyphName="tilde" x="145" y="58" flags="0x4"/>
    </TTGlyph>
    <TTGlyph name="P" xMin="65" yMin="0" xMax="1323" yMax="1456">
      <contour>
        <pt x="414" y="552" on="1"/>
        <pt x="304" y="0" on="1"/>
        <pt x="65" y="0" on="1"/>
        <pt x="356" y="1456" on="1"/>
        <pt x="893" y="1456" on="1"/>
        <pt x="1103" y="1456" on="0"/>
        <pt x="1323" y="1202" on="0"/>
        <pt x="1284" y="1004" on="1"/>
        <pt x="1240" y="787" on="0"/>
        <pt x="942" y="552" on="0"/>
        <pt x="712" y="552" on="1"/>
      </contour>
      <contour>
        <pt x="453" y="747" on="1"/>
        <pt x="751" y="747" on="1"/>
        <pt x="863" y="747" on="0"/>
        <pt x="1022" y="895" on="0"/>
        <pt x="1044" y="1002" on="1"/>
        <pt x="1067" y="1120" on="0"/>
        <pt x="977" y="1261" on="0"/>
        <pt x="854" y="1261" on="1"/>
        <pt x="556" y="1261" on="1"/>
      </contour>
    </TTGlyph>
    <TTGlyph name="P.smcp" xMin="49" yMin="0" xMax="1127" yMax="1165">
      <contour>
        <pt x="366" y="390" on="1"/>
        <pt x="288" y="0" on="1"/>
        <pt x="49" y="0" on="1"/>
        <pt x="282" y="1165" on="1"/>
        <pt x="736" y="1165" on="1"/>
        <pt x="922" y="1165" on="0"/>
        <pt x="1127" y="944" on="0"/>
        <pt x="1094" y="777" on="1"/>
        <pt x="1058" y="595" on="0"/>
        <pt x="784" y="390" on="0"/>
        <pt x="581" y="390" on="1"/>
      </contour>
      <contour>
        <pt x="404" y="584" on="1"/>
        <pt x="620" y="584" on="1"/>
        <pt x="707" y="584" on="0"/>
        <pt x="840" y="698" on="0"/>
        <pt x="855" y="775" on="1"/>
        <pt x="872" y="861" on="0"/>
        <pt x="792" y="972" on="0"/>
        <pt x="697" y="972" on="1"/>
        <pt x="482" y="972" on="1"/>
      </contour>
    </TTGlyph>
    <TTGlyph name="Phi" xMin="83" yMin="0" xMax="1460" yMax="1456">
      <contour>
        <pt x="1003" y="1278" on="1"/>
        <pt x="1214" y="1274" on="0"/>
        <pt x="1460" y="962" on="0"/>
        <pt x="1412" y="722" on="1"/>
        <pt x="1360" y="462" on="0"/>
        <pt x="1012" y="172" on="0"/>
        <pt x="782" y="170" on="1"/>
        <pt x="748" y="0" on="1"/>
        <pt x="510" y="0" on="1"/>
        <pt x="544" y="170" on="1"/>
        <pt x="331" y="171" on="0"/>
        <pt x="83" y="480" on="0"/>
        <pt x="132" y="720" on="1"/>
        <pt x="183" y="982" on="0"/>
        <pt x="533" y="1275" on="0"/>
        <pt x="765" y="1278" on="1"/>
        <pt x="801" y="1456" on="1"/>
        <pt x="1039" y="1456" on="1"/>
      </contour>
      <contour>
        <pt x="367" y="720" on="1"/>
        <pt x="331" y="546" on="0"/>
        <pt x="444" y="376" on="0"/>
        <pt x="580" y="380" on="1"/>
        <pt x="586" y="381" on="1"/>
        <pt x="723" y="1065" on="1"/>
        <pt x="718" y="1068" on="1"/>
        <pt x="595" y="1071" on="0"/>
        <pt x="399" y="882" on="0"/>
      </contour>
      <contour>
        <pt x="1176" y="722" on="1"/>
        <pt x="1211" y="897" on="0"/>
        <pt x="1100" y="1071" on="0"/>
        <pt x="967" y="1068" on="1"/>
        <pt x="961" y="1067" on="1"/>
        <pt x="824" y="383" on="1"/>
        <pt x="829" y="380" on="1"/>
        <pt x="949" y="376" on="0"/>
        <pt x="1144" y="563" on="0"/>
      </contour>
    </TTGlyph>
    <TTGlyph name="Pi" xMin="65" yMin="0" xMax="1421" yMax="1456">
      <contour>
        <pt x="1130" y="0" on="1"/>
        <pt x="892" y="0" on="1"/>
        <pt x="1144" y="1261" on="1"/>
        <pt x="556" y="1261" on="1"/>
        <pt x="304" y="0" on="1"/>
        <pt x="65" y="0" on="1"/>
        <pt x="356" y="1456" on="1"/>
        <pt x="1421" y="1456" on="1"/>
      </contour>
    </TTGlyph>
    <TTGlyph name="Psi" xMin="114" yMin="0" xMax="1483" yMax="1456">
      <contour>
        <pt x="810" y="542" on="1"/>
        <pt x="816" y="539" on="1"/>
        <pt x="930" y="559" on="0"/>
        <pt x="1103" y="754" on="0"/>
        <pt x="1136" y="913" on="1"/>
        <pt x="1244" y="1456" on="1"/>
        <pt x="1483" y="1456" on="1"/>
        <pt x="1375" y="913" on="1"/>
        <pt x="1320" y="644" on="0"/>
        <pt x="1000" y="353" on="0"/>
        <pt x="768" y="330" on="1"/>
        <pt x="702" y="0" on="1"/>
        <pt x="464" y="0" on="1"/>
        <pt x="530" y="331" on="1"/>
        <pt x="325" y="358" on="0"/>
        <pt x="114" y="665" on="0"/>
        <pt x="164" y="913" on="1"/>
        <pt x="272" y="1456" on="1"/>
        <pt x="510" y="1456" on="1"/>
        <pt x="402" y="913" on="1"/>
        <pt x="367" y="741" on="0"/>
        <pt x="456" y="555" on="0"/>
        <pt x="566" y="538" on="1"/>
        <pt x="572" y="539" on="1"/>
        <pt x="755" y="1456" on="1"/>
        <pt x="993" y="1456" on="1"/>
      </contour>
    </TTGlyph>
    <TTGlyph name="Q" xMin="84" yMin="-228" xMax="1352" yMax="1477">
      <contour>
        <pt x="1248" y="590" on="1"/>
        <pt x="1218" y="440" on="0"/>
        <pt x="1090" y="205" on="0"/>
        <pt x="998" y="125" on="1"/>
        <pt x="1171" y="-89" on="1"/>
        <pt x="986" y="-228" on="1"/>
        <pt x="799" y="12" on="1"/>
        <pt x="749" y="-4" on="0"/>
        <pt x="643" y="-21" on="0"/>
        <pt x="589" y="-21" on="1"/>
        <pt x="359" y="-21" on="0"/>
        <pt x="84" y="344" on="0"/>
        <pt x="137" y="603" on="1"/>
        <pt x="189" y="865" on="1"/>
        <pt x="246" y="1152" on="0"/>
        <pt x="584" y="1477" on="0"/>
        <pt x="830" y="1477" on="1"/>
        <pt x="1065" y="1477" on="0"/>
        <pt x="1352" y="1110" on="0"/>
        <pt x="1300" y="852" on="1"/>
      </contour>
      <contour>
        <pt x="1063" y="854" on="1"/>
        <pt x="1100" y="1044" on="0"/>
        <pt x="945" y="1277" on="0"/>
        <pt x="790" y="1277" on="1"/>
        <pt x="658" y="1277" on="0"/>
        <pt x="463" y="1049" on="0"/>
        <pt x="427" y="867" on="1"/>
        <pt x="375" y="603" on="1"/>
        <pt x="336" y="411" on="0"/>
        <pt x="480" y="178" on="0"/>
        <pt x="629" y="178" on="1"/>
        <pt x="767" y="178" on="0"/>
        <pt x="973" y="406" on="0"/>
        <pt x="1010" y="590" on="1"/>
      </contour>
    </TTGlyph>
    <TTGlyph name="Q.smcp" xMin="64" yMin="-129" xMax="1153" yMax="1181">
      <contour>
        <pt x="1063" y="461" on="1"/>
        <pt x="1043" y="364" on="0"/>
        <pt x="962" y="206" on="0"/>
        <pt x="903" y="146" on="1"/>
        <pt x="1010" y="1" on="1"/>
        <pt x="826" y="-129" on="1"/>
        <pt x="713" y="22" on="1"/>
        <pt x="660" y="2" on="0"/>
        <pt x="548" y="-18" on="0"/>
        <pt x="489" y="-18" on="1"/>
        <pt x="291" y="-18" on="0"/>
        <pt x="64" y="252" on="0"/>
        <pt x="106" y="461" on="1"/>
        <pt x="155" y="704" on="1"/>
        <pt x="199" y="929" on="0"/>
        <pt x="511" y="1181" on="0"/>
        <pt x="728" y="1181" on="1"/>
        <pt x="926" y="1181" on="0"/>
        <pt x="1153" y="912" on="0"/>
        <pt x="1112" y="704" on="1"/>
      </contour>
      <contour>
        <pt x="873" y="705" on="1"/>
        <pt x="899" y="840" on="0"/>
        <pt x="803" y="988" on="0"/>
        <pt x="690" y="988" on="1"/>
        <pt x="585" y="988" on="0"/>
        <pt x="418" y="830" on="0"/>
        <pt x="393" y="705" on="1"/>
        <pt x="344" y="461" on="1"/>
        <pt x="317" y="324" on="0"/>
        <pt x="413" y="174" on="0"/>
        <pt x="528" y="174" on="1"/>
        <pt x="631" y="174" on="0"/>
        <pt x="798" y="334" on="0"/>
        <pt x="824" y="461" on="1"/>
      </contour>
    </TTGlyph>
    <TTGlyph name="R" xMin="65" yMin="0" xMax="1293" yMax="1456">
      <contour>
        <pt x="425" y="604" on="1"/>
        <pt x="305" y="0" on="1"/>
        <pt x="65" y="0" on="1"/>
        <pt x="356" y="1456" on="1"/>
        <pt x="862" y="1456" on="1"/>
        <pt x="1075" y="1456" on="0"/>
        <pt x="1293" y="1232" on="0"/>
        <pt x="1253" y="1032" on="1"/>
        <pt x="1229" y="911" on="0"/>
        <pt x="1089" y="752" on="0"/>
        <pt x="972" y="704" on="1"/>
        <pt x="1073" y="663" on="0"/>
        <pt x="1145" y="486" on="0"/>
        <pt x="1121" y="362" on="1"/>
        <pt x="1097" y="241" on="1"/>
        <pt x="1083" y="173" on="0"/>
        <pt x="1090" y="55" on="0"/>
        <pt x="1119" y="23" on="1"/>
        <pt x="1114" y="0" on="1"/>
        <pt x="868" y="0" on="1"/>
        <pt x="837" y="33" on="0"/>
        <pt x="844" y="176" on="0"/>
        <pt x="859" y="243" on="1"/>
        <pt x="882" y="360" on="1"/>
        <pt x="905" y="479" on="0"/>
        <pt x="820" y="604" on="0"/>
        <pt x="719" y="604" on="1"/>
      </contour>
      <contour>
        <pt x="464" y="799" on="1"/>
        <pt x="719" y="799" on="1"/>
        <pt x="840" y="799" on="0"/>
        <pt x="990" y="914" on="0"/>
        <pt x="1013" y="1026" on="1"/>
        <pt x="1036" y="1143" on="0"/>
        <pt x="945" y="1261" on="0"/>
        <pt x="823" y="1261" on="1"/>
        <pt x="557" y="1261" on="1"/>
      </contour>
    </TTGlyph>
    <TTGlyph name="R.smcp" xMin="49" yMin="0" xMax="1097" yMax="1165">
      <contour>
        <pt x="377" y="445" on="1"/>
        <pt x="288" y="0" on="1"/>
        <pt x="49" y="0" on="1"/>
        <pt x="282" y="1165" on="1"/>
        <pt x="714" y="1165" on="1"/>
        <pt x="898" y="1165" on="0"/>
        <pt x="1097" y="976" on="0"/>
        <pt x="1065" y="817" on="1"/>
        <pt x="1045" y="717" on="0"/>
        <pt x="926" y="589" on="0"/>
        <pt x="824" y="548" on="1"/>
        <pt x="916" y="516" on="0"/>
        <pt x="984" y="372" on="0"/>
        <pt x="964" y="271" on="1"/>
        <pt x="944" y="172" on="1"/>
        <pt x="935" y="126" on="0"/>
        <pt x="927" y="36" on="0"/>
        <pt x="936" y="16" on="1"/>
        <pt x="933" y="0" on="1"/>
        <pt x="687" y="0" on="1"/>
        <pt x="679" y="20" on="0"/>
        <pt x="695" y="130" on="0"/>
        <pt x="705" y="173" on="1"/>
        <pt x="724" y="270" on="1"/>
        <pt x="742" y="360" on="0"/>
        <pt x="674" y="445" on="0"/>
        <pt x="588" y="445" on="1"/>
      </contour>
      <contour>
        <pt x="415" y="639" on="1"/>
        <pt x="609" y="639" on="1"/>
        <pt x="693" y="639" on="0"/>
        <pt x="808" y="727" on="0"/>
        <pt x="823" y="802" on="1"/>
        <pt x="839" y="882" on="0"/>
        <pt x="766" y="972" on="0"/>
        <pt x="675" y="972" on="1"/>
        <pt x="482" y="972" on="1"/>
      </contour>
    </TTGlyph>
    <TTGlyph name="Racute" xMin="65" yMin="0" xMax="1293" yMax="1825">
      <component glyphName="R" x="0" y="0" flags="0x204"/>
      <component glyphName="acute" x="462" y="347" flags="0x4"/>
    </TTGlyph>
    <TTGlyph name="Racute.smcp" xMin="49" yMin="0" xMax="1097" yMax="1502">
      <component glyphName="R.smcp" x="0" y="0" flags="0x204"/>
      <component glyphName="acute" x="309" y="24" flags="0x4"/>
    </TTGlyph>
    <TTGlyph name="Rcaron" xMin="65" yMin="0" xMax="1293" yMax="1868">
      <component glyphName="R" x="0" y="0" flags="0x204"/>
      <component glyphName="caron" x="212" y="349" flags="0x4"/>
    </TTGlyph>
    <TTGlyph name="Rcaron.smcp" xMin="49" yMin="0" xMax="1097" yMax="1545">
      <component glyphName="R.smcp" x="0" y="0" flags="0x204"/>
      <component glyphName="caron" x="59" y="26" flags="0x4"/>
    </TTGlyph>
    <TTGlyph name="Rcommaaccent" xMin="65" yMin="-484" xMax="1293" yMax="1456">
      <component glyphName="R" x="0" y="0" flags="0x204"/>
      <component glyphName="commaaccent" x="290" y="-356" flags="0x4"/>
    </TTGlyph>
    <TTGlyph name="Rcommaaccent.smcp" xMin="49" yMin="-498" xMax="1097" yMax="1165">
      <component glyphName="R.smcp" x="0" y="0" flags="0x204"/>
      <component glyphName="commaaccent" x="201" y="-370" flags="0x4"/>
    </TTGlyph>
    <TTGlyph name="Rho" xMin="65" yMin="0" xMax="1323" yMax="1456">
      <component glyphName="P" x="0" y="0" flags="0x204"/>
    </TTGlyph>
    <TTGlyph name="S" xMin="60" yMin="-21" xMax="1225" yMax="1477">
      <contour>
        <pt x="861" y="345" on="1"/>
        <pt x="882" y="450" on="0"/>
        <pt x="777" y="567" on="0"/>
        <pt x="621" y="625" on="1"/>
        <pt x="402" y="700" on="0"/>
        <pt x="208" y="919" on="0"/>
        <pt x="246" y="1109" on="1"/>
        <pt x="281" y="1287" on="0"/>
        <pt x="562" y="1477" on="0"/>
        <pt x="763" y="1477" on="1"/>
        <pt x="982" y="1477" on="0"/>
        <pt x="1225" y="1238" on="0"/>
        <pt x="1180" y="1031" on="1"/>
        <pt x="1177" y="1025" on="1"/>
        <pt x="947" y="1025" on="1"/>
        <pt x="970" y="1141" on="0"/>
        <pt x="847" y="1282" on="0"/>
        <pt x="724" y="1282" on="1"/>
        <pt x="638" y="1282" on="0"/>
        <pt x="499" y="1183" on="0"/>
        <pt x="485" y="1111" on="1"/>
        <pt x="463" y="1003" on="0"/>
        <pt x="564" y="899" on="0"/>
        <pt x="739" y="831" on="1"/>
        <pt x="954" y="755" on="0"/>
        <pt x="1137" y="540" on="0"/>
        <pt x="1099" y="347" on="1"/>
        <pt x="1062" y="161" on="0"/>
        <pt x="780" y="-21" on="0"/>
        <pt x="572" y="-21" on="1"/>
        <pt x="355" y="-21" on="0"/>
        <pt x="60" y="197" on="0"/>
        <pt x="111" y="425" on="1"/>
        <pt x="113" y="431" on="1"/>
        <pt x="343" y="431" on="1"/>
        <pt x="314" y="286" on="0"/>
        <pt x="479" y="173" on="0"/>
        <pt x="611" y="173" on="1"/>
        <pt x="698" y="173" on="0"/>
        <pt x="846" y="271" on="0"/>
      </contour>
    </TTGlyph>
    <TTGlyph name="S.smcp" xMin="27" yMin="-18" xMax="1081" yMax="1181">
      <contour>
        <pt x="725" y="315" on="1"/>
        <pt x="737" y="380" on="0"/>
        <pt x="656" y="454" on="0"/>
        <pt x="530" y="487" on="1"/>
        <pt x="330" y="538" on="0"/>
        <pt x="169" y="692" on="0"/>
        <pt x="201" y="849" on="1"/>
        <pt x="232" y="1005" on="0"/>
        <pt x="494" y="1181" on="0"/>
        <pt x="694" y="1181" on="1"/>
        <pt x="881" y="1181" on="0"/>
        <pt x="1081" y="985" on="0"/>
        <pt x="1044" y="821" on="1"/>
        <pt x="1041" y="815" on="1"/>
        <pt x="811" y="815" on="1"/>
        <pt x="827" y="900" on="0"/>
        <pt x="752" y="988" on="0"/>
        <pt x="656" y="988" on="1"/>
        <pt x="566" y="988" on="0"/>
        <pt x="450" y="909" on="0"/>
        <pt x="439" y="850" on="1"/>
        <pt x="425" y="782" on="0"/>
        <pt x="502" y="713" on="0"/>
        <pt x="642" y="677" on="1"/>
        <pt x="832" y="627" on="0"/>
        <pt x="993" y="468" on="0"/>
        <pt x="963" y="317" on="1"/>
        <pt x="930" y="152" on="0"/>
        <pt x="657" y="-18" on="0"/>
        <pt x="448" y="-18" on="1"/>
        <pt x="256" y="-18" on="0"/>
        <pt x="27" y="170" on="0"/>
        <pt x="67" y="345" on="1"/>
        <pt x="69" y="351" on="1"/>
        <pt x="299" y="351" on="1"/>
        <pt x="282" y="257" on="0"/>
        <pt x="389" y="174" on="0"/>
        <pt x="487" y="174" on="1"/>
        <pt x="584" y="174" on="0"/>
        <pt x="712" y="253" on="0"/>
      </contour>
    </TTGlyph>
    <TTGlyph name="Sacute" xMin="60" yMin="-21" xMax="1225" yMax="1846">
      <component glyphName="S" x="0" y="0" flags="0x4"/>
      <component glyphName="acute" x="463" y="368" flags="0x4"/>
    </TTGlyph>
    <TTGlyph name="Sacute.smcp" xMin="27" yMin="-18" xMax="1081" yMax="1520">
      <component glyphName="S.smcp" x="0" y="0" flags="0x204"/>
      <component glyphName="acute" x="334" y="42" flags="0x4"/>
    </TTGlyph>
    <TTGlyph name="Scaron" xMin="60" yMin="-21" xMax="1225" yMax="1889">
      <component glyphName="S" x="0" y="0" flags="0x4"/>
      <component glyphName="caron" x="213" y="370" flags="0x4"/>
    </TTGlyph>
    <TTGlyph name="Scaron.smcp" xMin="27" yMin="-18" xMax="1081" yMax="1563">
      <component glyphName="S.smcp" x="0" y="0" flags="0x204"/>
      <component glyphName="caron" x="84" y="44" flags="0x4"/>
    </TTGlyph>
    <TTGlyph name="Scedilla" xMin="60" yMin="-453" xMax="1225" yMax="1477">
      <component glyphName="S" x="0" y="0" flags="0x4"/>
      <component glyphName="cedilla" x="373" y="-8" flags="0x4"/>
    </TTGlyph>
    <TTGlyph name="Scedilla.smcp" xMin="27" yMin="-450" xMax="1081" yMax="1181">
      <component glyphName="S.smcp" x="0" y="0" flags="0x204"/>
      <component glyphName="cedilla" x="303" y="-5" flags="0x4"/>
    </TTGlyph>
    <TTGlyph name="Scircumflex" xMin="60" yMin="-21" xMax="1225" yMax="1885">
      <component glyphName="S" x="0" y="0" flags="0x4"/>
      <component glyphName="circumflex" x="191" y="366" flags="0x4"/>
    </TTGlyph>
    <TTGlyph name="Scircumflex.smcp" xMin="27" yMin="-18" xMax="1081" yMax="1559">
      <component glyphName="S.smcp" x="0" y="0" flags="0x204"/>
      <component glyphName="circumflex" x="62" y="40" flags="0x4"/>
    </TTGlyph>
    <TTGlyph name="Sigma" xMin="-13" yMin="0" xMax="1204" yMax="1456">
      <contour>
        <pt x="808" y="719" on="1"/>
        <pt x="334" y="200" on="1"/>
        <pt x="336" y="195" on="1"/>
        <pt x="986" y="195" on="1"/>
        <pt x="947" y="0" on="1"/>
        <pt x="-13" y="0" on="1"/>
        <pt x="17" y="152" on="1"/>
        <pt x="557" y="729" on="1"/>
        <pt x="248" y="1304" on="1"/>
        <pt x="278" y="1456" on="1"/>
        <pt x="1204" y="1456" on="1"/>
        <pt x="1165" y="1261" on="1"/>
        <pt x="542" y="1261" on="1"/>
        <pt x="812" y="739" on="1"/>
      </contour>
    </TTGlyph>
    <TTGlyph name="T" xMin="199" yMin="0" xMax="1283" yMax="1456">
      <contour>
        <pt x="1244" y="1261" on="1"/>
        <pt x="841" y="1261" on="1"/>
        <pt x="589" y="0" on="1"/>
        <pt x="350" y="0" on="1"/>
        <pt x="602" y="1261" on="1"/>
        <pt x="199" y="1261" on="1"/>
        <pt x="238" y="1456" on="1"/>
        <pt x="1283" y="1456" on="1"/>
      </contour>
    </TTGlyph>
    <TTGlyph name="T.smcp" xMin="169" yMin="0" xMax="1087" yMax="1165">
      <contour>
        <pt x="1048" y="972" on="1"/>
        <pt x="726" y="972" on="1"/>
        <pt x="532" y="0" on="1"/>
        <pt x="293" y="0" on="1"/>
        <pt x="487" y="972" on="1"/>
        <pt x="169" y="972" on="1"/>
        <pt x="208" y="1165" on="1"/>
        <pt x="1087" y="1165" on="1"/>
      </contour>
    </TTGlyph>
    <TTGlyph name="Tau" xMin="199" yMin="0" xMax="1283" yMax="1456">
      <component glyphName="T" x="0" y="0" flags="0x204"/>
    </TTGlyph>
    <TTGlyph name="Tbar" xMin="199" yMin="0" xMax="1283" yMax="1456">
      <contour>
        <pt x="934" y="786" on="1"/>
        <pt x="746" y="786" on="1"/>
        <pt x="589" y="0" on="1"/>
        <pt x="350" y="0" on="1"/>
        <pt x="507" y="786" on="1"/>
        <pt x="320" y="786" on="1"/>
        <pt x="354" y="956" on="1"/>
        <pt x="541" y="956" on="1"/>
        <pt x="602" y="1261" on="1"/>
        <pt x="199" y="1261" on="1"/>
        <pt x="238" y="1456" on="1"/>
        <pt x="1283" y="1456" on="1"/>
        <pt x="1244" y="1261" on="1"/>
        <pt x="841" y="1261" on="1"/>
        <pt x="780" y="956" on="1"/>
        <pt x="968" y="956" on="1"/>
      </contour>
    </TTGlyph>
    <TTGlyph name="Tbar.smcp" xMin="169" yMin="0" xMax="1087" yMax="1165">
      <component glyphName="T.smcp" x="0" y="0" flags="0x204"/>
      <component glyphName="crossbar" x="31" y="-33" flags="0x4"/>
    </TTGlyph>
    <TTGlyph name="Tcaron" xMin="199" yMin="0" xMax="1283" yMax="1868">
      <component glyphName="T" x="0" y="0" flags="0x204"/>
      <component glyphName="caron" x="181" y="349" flags="0x4"/>
    </TTGlyph>
    <TTGlyph name="Tcaron.smcp" xMin="169" yMin="0" xMax="1087" yMax="1545">
      <component glyphName="T.smcp" x="0" y="0" flags="0x204"/>
      <component glyphName="caron" x="53" y="26" flags="0x4"/>
    </TTGlyph>
    <TTGlyph name="Tcommaaccent.smcp" xMin="158" yMin="-498" xMax="1087" yMax="1165">
      <component glyphName="T.smcp" x="0" y="0" flags="0x204"/>
      <component glyphName="commaaccent" x="195" y="-370" flags="0x4"/>
    </TTGlyph>
    <TTGlyph name="Theta" xMin="81" yMin="-21" xMax="1349" yMax="1477">
      <contour>
        <pt x="910" y="633" on="1"/>
        <pt x="503" y="633" on="1"/>
        <pt x="542" y="828" on="1"/>
        <pt x="949" y="828" on="1"/>
      </contour>
      <contour>
        <pt x="1245" y="590" on="1"/>
        <pt x="1187" y="303" on="0"/>
        <pt x="838" y="-21" on="0"/>
        <pt x="586" y="-21" on="1"/>
        <pt x="356" y="-21" on="0"/>
        <pt x="81" y="344" on="0"/>
        <pt x="134" y="603" on="1"/>
        <pt x="186" y="865" on="1"/>
        <pt x="243" y="1152" on="0"/>
        <pt x="581" y="1477" on="0"/>
        <pt x="827" y="1477" on="1"/>
        <pt x="1062" y="1477" on="0"/>
        <pt x="1349" y="1110" on="0"/>
        <pt x="1297" y="852" on="1"/>
      </contour>
      <contour>
        <pt x="1060" y="854" on="1"/>
        <pt x="1097" y="1044" on="0"/>
        <pt x="942" y="1277" on="0"/>
        <pt x="787" y="1277" on="1"/>
        <pt x="655" y="1277" on="0"/>
        <pt x="460" y="1049" on="0"/>
        <pt x="424" y="867" on="1"/>
        <pt x="372" y="603" on="1"/>
        <pt x="333" y="411" on="0"/>
        <pt x="477" y="178" on="0"/>
        <pt x="626" y="178" on="1"/>
        <pt x="764" y="178" on="0"/>
        <pt x="970" y="406" on="0"/>
        <pt x="1007" y="590" on="1"/>
      </contour>
    </TTGlyph>
    <TTGlyph name="Thorn" xMin="54" yMin="0" xMax="1180" yMax="1456">
      <contour>
        <pt x="584" y="1456" on="1"/>
        <pt x="528" y="1176" on="1"/>
        <pt x="748" y="1176" on="1"/>
        <pt x="960" y="1176" on="0"/>
        <pt x="1180" y="929" on="0"/>
        <pt x="1143" y="738" on="1"/>
        <pt x="1100" y="529" on="0"/>
        <pt x="805" y="300" on="0"/>
        <pt x="573" y="300" on="1"/>
        <pt x="353" y="300" on="1"/>
        <pt x="293" y="0" on="1"/>
        <pt x="54" y="0" on="1"/>
        <pt x="345" y="1456" on="1"/>
      </contour>
      <contour>
        <pt x="489" y="983" on="1"/>
        <pt x="392" y="495" on="1"/>
        <pt x="612" y="495" on="1"/>
        <pt x="725" y="495" on="0"/>
        <pt x="883" y="637" on="0"/>
        <pt x="903" y="736" on="1"/>
        <pt x="925" y="846" on="0"/>
        <pt x="832" y="981" on="0"/>
        <pt x="709" y="981" on="1"/>
        <pt x="491" y="981" on="1"/>
      </contour>
    </TTGlyph>
    <TTGlyph name="U" xMin="89" yMin="-21" xMax="1393" yMax="1456">
      <contour>
        <pt x="1393" y="1456" on="1"/>
        <pt x="1198" y="480" on="1"/>
        <pt x="1146" y="222" on="0"/>
        <pt x="808" y="-21" on="0"/>
        <pt x="562" y="-21" on="1"/>
        <pt x="342" y="-21" on="0"/>
        <pt x="89" y="242" on="0"/>
        <pt x="137" y="480" on="1"/>
        <pt x="332" y="1456" on="1"/>
        <pt x="571" y="1456" on="1"/>
        <pt x="376" y="480" on="1"/>
        <pt x="343" y="317" on="0"/>
        <pt x="466" y="173" on="0"/>
        <pt x="601" y="173" on="1"/>
        <pt x="729" y="173" on="0"/>
        <pt x="929" y="329" on="0"/>
        <pt x="959" y="480" on="1"/>
        <pt x="1154" y="1456" on="1"/>
      </contour>
    </TTGlyph>
    <TTGlyph name="U.smcp" xMin="76" yMin="-18" xMax="1223" yMax="1165">
      <contour>
        <pt x="1223" y="1165" on="1"/>
        <pt x="1071" y="407" on="1"/>
        <pt x="1029" y="194" on="0"/>
        <pt x="728" y="-18" on="0"/>
        <pt x="508" y="-18" on="1"/>
        <pt x="308" y="-18" on="0"/>
        <pt x="76" y="211" on="0"/>
        <pt x="115" y="407" on="1"/>
        <pt x="267" y="1165" on="1"/>
        <pt x="505" y="1165" on="1"/>
        <pt x="353" y="407" on="1"/>
        <pt x="329" y="288" on="0"/>
        <pt x="433" y="174" on="0"/>
        <pt x="547" y="174" on="1"/>
        <pt x="652" y="174" on="0"/>
        <pt x="811" y="297" on="0"/>
        <pt x="833" y="407" on="1"/>
        <pt x="985" y="1165" on="1"/>
      </contour>
    </TTGlyph>
    <TTGlyph name="Uacute" xMin="89" yMin="-21" xMax="1393" yMax="1825">
      <component glyphName="U" x="0" y="0" flags="0x204"/>
      <component glyphName="acute" x="530" y="347" flags="0x4"/>
    </TTGlyph>
    <TTGlyph name="Uacute.smcp" xMin="76" yMin="-18" xMax="1223" yMax="1504">
      <component glyphName="U.smcp" x="0" y="0" flags="0x204"/>
      <component glyphName="acute" x="393" y="26" flags="0x4"/>
    </TTGlyph>
    <TTGlyph name="Ubreve" xMin="89" yMin="-21" xMax="1393" yMax="1884">
      <component glyphName="U" x="0" y="0" flags="0x204"/>
      <component glyphName="breve" x="360" y="428" flags="0x4"/>
    </TTGlyph>
    <TTGlyph name="Ubreve.smcp" xMin="76" yMin="-18" xMax="1223" yMax="1563">
      <component glyphName="U.smcp" x="0" y="0" flags="0x204"/>
      <component glyphName="breve" x="223" y="107" flags="0x4"/>
    </TTGlyph>
    <TTGlyph name="Ucircumflex" xMin="89" yMin="-21" xMax="1393" yMax="1864">
      <component glyphName="U" x="0" y="0" flags="0x204"/>
      <component glyphName="circumflex" x="258" y="345" flags="0x4"/>
    </TTGlyph>
    <TTGlyph name="Ucircumflex.smcp" xMin="76" yMin="-18" xMax="1223" yMax="1543">
      <component glyphName="U.smcp" x="0" y="0" flags="0x204"/>
      <component glyphName="circumflex" x="121" y="24" flags="0x4"/>
    </TTGlyph>
    <TTGlyph name="Udieresis" xMin="89" yMin="-21" xMax="1393" yMax="1805">
      <component glyphName="U" x="0" y="0" flags="0x204"/>
      <component glyphName="dieresis" x="261" y="349" flags="0x4"/>
    </TTGlyph>
    <TTGlyph name="Udieresis.smcp" xMin="76" yMin="-18" xMax="1223" yMax="1484">
      <component glyphName="U.smcp" x="0" y="0" flags="0x204"/>
      <component glyphName="dieresis" x="124" y="28" flags="0x4"/>
    </TTGlyph>
    <TTGlyph name="Ugrave" xMin="89" yMin="-21" xMax="1393" yMax="1826">
      <component glyphName="U" x="0" y="0" flags="0x204"/>
      <component glyphName="grave" x="360" y="348" flags="0x4"/>
    </TTGlyph>
    <TTGlyph name="Ugrave.smcp" xMin="76" yMin="-18" xMax="1223" yMax="1505">
      <component glyphName="U.smcp" x="0" y="0" flags="0x204"/>
      <component glyphName="grave" x="223" y="27" flags="0x4"/>
    </TTGlyph>
    <TTGlyph name="Uhorn" xMin="89" yMin="-21" xMax="1770" yMax="1598">
      <contour>
        <pt x="1393" y="1456" on="1"/>
        <pt x="1359" y="1285" on="1"/>
        <pt x="1365" y="1283" on="1"/>
        <pt x="1438" y="1310" on="0"/>
        <pt x="1546" y="1475" on="0"/>
        <pt x="1571" y="1598" on="1"/>
        <pt x="1768" y="1598" on="1"/>
        <pt x="1770" y="1593" on="1"/>
        <pt x="1728" y="1370" on="0"/>
        <pt x="1504" y="1125" on="0"/>
        <pt x="1321" y="1096" on="1"/>
        <pt x="1198" y="480" on="1"/>
        <pt x="1146" y="222" on="0"/>
        <pt x="808" y="-21" on="0"/>
        <pt x="562" y="-21" on="1"/>
        <pt x="342" y="-21" on="0"/>
        <pt x="89" y="242" on="0"/>
        <pt x="137" y="480" on="1"/>
        <pt x="332" y="1456" on="1"/>
        <pt x="571" y="1456" on="1"/>
        <pt x="376" y="480" on="1"/>
        <pt x="343" y="317" on="0"/>
        <pt x="466" y="173" on="0"/>
        <pt x="601" y="173" on="1"/>
        <pt x="729" y="173" on="0"/>
        <pt x="929" y="329" on="0"/>
        <pt x="959" y="480" on="1"/>
        <pt x="1154" y="1456" on="1"/>
      </contour>
    </TTGlyph>
    <TTGlyph name="Uhungarumlaut" xMin="89" yMin="-21" xMax="1445" yMax="1867">
      <component glyphName="U" x="0" y="0" flags="0x204"/>
      <component glyphName="hungarumlaut" x="355" y="349" flags="0x4"/>
    </TTGlyph>
    <TTGlyph name="Uhungarumlaut.smcp" xMin="76" yMin="-18" xMax="1308" yMax="1546">
      <component glyphName="U.smcp" x="0" y="0" flags="0x204"/>
      <component glyphName="hungarumlaut" x="218" y="28" flags="0x4"/>
    </TTGlyph>
    <TTGlyph name="Umacron" xMin="89" yMin="-21" xMax="1393" yMax="1782">
      <component glyphName="U" x="0" y="0" flags="0x204"/>
      <component glyphName="macron" x="286" y="326" flags="0x4"/>
    </TTGlyph>
    <TTGlyph name="Umacron.smcp" xMin="76" yMin="-18" xMax="1223" yMax="1461">
      <component glyphName="U.smcp" x="0" y="0" flags="0x204"/>
      <component glyphName="macron" x="149" y="5" flags="0x4"/>
    </TTGlyph>
    <TTGlyph name="Uogonek" xMin="89" yMin="-430" xMax="1393" yMax="1456">
      <component glyphName="U" x="0" y="0" flags="0x204"/>
      <component glyphName="ogonek" x="543" y="0" flags="0x4"/>
    </TTGlyph>
    <TTGlyph name="Uogonek.smcp" xMin="76" yMin="-430" xMax="1223" yMax="1165">
      <component glyphName="U.smcp" x="0" y="0" flags="0x204"/>
      <component glyphName="ogonek" x="489" y="0" flags="0x4"/>
    </TTGlyph>
    <TTGlyph name="Upsilon" xMin="227" yMin="0" xMax="1391" yMax="1456">
      <component glyphName="Y" x="0" y="0" flags="0x204"/>
    </TTGlyph>
    <TTGlyph name="Upsilondieresis" xMin="227" yMin="0" xMax="1391" yMax="1805">
      <component glyphName="Y" x="0" y="0" flags="0x204"/>
      <component glyphName="dieresis" x="211" y="349" flags="0x4"/>
    </TTGlyph>
    <TTGlyph name="Upsilontonos" xMin="36" yMin="0" xMax="1491" yMax="1648">
      <component glyphName="Y" x="100" y="0" flags="0x4"/>
      <component glyphName="tonos" x="-340" y="0" flags="0x4"/>
    </TTGlyph>
    <TTGlyph name="Uring" xMin="89" yMin="-21" xMax="1393" yMax="1935">
      <component glyphName="U" x="0" y="0" flags="0x204"/>
      <component glyphName="ring" x="421" y="435" flags="0x4"/>
    </TTGlyph>
    <TTGlyph name="Uring.smcp" xMin="76" yMin="-18" xMax="1223" yMax="1614">
      <component glyphName="U.smcp" x="0" y="0" flags="0x204"/>
      <component glyphName="ring" x="284" y="114" flags="0x4"/>
    </TTGlyph>
    <TTGlyph name="Utilde" xMin="89" yMin="-21" xMax="1393" yMax="1891">
      <component glyphName="U" x="0" y="0" flags="0x204"/>
      <component glyphName="tilde" x="299" y="364" flags="0x4"/>
    </TTGlyph>
    <TTGlyph name="Utilde.smcp" xMin="76" yMin="-18" xMax="1223" yMax="1570">
      <component glyphName="U.smcp" x="0" y="0" flags="0x204"/>
      <component glyphName="tilde" x="162" y="43" flags="0x4"/>
    </TTGlyph>
    <TTGlyph name="V" xMin="186" yMin="0" xMax="1375" yMax="1456">
      <contour>
        <pt x="581" y="381" on="1"/>
        <pt x="589" y="285" on="1"/>
        <pt x="595" y="284" on="1"/>
        <pt x="634" y="379" on="1"/>
        <pt x="1120" y="1456" on="1"/>
        <pt x="1375" y="1456" on="1"/>
        <pt x="660" y="0" on="1"/>
        <pt x="433" y="0" on="1"/>
        <pt x="186" y="1456" on="1"/>
        <pt x="440" y="1456" on="1"/>
      </contour>
    </TTGlyph>
    <TTGlyph name="V.smcp" xMin="176" yMin="0" xMax="1240" yMax="1165">
      <contour>
        <pt x="519" y="309" on="1"/>
        <pt x="521" y="250" on="1"/>
        <pt x="527" y="248" on="1"/>
        <pt x="552" y="306" on="1"/>
        <pt x="987" y="1165" on="1"/>
        <pt x="1240" y="1165" on="1"/>
        <pt x="595" y="0" on="1"/>
        <pt x="353" y="0" on="1"/>
        <pt x="176" y="1165" on="1"/>
        <pt x="429" y="1165" on="1"/>
      </contour>
    </TTGlyph>
    <TTGlyph name="W" xMin="204" yMin="0" xMax="1805" yMax="1456">
      <contour>
        <pt x="1195" y="418" on="1"/>
        <pt x="1201" y="417" on="1"/>
        <pt x="1571" y="1456" on="1"/>
        <pt x="1805" y="1456" on="1"/>
        <pt x="1254" y="0" on="1"/>
        <pt x="1037" y="0" on="1"/>
        <pt x="939" y="1025" on="1"/>
        <pt x="933" y="1026" on="1"/>
        <pt x="506" y="0" on="1"/>
        <pt x="288" y="0" on="1"/>
        <pt x="204" y="1456" on="1"/>
        <pt x="439" y="1456" on="1"/>
        <pt x="477" y="420" on="1"/>
        <pt x="483" y="419" on="1"/>
        <pt x="909" y="1456" on="1"/>
        <pt x="1099" y="1456" on="1"/>
      </contour>
    </TTGlyph>
    <TTGlyph name="W.smcp" xMin="199" yMin="0" xMax="1545" yMax="1165">
      <contour>
        <pt x="996" y="384" on="1"/>
        <pt x="1002" y="383" on="1"/>
        <pt x="1292" y="1165" on="1"/>
        <pt x="1545" y="1165" on="1"/>
        <pt x="1050" y="0" on="1"/>
        <pt x="823" y="0" on="1"/>
        <pt x="791" y="748" on="1"/>
        <pt x="785" y="749" on="1"/>
        <pt x="453" y="0" on="1"/>
        <pt x="227" y="0" on="1"/>
        <pt x="199" y="1165" on="1"/>
        <pt x="451" y="1165" on="1"/>
        <pt x="427" y="381" on="1"/>
        <pt x="433" y="380" on="1"/>
        <pt x="769" y="1165" on="1"/>
        <pt x="975" y="1165" on="1"/>
      </contour>
    </TTGlyph>
    <TTGlyph name="Wacute" xMin="204" yMin="0" xMax="1805" yMax="1825">
      <component glyphName="W" x="0" y="0" flags="0x204"/>
      <component glyphName="acute" x="666" y="347" flags="0x4"/>
    </TTGlyph>
    <TTGlyph name="Wcircumflex" xMin="204" yMin="0" xMax="1805" yMax="1864">
      <component glyphName="W" x="0" y="0" flags="0x204"/>
      <component glyphName="circumflex" x="394" y="345" flags="0x4"/>
    </TTGlyph>
    <TTGlyph name="Wcircumflex.smcp" xMin="199" yMin="0" xMax="1545" yMax="1541">
      <component glyphName="W.smcp" x="0" y="0" flags="0x204"/>
      <component glyphName="circumflex" x="257" y="22" flags="0x4"/>
    </TTGlyph>
    <TTGlyph name="Wdieresis" xMin="204" yMin="0" xMax="1805" yMax="1805">
      <component glyphName="W" x="0" y="0" flags="0x204"/>
      <component glyphName="dieresis" x="397" y="349" flags="0x4"/>
    </TTGlyph>
    <TTGlyph name="Wgrave" xMin="204" yMin="0" xMax="1805" yMax="1826">
      <component glyphName="W" x="0" y="0" flags="0x204"/>
      <component glyphName="grave" x="496" y="348" flags="0x4"/>
    </TTGlyph>
    <TTGlyph name="X" xMin="-19" yMin="0" xMax="1333" yMax="1456">
      <contour>
        <pt x="689" y="918" on="1"/>
        <pt x="1049" y="1456" on="1"/>
        <pt x="1333" y="1456" on="1"/>
        <pt x="804" y="734" on="1"/>
        <pt x="1115" y="0" on="1"/>
        <pt x="828" y="0" on="1"/>
        <pt x="634" y="547" on="1"/>
        <pt x="265" y="0" on="1"/>
        <pt x="-19" y="0" on="1"/>
        <pt x="520" y="734" on="1"/>
        <pt x="223" y="1456" on="1"/>
        <pt x="504" y="1456" on="1"/>
      </contour>
    </TTGlyph>
    <TTGlyph name="X.smcp" xMin="-37" yMin="0" xMax="1173" yMax="1165">
      <contour>
        <pt x="605" y="760" on="1"/>
        <pt x="899" y="1165" on="1"/>
        <pt x="1170" y="1165" on="1"/>
        <pt x="1173" y="1160" on="1"/>
        <pt x="719" y="588" on="1"/>
        <pt x="952" y="0" on="1"/>
        <pt x="676" y="0" on="1"/>
        <pt x="539" y="413" on="1"/>
        <pt x="238" y="0" on="1"/>
        <pt x="-34" y="0" on="1"/>
        <pt x="-37" y="5" on="1"/>
        <pt x="430" y="588" on="1"/>
        <pt x="200" y="1165" on="1"/>
        <pt x="477" y="1165" on="1"/>
      </contour>
    </TTGlyph>
    <TTGlyph name="Xi" xMin="24" yMin="0" xMax="1187" yMax="1456">
      <contour>
        <pt x="63" y="194" on="1"/>
        <pt x="957" y="194" on="1"/>
        <pt x="918" y="0" on="1"/>
        <pt x="24" y="0" on="1"/>
      </contour>
      <contour>
        <pt x="282" y="844" on="1"/>
        <pt x="993" y="844" on="1"/>
        <pt x="955" y="653" on="1"/>
        <pt x="244" y="653" on="1"/>
      </contour>
      <contour>
        <pt x="324" y="1456" on="1"/>
        <pt x="1187" y="1456" on="1"/>
        <pt x="1148" y="1261" on="1"/>
        <pt x="285" y="1261" on="1"/>
      </contour>
    </TTGlyph>
    <TTGlyph name="Y" xMin="227" yMin="0" xMax="1391" yMax="1456">
      <contour>
        <pt x="668" y="772" on="1"/>
        <pt x="674" y="771" on="1"/>
        <pt x="1125" y="1456" on="1"/>
        <pt x="1391" y="1456" on="1"/>
        <pt x="735" y="509" on="1"/>
        <pt x="633" y="0" on="1"/>
        <pt x="395" y="0" on="1"/>
        <pt x="500" y="527" on="1"/>
        <pt x="227" y="1456" on="1"/>
        <pt x="494" y="1456" on="1"/>
      </contour>
    </TTGlyph>
    <TTGlyph name="Y.smcp" xMin="168" yMin="0" xMax="1165" yMax="1165">
      <contour>
        <pt x="560" y="645" on="1"/>
        <pt x="566" y="644" on="1"/>
        <pt x="903" y="1165" on="1"/>
        <pt x="1165" y="1165" on="1"/>
        <pt x="631" y="408" on="1"/>
        <pt x="550" y="0" on="1"/>
        <pt x="311" y="0" on="1"/>
        <pt x="395" y="421" on="1"/>
        <pt x="168" y="1165" on="1"/>
        <pt x="430" y="1165" on="1"/>
      </contour>
    </TTGlyph>
    <TTGlyph name="Yacute" xMin="227" yMin="0" xMax="1391" yMax="1825">
      <component glyphName="Y" x="0" y="0" flags="0x204"/>
      <component glyphName="acute" x="480" y="347" flags="0x4"/>
    </TTGlyph>
    <TTGlyph name="Yacute.smcp" xMin="168" yMin="0" xMax="1165" yMax="1502">
      <component glyphName="Y.smcp" x="0" y="0" flags="0x204"/>
      <component glyphName="acute" x="328" y="24" flags="0x4"/>
    </TTGlyph>
    <TTGlyph name="Ycircumflex" xMin="227" yMin="0" xMax="1391" yMax="1864">
      <component glyphName="Y" x="0" y="0" flags="0x204"/>
      <component glyphName="circumflex" x="208" y="345" flags="0x4"/>
    </TTGlyph>
    <TTGlyph name="Ycircumflex.smcp" xMin="168" yMin="0" xMax="1165" yMax="1541">
      <component glyphName="Y.smcp" x="0" y="0" flags="0x204"/>
      <component glyphName="circumflex" x="56" y="22" flags="0x4"/>
    </TTGlyph>
    <TTGlyph name="Ydieresis" xMin="227" yMin="0" xMax="1391" yMax="1805">
      <component glyphName="Y" x="0" y="0" flags="0x204"/>
      <component glyphName="dieresis" x="211" y="349" flags="0x4"/>
    </TTGlyph>
    <TTGlyph name="Ydieresis.smcp" xMin="168" yMin="0" xMax="1165" yMax="1482">
      <component glyphName="Y.smcp" x="0" y="0" flags="0x204"/>
      <component glyphName="dieresis" x="59" y="26" flags="0x4"/>
    </TTGlyph>
    <TTGlyph name="Ygrave" xMin="227" yMin="0" xMax="1391" yMax="1826">
      <component glyphName="Y" x="0" y="0" flags="0x204"/>
      <component glyphName="grave" x="310" y="348" flags="0x4"/>
    </TTGlyph>
    <TTGlyph name="Z" xMin="27" yMin="0" xMax="1139" yMax="1456">
      <contour>
        <pt x="323" y="194" on="1"/>
        <pt x="967" y="194" on="1"/>
        <pt x="928" y="0" on="1"/>
        <pt x="27" y="0" on="1"/>
        <pt x="30" y="152" on="1"/>
        <pt x="813" y="1261" on="1"/>
        <pt x="244" y="1261" on="1"/>
        <pt x="283" y="1456" on="1"/>
        <pt x="1139" y="1456" on="1"/>
        <pt x="1110" y="1310" on="1"/>
      </contour>
    </TTGlyph>
    <TTGlyph name="Z.smcp" xMin="-11" yMin="0" xMax="1073" yMax="1165">
      <contour>
        <pt x="327" y="197" on="1"/>
        <pt x="329" y="192" on="1"/>
        <pt x="892" y="192" on="1"/>
        <pt x="854" y="0" on="1"/>
        <pt x="-11" y="0" on="1"/>
        <pt x="13" y="122" on="1"/>
        <pt x="731" y="967" on="1"/>
        <pt x="729" y="972" on="1"/>
        <pt x="214" y="972" on="1"/>
        <pt x="253" y="1165" on="1"/>
        <pt x="1073" y="1165" on="1"/>
        <pt x="1050" y="1048" on="1"/>
      </contour>
    </TTGlyph>
    <TTGlyph name="Zacute" xMin="27" yMin="0" xMax="1172" yMax="1826">
      <component glyphName="Z" x="0" y="0" flags="0x4"/>
      <component glyphName="acute" x="442" y="348" flags="0x4"/>
    </TTGlyph>
    <TTGlyph name="Zacute.smcp" xMin="-11" yMin="0" xMax="1073" yMax="1503">
      <component glyphName="Z.smcp" x="0" y="0" flags="0x204"/>
      <component glyphName="acute" x="313" y="25" flags="0x4"/>
    </TTGlyph>
    <TTGlyph name="Zcaron" xMin="27" yMin="0" xMax="1184" yMax="1869">
      <component glyphName="Z" x="0" y="0" flags="0x4"/>
      <component glyphName="caron" x="192" y="350" flags="0x4"/>
    </TTGlyph>
    <TTGlyph name="Zcaron.smcp" xMin="-11" yMin="0" xMax="1073" yMax="1546">
      <component glyphName="Z.smcp" x="0" y="0" flags="0x204"/>
      <component glyphName="caron" x="63" y="27" flags="0x4"/>
    </TTGlyph>
    <TTGlyph name="Zdotaccent" xMin="27" yMin="0" xMax="1139" yMax="1826">
      <component glyphName="Z" x="0" y="0" flags="0x4"/>
      <component glyphName="dotaccent" x="364" y="364" flags="0x4"/>
    </TTGlyph>
    <TTGlyph name="Zdotaccent.smcp" xMin="-11" yMin="0" xMax="1073" yMax="1503">
      <component glyphName="Z.smcp" x="0" y="0" flags="0x204"/>
      <component glyphName="dotaccent" x="235" y="41" flags="0x4"/>
    </TTGlyph>
    <TTGlyph name="Zeta" xMin="27" yMin="0" xMax="1139" yMax="1456">
      <component glyphName="Z" x="0" y="0" flags="0x4"/>
    </TTGlyph>
    <TTGlyph name="a" xMin="39" yMin="-21" xMax="1025" yMax="1102">
      <contour>
        <pt x="638" y="0" on="1"/>
        <pt x="634" y="34" on="0"/>
        <pt x="633" y="100" on="0"/>
        <pt x="636" y="133" on="1"/>
        <pt x="574" y="66" on="0"/>
        <pt x="413" y="-21" on="0"/>
        <pt x="327" y="-21" on="1"/>
        <pt x="184" y="-21" on="0"/>
        <pt x="39" y="158" on="0"/>
        <pt x="69" y="305" on="1"/>
        <pt x="102" y="472" on="0"/>
        <pt x="360" y="637" on="0"/>
        <pt x="573" y="637" on="1"/>
        <pt x="731" y="637" on="1"/>
        <pt x="750" y="732" on="1"/>
        <pt x="768" y="822" on="0"/>
        <pt x="699" y="913" on="0"/>
        <pt x="615" y="913" on="1"/>
        <pt x="544" y="913" on="0"/>
        <pt x="434" y="832" on="0"/>
        <pt x="422" y="770" on="1"/>
        <pt x="193" y="770" on="1"/>
        <pt x="191" y="776" on="1"/>
        <pt x="213" y="912" on="0"/>
        <pt x="479" y="1102" on="0"/>
        <pt x="667" y="1102" on="1"/>
        <pt x="833" y="1102" on="0"/>
        <pt x="1025" y="906" on="0"/>
        <pt x="990" y="730" on="1"/>
        <pt x="894" y="249" on="1"/>
        <pt x="879" y="177" on="0"/>
        <pt x="872" y="59" on="0"/>
        <pt x="880" y="0" on="1"/>
      </contour>
      <contour>
        <pt x="419" y="174" on="1"/>
        <pt x="485" y="174" on="0"/>
        <pt x="623" y="246" on="0"/>
        <pt x="663" y="297" on="1"/>
        <pt x="701" y="485" on="1"/>
        <pt x="539" y="485" on="1"/>
        <pt x="453" y="485" on="0"/>
        <pt x="323" y="379" on="0"/>
        <pt x="309" y="309" on="1"/>
        <pt x="295" y="243" on="0"/>
        <pt x="350" y="174" on="0"/>
      </contour>
    </TTGlyph>
    <TTGlyph name="aacute" xMin="39" yMin="-21" xMax="1058" yMax="1503">
      <component glyphName="a" x="0" y="0" flags="0x204"/>
      <component glyphName="acute" x="328" y="25" flags="0x4"/>
    </TTGlyph>
    <TTGlyph name="abreve" xMin="39" yMin="-21" xMax="1033" yMax="1562">
      <component glyphName="a" x="0" y="0" flags="0x204"/>
      <component glyphName="breve" x="158" y="106" flags="0x4"/>
    </TTGlyph>
    <TTGlyph name="acircumflex" xMin="39" yMin="-21" xMax="1025" yMax="1542">
      <component glyphName="a" x="0" y="0" flags="0x204"/>
      <component glyphName="circumflex" x="56" y="23" flags="0x4"/>
    </TTGlyph>
    <TTGlyph name="acute" xMin="240" yMin="1212" xMax="730" yMax="1478">
      <contour>
        <pt x="459" y="1478" on="1"/>
        <pt x="730" y="1478" on="1"/>
        <pt x="426" y="1212" on="1"/>
        <pt x="240" y="1212" on="1"/>
      </contour>
    </TTGlyph>
    <TTGlyph name="acutecomb" xMin="-513" yMin="1206" xMax="-127" yMax="1537">
      <contour>
        <pt x="-328" y="1537" on="1"/>
        <pt x="-127" y="1537" on="1"/>
        <pt x="-372" y="1206" on="1"/>
        <pt x="-513" y="1206" on="1"/>
      </contour>
    </TTGlyph>
    <TTGlyph name="adieresis" xMin="39" yMin="-21" xMax="1063" yMax="1483">
      <component glyphName="a" x="0" y="0" flags="0x204"/>
      <component glyphName="dieresis" x="59" y="27" flags="0x4"/>
    </TTGlyph>
    <TTGlyph name="ae" xMin="-2" yMin="-21" xMax="1639" yMax="1102">
      <contour>
        <pt x="1081" y="-21" on="1"/>
        <pt x="966" y="-21" on="0"/>
        <pt x="793" y="70" on="0"/>
        <pt x="744" y="153" on="1"/>
        <pt x="675" y="79" on="0"/>
        <pt x="453" y="-21" on="0"/>
        <pt x="314" y="-21" on="1"/>
        <pt x="156" y="-21" on="0"/>
        <pt x="-2" y="161" on="0"/>
        <pt x="27" y="312" on="1"/>
        <pt x="61" y="480" on="0"/>
        <pt x="315" y="642" on="0"/>
        <pt x="535" y="642" on="1"/>
        <pt x="722" y="642" on="1"/>
        <pt x="736" y="713" on="1"/>
        <pt x="755" y="809" on="0"/>
        <pt x="693" y="907" on="0"/>
        <pt x="616" y="907" on="1"/>
        <pt x="540" y="907" on="0"/>
        <pt x="421" y="816" on="0"/>
        <pt x="409" y="752" on="1"/>
        <pt x="184" y="770" on="1"/>
        <pt x="182" y="776" on="1"/>
        <pt x="208" y="926" on="0"/>
        <pt x="466" y="1102" on="0"/>
        <pt x="657" y="1102" on="1"/>
        <pt x="747" y="1102" on="0"/>
        <pt x="891" y="1039" on="0"/>
        <pt x="934" y="979" on="1"/>
        <pt x="1004" y="1040" on="0"/>
        <pt x="1175" y="1102" on="0"/>
        <pt x="1270" y="1102" on="1"/>
        <pt x="1458" y="1102" on="0"/>
        <pt x="1639" y="835" on="0"/>
        <pt x="1594" y="612" on="1"/>
        <pt x="1566" y="471" on="1"/>
        <pt x="933" y="471" on="1"/>
        <pt x="911" y="328" on="0"/>
        <pt x="1006" y="173" on="0"/>
        <pt x="1134" y="173" on="1"/>
        <pt x="1219" y="173" on="0"/>
        <pt x="1354" y="222" on="0"/>
        <pt x="1434" y="265" on="1"/>
        <pt x="1472" y="100" on="1"/>
        <pt x="1411" y="55" on="0"/>
        <pt x="1206" y="-21" on="0"/>
      </contour>
      <contour>
        <pt x="398" y="164" on="1"/>
        <pt x="453" y="164" on="0"/>
        <pt x="603" y="237" on="0"/>
        <pt x="650" y="285" on="1"/>
        <pt x="688" y="475" on="1"/>
        <pt x="504" y="475" on="1"/>
        <pt x="414" y="475" on="0"/>
        <pt x="280" y="376" on="0"/>
        <pt x="267" y="308" on="1"/>
        <pt x="253" y="239" on="0"/>
        <pt x="316" y="164" on="0"/>
      </contour>
      <contour>
        <pt x="1231" y="907" on="1"/>
        <pt x="1145" y="907" on="0"/>
        <pt x="1009" y="762" on="0"/>
        <pt x="976" y="648" on="1"/>
        <pt x="979" y="642" on="1"/>
        <pt x="1364" y="642" on="1"/>
        <pt x="1370" y="672" on="1"/>
        <pt x="1392" y="784" on="0"/>
        <pt x="1328" y="907" on="0"/>
      </contour>
    </TTGlyph>
    <TTGlyph name="aeacute" xMin="-2" yMin="-21" xMax="1639" yMax="1504">
      <component glyphName="ae" x="0" y="0" flags="0x204"/>
      <component glyphName="acute" x="615" y="26" flags="0x4"/>
    </TTGlyph>
    <TTGlyph name="agrave" xMin="39" yMin="-21" xMax="1025" yMax="1504">
      <component glyphName="a" x="0" y="0" flags="0x204"/>
      <component glyphName="grave" x="158" y="26" flags="0x4"/>
    </TTGlyph>
    <TTGlyph name="alpha" xMin="52" yMin="-21" xMax="1091" yMax="1102">
      <contour>
        <pt x="1091" y="1081" on="1"/>
        <pt x="940" y="323" on="1"/>
        <pt x="923" y="240" on="0"/>
        <pt x="944" y="185" on="0"/>
        <pt x="976" y="185" on="1"/>
        <pt x="981" y="185" on="0"/>
        <pt x="995" y="187" on="0"/>
        <pt x="999" y="189" on="1"/>
        <pt x="987" y="9" on="1"/>
        <pt x="954" y="-8" on="0"/>
        <pt x="894" y="-21" on="0"/>
        <pt x="859" y="-21" on="1"/>
        <pt x="789" y="-21" on="0"/>
        <pt x="701" y="56" on="0"/>
        <pt x="690" y="136" on="1"/>
        <pt x="628" y="59" on="0"/>
        <pt x="477" y="-21" on="0"/>
        <pt x="387" y="-21" on="1"/>
        <pt x="213" y="-21" on="0"/>
        <pt x="52" y="274" on="0"/>
        <pt x="98" y="505" on="1"/>
        <pt x="102" y="526" on="1"/>
        <pt x="156" y="801" on="0"/>
        <pt x="421" y="1102" on="0"/>
        <pt x="613" y="1102" on="1"/>
        <pt x="693" y="1102" on="0"/>
        <pt x="807" y="1022" on="0"/>
        <pt x="840" y="948" on="1"/>
        <pt x="886" y="1081" on="1"/>
      </contour>
      <contour>
        <pt x="338" y="505" on="1"/>
        <pt x="306" y="345" on="0"/>
        <pt x="373" y="173" on="0"/>
        <pt x="487" y="173" on="1"/>
        <pt x="548" y="173" on="0"/>
        <pt x="654" y="244" on="0"/>
        <pt x="698" y="308" on="1"/>
        <pt x="701" y="323" on="1"/>
        <pt x="791" y="775" on="1"/>
        <pt x="774" y="837" on="0"/>
        <pt x="697" y="907" on="0"/>
        <pt x="635" y="907" on="1"/>
        <pt x="531" y="907" on="0"/>
        <pt x="375" y="690" on="0"/>
        <pt x="342" y="526" on="1"/>
      </contour>
    </TTGlyph>
    <TTGlyph name="alpha.alt" xMin="52" yMin="-21" xMax="1176" yMax="1102">
      <contour>
        <pt x="759" y="184" on="1"/>
        <pt x="688" y="84" on="0"/>
        <pt x="507" y="-21" on="0"/>
        <pt x="394" y="-21" on="1"/>
        <pt x="217" y="-21" on="0"/>
        <pt x="52" y="274" on="0"/>
        <pt x="98" y="505" on="1"/>
        <pt x="102" y="526" on="1"/>
        <pt x="157" y="801" on="0"/>
        <pt x="425" y="1102" on="0"/>
        <pt x="620" y="1102" on="1"/>
        <pt x="724" y="1102" on="0"/>
        <pt x="862" y="991" on="0"/>
        <pt x="895" y="890" on="1"/>
        <pt x="959" y="1082" on="1"/>
        <pt x="1176" y="1082" on="1"/>
        <pt x="966" y="540" on="1"/>
        <pt x="966" y="0" on="1"/>
        <pt x="749" y="0" on="1"/>
      </contour>
      <contour>
        <pt x="338" y="505" on="1"/>
        <pt x="306" y="345" on="0"/>
        <pt x="373" y="173" on="0"/>
        <pt x="487" y="173" on="1"/>
        <pt x="578" y="173" on="0"/>
        <pt x="722" y="363" on="0"/>
        <pt x="772" y="510" on="1"/>
        <pt x="781" y="557" on="1"/>
        <pt x="797" y="708" on="0"/>
        <pt x="731" y="907" on="0"/>
        <pt x="635" y="907" on="1"/>
        <pt x="531" y="907" on="0"/>
        <pt x="375" y="690" on="0"/>
        <pt x="342" y="526" on="1"/>
      </contour>
    </TTGlyph>
    <TTGlyph name="alphatonos" xMin="52" yMin="-21" xMax="1091" yMax="1629">
      <component glyphName="alpha" x="0" y="0" flags="0x204"/>
      <component glyphName="tonos" x="294" y="-19" flags="0x4"/>
    </TTGlyph>
    <TTGlyph name="amacron" xMin="39" yMin="-21" xMax="1064" yMax="1460">
      <component glyphName="a" x="0" y="0" flags="0x204"/>
      <component glyphName="macron" x="84" y="4" flags="0x4"/>
    </TTGlyph>
    <TTGlyph name="ampersand" xMin="22" yMin="-21" xMax="1184" yMax="1477">
      <contour>
        <pt x="52" y="393" on="1"/>
        <pt x="71" y="517" on="0"/>
        <pt x="222" y="686" on="0"/>
        <pt x="367" y="779" on="1"/>
        <pt x="313" y="875" on="0"/>
        <pt x="270" y="1029" on="0"/>
        <pt x="283" y="1109" on="1"/>
        <pt x="311" y="1287" on="0"/>
        <pt x="533" y="1477" on="0"/>
        <pt x="701" y="1477" on="1"/>
        <pt x="845" y="1477" on="0"/>
        <pt x="1009" y="1284" on="0"/>
        <pt x="988" y="1151" on="1"/>
        <pt x="971" y="1049" on="0"/>
        <pt x="853" y="901" on="0"/>
        <pt x="750" y="831" on="1"/>
        <pt x="650" y="762" on="1"/>
        <pt x="870" y="407" on="1"/>
        <pt x="915" y="468" on="0"/>
        <pt x="977" y="613" on="0"/>
        <pt x="991" y="694" on="1"/>
        <pt x="1184" y="694" on="1"/>
        <pt x="1161" y="553" on="0"/>
        <pt x="1057" y="327" on="0"/>
        <pt x="974" y="239" on="1"/>
        <pt x="1123" y="0" on="1"/>
        <pt x="847" y="0" on="1"/>
        <pt x="790" y="91" on="1"/>
        <pt x="705" y="36" on="0"/>
        <pt x="525" y="-21" on="0"/>
        <pt x="431" y="-21" on="1"/>
        <pt x="235" y="-21" on="0"/>
        <pt x="22" y="212" on="0"/>
      </contour>
      <contour>
        <pt x="469" y="173" on="1"/>
        <pt x="523" y="173" on="0"/>
        <pt x="639" y="209" on="0"/>
        <pt x="695" y="244" on="1"/>
        <pt x="457" y="628" on="1"/>
        <pt x="429" y="609" on="1"/>
        <pt x="358" y="554" on="0"/>
        <pt x="300" y="450" on="0"/>
        <pt x="292" y="401" on="1"/>
        <pt x="275" y="298" on="0"/>
        <pt x="368" y="173" on="0"/>
      </contour>
      <contour>
        <pt x="508" y="1112" on="1"/>
        <pt x="500" y="1063" on="0"/>
        <pt x="528" y="966" on="0"/>
        <pt x="563" y="905" on="1"/>
        <pt x="672" y="976" on="1"/>
        <pt x="731" y="1013" on="0"/>
        <pt x="778" y="1093" on="0"/>
        <pt x="787" y="1143" on="1"/>
        <pt x="795" y="1199" on="0"/>
        <pt x="732" y="1282" on="0"/>
        <pt x="670" y="1282" on="1"/>
        <pt x="608" y="1282" on="0"/>
        <pt x="518" y="1183" on="0"/>
      </contour>
    </TTGlyph>
    <TTGlyph name="anoteleia" xMin="187" yMin="594" xMax="469" yMax="834">
      <component glyphName="periodcentered" x="0" y="0" flags="0x204"/>
    </TTGlyph>
    <TTGlyph name="aogonek" xMin="39" yMin="-430" xMax="1025" yMax="1102">
      <component glyphName="a" x="0" y="0" flags="0x204"/>
      <component glyphName="ogonek" x="534" y="0" flags="0x4"/>
    </TTGlyph>
    <TTGlyph name="approxequal" xMin="75" yMin="253" xMax="1100" yMax="1024">
      <contour>
        <pt x="198" y="877" on="1"/>
        <pt x="257" y="945" on="0"/>
        <pt x="387" y="1023" on="0"/>
        <pt x="448" y="1023" on="1"/>
        <pt x="512" y="1024" on="0"/>
        <pt x="578" y="996" on="0"/>
        <pt x="656" y="950" on="1"/>
        <pt x="722" y="909" on="0"/>
        <pt x="790" y="881" on="0"/>
        <pt x="852" y="881" on="1"/>
        <pt x="908" y="881" on="0"/>
        <pt x="1042" y="958" on="0"/>
        <pt x="1095" y="1023" on="1"/>
        <pt x="1100" y="1020" on="1"/>
        <pt x="1071" y="829" on="1"/>
        <pt x="1012" y="760" on="0"/>
        <pt x="882" y="683" on="0"/>
        <pt x="823" y="683" on="1"/>
        <pt x="766" y="683" on="0"/>
        <pt x="686" y="715" on="0"/>
        <pt x="626" y="752" on="1"/>
        <pt x="550" y="797" on="0"/>
        <pt x="483" y="826" on="0"/>
        <pt x="418" y="825" on="1"/>
        <pt x="361" y="825" on="0"/>
        <pt x="226" y="747" on="0"/>
        <pt x="175" y="683" on="1"/>
        <pt x="170" y="686" on="1"/>
      </contour>
      <contour>
        <pt x="103" y="447" on="1"/>
        <pt x="162" y="515" on="0"/>
        <pt x="292" y="593" on="0"/>
        <pt x="352" y="593" on="1"/>
        <pt x="417" y="594" on="0"/>
        <pt x="483" y="566" on="0"/>
        <pt x="561" y="520" on="1"/>
        <pt x="628" y="478" on="0"/>
        <pt x="694" y="451" on="0"/>
        <pt x="756" y="451" on="1"/>
        <pt x="812" y="451" on="0"/>
        <pt x="947" y="528" on="0"/>
        <pt x="999" y="593" on="1"/>
        <pt x="1004" y="590" on="1"/>
        <pt x="976" y="399" on="1"/>
        <pt x="917" y="330" on="0"/>
        <pt x="787" y="253" on="0"/>
        <pt x="727" y="253" on="1"/>
        <pt x="670" y="253" on="0"/>
        <pt x="591" y="284" on="0"/>
        <pt x="531" y="322" on="1"/>
        <pt x="453" y="368" on="0"/>
        <pt x="387" y="396" on="0"/>
        <pt x="322" y="395" on="1"/>
        <pt x="265" y="395" on="0"/>
        <pt x="131" y="317" on="0"/>
        <pt x="80" y="253" on="1"/>
        <pt x="75" y="256" on="1"/>
      </contour>
    </TTGlyph>
    <TTGlyph name="aring" xMin="39" yMin="-21" xMax="1025" yMax="1613">
      <component glyphName="a" x="0" y="0" flags="0x204"/>
      <component glyphName="ring" x="219" y="113" flags="0x4"/>
    </TTGlyph>
    <TTGlyph name="aringacute" xMin="39" yMin="-21" xMax="1104" yMax="1792">
      <component glyphName="a" x="0" y="0" flags="0x204"/>
      <component glyphName="ringacute" x="220" y="99" flags="0x4"/>
    </TTGlyph>
    <TTGlyph name="asciicircum" xMin="113" yMin="729" xMax="835" yMax="1456">
      <contour>
        <pt x="315" y="729" on="1"/>
        <pt x="113" y="729" on="1"/>
        <pt x="536" y="1456" on="1"/>
        <pt x="703" y="1456" on="1"/>
        <pt x="835" y="729" on="1"/>
        <pt x="634" y="729" on="1"/>
        <pt x="567" y="1142" on="1"/>
        <pt x="566" y="1184" on="1"/>
        <pt x="560" y="1185" on="1"/>
        <pt x="543" y="1142" on="1"/>
      </contour>
    </TTGlyph>
    <TTGlyph name="asciitilde" xMin="115" yMin="387" xMax="1211" yMax="815">
      <contour>
        <pt x="1211" y="750" on="1"/>
        <pt x="1186" y="593" on="0"/>
        <pt x="989" y="387" on="0"/>
        <pt x="863" y="387" on="1"/>
        <pt x="786" y="387" on="0"/>
        <pt x="657" y="453" on="0"/>
        <pt x="592" y="523" on="1"/>
        <pt x="548" y="569" on="0"/>
        <pt x="477" y="613" on="0"/>
        <pt x="435" y="613" on="1"/>
        <pt x="383" y="613" on="0"/>
        <pt x="288" y="509" on="0"/>
        <pt x="277" y="438" on="1"/>
        <pt x="115" y="460" on="1"/>
        <pt x="139" y="616" on="0"/>
        <pt x="332" y="815" on="0"/>
        <pt x="460" y="815" on="1"/>
        <pt x="537" y="815" on="0"/>
        <pt x="671" y="746" on="0"/>
        <pt x="733" y="680" on="1"/>
        <pt x="774" y="632" on="0"/>
        <pt x="845" y="590" on="0"/>
        <pt x="888" y="590" on="1"/>
        <pt x="938" y="590" on="0"/>
        <pt x="1037" y="700" on="0"/>
        <pt x="1049" y="773" on="1"/>
      </contour>
    </TTGlyph>
    <TTGlyph name="asterisk" xMin="157" yMin="591" xMax="938" yMax="1456">
      <contour>
        <pt x="411" y="972" on="1"/>
        <pt x="157" y="1061" on="1"/>
        <pt x="243" y="1230" on="1"/>
        <pt x="490" y="1113" on="1"/>
        <pt x="545" y="1456" on="1"/>
        <pt x="715" y="1456" on="1"/>
        <pt x="631" y="1106" on="1"/>
        <pt x="920" y="1221" on="1"/>
        <pt x="938" y="1050" on="1"/>
        <pt x="642" y="962" on="1"/>
        <pt x="767" y="696" on="1"/>
        <pt x="608" y="591" on="1"/>
        <pt x="506" y="878" on="1"/>
        <pt x="292" y="599" on="1"/>
        <pt x="172" y="701" on="1"/>
      </contour>
    </TTGlyph>
    <TTGlyph name="at" xMin="-1" yMin="-453" xMax="1727" yMax="1424">
      <contour>
        <pt x="1628" y="507" on="1"/>
        <pt x="1577" y="291" on="0"/>
        <pt x="1300" y="-21" on="0"/>
        <pt x="1084" y="-21" on="1"/>
        <pt x="1019" y="-21" on="0"/>
        <pt x="931" y="64" on="0"/>
        <pt x="923" y="141" on="1"/>
        <pt x="863" y="60" on="0"/>
        <pt x="721" y="-19" on="0"/>
        <pt x="636" y="-19" on="1"/>
        <pt x="521" y="-19" on="0"/>
        <pt x="428" y="224" on="0"/>
        <pt x="483" y="416" on="1"/>
        <pt x="556" y="672" on="0"/>
        <pt x="834" y="982" on="0"/>
        <pt x="988" y="982" on="1"/>
        <pt x="1085" y="982" on="0"/>
        <pt x="1213" y="927" on="0"/>
        <pt x="1274" y="876" on="1"/>
        <pt x="1270" y="872" on="1"/>
        <pt x="1275" y="872" on="1"/>
        <pt x="1113" y="293" on="1"/>
        <pt x="1085" y="192" on="0"/>
        <pt x="1115" y="116" on="0"/>
        <pt x="1154" y="116" on="1"/>
        <pt x="1254" y="116" on="0"/>
        <pt x="1437" y="342" on="0"/>
        <pt x="1477" y="507" on="1"/>
        <pt x="1566" y="874" on="0"/>
        <pt x="1360" y="1284" on="0"/>
        <pt x="1059" y="1284" on="1"/>
        <pt x="795" y="1284" on="0"/>
        <pt x="351" y="834" on="0"/>
        <pt x="267" y="478" on="1"/>
        <pt x="178" y="113" on="0"/>
        <pt x="397" y="-307" on="0"/>
        <pt x="682" y="-307" on="1"/>
        <pt x="758" y="-307" on="0"/>
        <pt x="939" y="-266" on="0"/>
        <pt x="1004" y="-234" on="1"/>
        <pt x="1015" y="-364" on="1"/>
        <pt x="943" y="-406" on="0"/>
        <pt x="741" y="-453" on="0"/>
        <pt x="649" y="-453" on="1"/>
        <pt x="312" y="-453" on="0"/>
        <pt x="-1" y="54" on="0"/>
        <pt x="98" y="478" on="1"/>
        <pt x="200" y="903" on="0"/>
        <pt x="738" y="1424" on="0"/>
        <pt x="1091" y="1424" on="1"/>
        <pt x="1422" y="1424" on="0"/>
        <pt x="1727" y="922" on="0"/>
      </contour>
      <contour>
        <pt x="680" y="416" on="1"/>
        <pt x="644" y="283" on="0"/>
        <pt x="670" y="145" on="0"/>
        <pt x="731" y="145" on="1"/>
        <pt x="780" y="145" on="0"/>
        <pt x="880" y="193" on="0"/>
        <pt x="929" y="254" on="1"/>
        <pt x="930" y="263" on="0"/>
        <pt x="935" y="283" on="0"/>
        <pt x="938" y="293" on="1"/>
        <pt x="1083" y="811" on="1"/>
        <pt x="1063" y="818" on="0"/>
        <pt x="1020" y="828" on="0"/>
        <pt x="997" y="828" on="1"/>
        <pt x="895" y="828" on="0"/>
        <pt x="737" y="619" on="0"/>
      </contour>
    </TTGlyph>
    <TTGlyph name="atilde" xMin="39" yMin="-21" xMax="1069" yMax="1569">
      <component glyphName="a" x="0" y="0" flags="0x204"/>
      <component glyphName="tilde" x="97" y="42" flags="0x4"/>
    </TTGlyph>
    <TTGlyph name="b" xMin="36" yMin="-21" xMax="1080" yMax="1560">
      <contour>
        <pt x="1025" y="485" on="1"/>
        <pt x="974" y="232" on="0"/>
        <pt x="739" y="-21" on="0"/>
        <pt x="549" y="-21" on="1"/>
        <pt x="467" y="-21" on="0"/>
        <pt x="333" y="65" on="0"/>
        <pt x="291" y="142" on="1"/>
        <pt x="243" y="0" on="1"/>
        <pt x="36" y="0" on="1"/>
        <pt x="348" y="1560" on="1"/>
        <pt x="587" y="1560" on="1"/>
        <pt x="473" y="989" on="1"/>
        <pt x="528" y="1044" on="0"/>
        <pt x="659" y="1102" on="0"/>
        <pt x="734" y="1102" on="1"/>
        <pt x="912" y="1102" on="0"/>
        <pt x="1080" y="759" on="0"/>
        <pt x="1029" y="506" on="1"/>
      </contour>
      <contour>
        <pt x="790" y="506" on="1"/>
        <pt x="826" y="686" on="0"/>
        <pt x="757" y="903" on="0"/>
        <pt x="641" y="903" on="1"/>
        <pt x="578" y="903" on="0"/>
        <pt x="469" y="824" on="0"/>
        <pt x="426" y="756" on="1"/>
        <pt x="333" y="292" on="1"/>
        <pt x="353" y="237" on="0"/>
        <pt x="446" y="177" on="0"/>
        <pt x="520" y="177" on="1"/>
        <pt x="627" y="177" on="0"/>
        <pt x="756" y="338" on="0"/>
        <pt x="786" y="485" on="1"/>
      </contour>
    </TTGlyph>
    <TTGlyph name="backslash" xMin="228" yMin="-125" xMax="709" yMax="1456">
      <contour>
        <pt x="228" y="1456" on="1"/>
        <pt x="460" y="1456" on="1"/>
        <pt x="709" y="-125" on="1"/>
        <pt x="477" y="-125" on="1"/>
      </contour>
    </TTGlyph>
    <TTGlyph name="bar" xMin="53" yMin="-270" xMax="493" yMax="1456">
      <contour>
        <pt x="217" y="-270" on="1"/>
        <pt x="53" y="-270" on="1"/>
        <pt x="329" y="1456" on="1"/>
        <pt x="493" y="1456" on="1"/>
      </contour>
    </TTGlyph>
    <TTGlyph name="beta" xMin="-23" yMin="-393" xMax="1169" yMax="1477">
      <contour>
        <pt x="791" y="1477" on="1"/>
        <pt x="971" y="1477" on="0"/>
        <pt x="1169" y="1258" on="0"/>
        <pt x="1134" y="1082" on="1"/>
        <pt x="1113" y="980" on="0"/>
        <pt x="989" y="824" on="0"/>
        <pt x="897" y="779" on="1"/>
        <pt x="995" y="733" on="0"/>
        <pt x="1083" y="544" on="0"/>
        <pt x="1058" y="421" on="1"/>
        <pt x="1013" y="199" on="0"/>
        <pt x="746" y="-21" on="0"/>
        <pt x="551" y="-21" on="1"/>
        <pt x="484" y="-21" on="0"/>
        <pt x="355" y="20" on="0"/>
        <pt x="307" y="61" on="1"/>
        <pt x="216" y="-393" on="1"/>
        <pt x="-23" y="-393" on="1"/>
        <pt x="267" y="1055" on="1"/>
        <pt x="305" y="1246" on="0"/>
        <pt x="604" y="1477" on="0"/>
      </contour>
      <contour>
        <pt x="664" y="861" on="1"/>
        <pt x="754" y="861" on="0"/>
        <pt x="874" y="974" on="0"/>
        <pt x="894" y="1073" on="1"/>
        <pt x="912" y="1163" on="0"/>
        <pt x="839" y="1282" on="0"/>
        <pt x="752" y="1282" on="1"/>
        <pt x="671" y="1282" on="0"/>
        <pt x="525" y="1152" on="0"/>
        <pt x="506" y="1055" on="1"/>
        <pt x="344" y="246" on="1"/>
        <pt x="374" y="210" on="0"/>
        <pt x="478" y="173" on="0"/>
        <pt x="548" y="173" on="1"/>
        <pt x="643" y="173" on="0"/>
        <pt x="797" y="313" on="0"/>
        <pt x="819" y="420" on="1"/>
        <pt x="842" y="535" on="0"/>
        <pt x="765" y="676" on="0"/>
        <pt x="672" y="676" on="1"/>
        <pt x="561" y="676" on="1"/>
        <pt x="598" y="861" on="1"/>
      </contour>
    </TTGlyph>
    <TTGlyph name="braceleft" xMin="71" yMin="-360" xMax="779" yMax="1592">
      <contour>
        <pt x="441" y="-360" on="1"/>
        <pt x="267" y="-305" on="0"/>
        <pt x="150" y="-65" on="0"/>
        <pt x="178" y="106" on="1"/>
        <pt x="210" y="309" on="1"/>
        <pt x="227" y="417" on="0"/>
        <pt x="161" y="529" on="0"/>
        <pt x="71" y="529" on="1"/>
        <pt x="77" y="566" on="1"/>
        <pt x="99" y="707" on="1"/>
        <pt x="185" y="707" on="0"/>
        <pt x="293" y="824" on="0"/>
        <pt x="310" y="929" on="1"/>
        <pt x="342" y="1132" on="1"/>
        <pt x="370" y="1309" on="0"/>
        <pt x="560" y="1540" on="0"/>
        <pt x="750" y="1592" on="1"/>
        <pt x="756" y="1590" on="1"/>
        <pt x="779" y="1457" on="1"/>
        <pt x="686" y="1424" on="0"/>
        <pt x="587" y="1256" on="0"/>
        <pt x="568" y="1132" on="1"/>
        <pt x="536" y="929" on="1"/>
        <pt x="518" y="820" on="0"/>
        <pt x="411" y="660" on="0"/>
        <pt x="321" y="616" on="1"/>
        <pt x="394" y="568" on="0"/>
        <pt x="452" y="408" on="0"/>
        <pt x="436" y="309" on="1"/>
        <pt x="404" y="106" on="1"/>
        <pt x="382" y="-24" on="0"/>
        <pt x="427" y="-186" on="0"/>
        <pt x="511" y="-219" on="1"/>
      </contour>
    </TTGlyph>
    <TTGlyph name="braceright" xMin="-73" yMin="-360" xMax="636" yMax="1590">
      <contour>
        <pt x="-73" y="-224" on="1"/>
        <pt x="19" y="-191" on="0"/>
        <pt x="119" y="-26" on="0"/>
        <pt x="139" y="99" on="1"/>
        <pt x="171" y="302" on="1"/>
        <pt x="188" y="415" on="0"/>
        <pt x="299" y="578" on="0"/>
        <pt x="395" y="621" on="1"/>
        <pt x="316" y="665" on="0"/>
        <pt x="254" y="822" on="0"/>
        <pt x="271" y="925" on="1"/>
        <pt x="303" y="1125" on="1"/>
        <pt x="324" y="1254" on="0"/>
        <pt x="278" y="1417" on="0"/>
        <pt x="195" y="1450" on="1"/>
        <pt x="265" y="1590" on="1"/>
        <pt x="438" y="1535" on="0"/>
        <pt x="554" y="1296" on="0"/>
        <pt x="527" y="1125" on="1"/>
        <pt x="495" y="925" on="1"/>
        <pt x="477" y="815" on="0"/>
        <pt x="544" y="707" on="0"/>
        <pt x="636" y="707" on="1"/>
        <pt x="615" y="572" on="1"/>
        <pt x="614" y="572" on="1"/>
        <pt x="608" y="529" on="1"/>
        <pt x="520" y="529" on="0"/>
        <pt x="411" y="407" on="0"/>
        <pt x="395" y="302" on="1"/>
        <pt x="363" y="99" on="1"/>
        <pt x="334" y="-78" on="0"/>
        <pt x="146" y="-308" on="0"/>
        <pt x="-44" y="-360" on="1"/>
        <pt x="-50" y="-358" on="1"/>
      </contour>
    </TTGlyph>
    <TTGlyph name="bracketleft" xMin="2" yMin="-324" xMax="711" yMax="1678">
      <contour>
        <pt x="681" y="1488" on="1"/>
        <pt x="532" y="1488" on="1"/>
        <pt x="272" y="-135" on="1"/>
        <pt x="421" y="-135" on="1"/>
        <pt x="391" y="-324" on="1"/>
        <pt x="2" y="-324" on="1"/>
        <pt x="322" y="1678" on="1"/>
        <pt x="711" y="1678" on="1"/>
      </contour>
    </TTGlyph>
    <TTGlyph name="bracketright" xMin="-104" yMin="-324" xMax="606" yMax="1678">
      <contour>
        <pt x="216" y="1678" on="1"/>
        <pt x="606" y="1678" on="1"/>
        <pt x="286" y="-324" on="1"/>
        <pt x="-104" y="-324" on="1"/>
        <pt x="-74" y="-135" on="1"/>
        <pt x="77" y="-135" on="1"/>
        <pt x="337" y="1488" on="1"/>
        <pt x="186" y="1488" on="1"/>
      </contour>
    </TTGlyph>
    <TTGlyph name="breve" xMin="256" yMin="1173" xMax="875" yMax="1456">
      <contour>
        <pt x="873" y="1456" on="1"/>
        <pt x="875" y="1450" on="1"/>
        <pt x="859" y="1323" on="0"/>
        <pt x="673" y="1173" on="0"/>
        <pt x="533" y="1173" on="1"/>
        <pt x="399" y="1173" on="0"/>
        <pt x="256" y="1329" on="0"/>
        <pt x="280" y="1451" on="1"/>
        <pt x="282" y="1456" on="1"/>
        <pt x="460" y="1456" on="1"/>
        <pt x="450" y="1397" on="0"/>
        <pt x="496" y="1324" on="0"/>
        <pt x="557" y="1324" on="1"/>
        <pt x="614" y="1324" on="0"/>
        <pt x="687" y="1399" on="0"/>
        <pt x="696" y="1456" on="1"/>
      </contour>
    </TTGlyph>
    <TTGlyph name="breveacutecomb" xMin="304" yMin="1232" xMax="915" yMax="1680">
      <contour>
        <pt x="708" y="1680" on="1"/>
        <pt x="881" y="1680" on="1"/>
        <pt x="883" y="1674" on="1"/>
        <pt x="694" y="1487" on="1"/>
        <pt x="565" y="1487" on="1"/>
      </contour>
      <contour>
        <pt x="913" y="1456" on="1"/>
        <pt x="915" y="1450" on="1"/>
        <pt x="900" y="1348" on="0"/>
        <pt x="718" y="1232" on="0"/>
        <pt x="578" y="1232" on="1"/>
        <pt x="449" y="1232" on="0"/>
        <pt x="304" y="1356" on="0"/>
        <pt x="328" y="1450" on="1"/>
        <pt x="331" y="1456" on="1"/>
        <pt x="507" y="1456" on="1"/>
        <pt x="497" y="1407" on="0"/>
        <pt x="541" y="1352" on="0"/>
        <pt x="602" y="1352" on="1"/>
        <pt x="657" y="1352" on="0"/>
        <pt x="730" y="1411" on="0"/>
        <pt x="739" y="1456" on="1"/>
      </contour>
    </TTGlyph>
    <TTGlyph name="brevegravecomb" xMin="309" yMin="1232" xMax="920" yMax="1721">
      <contour>
        <pt x="735" y="1510" on="1"/>
        <pt x="550" y="1510" on="1"/>
        <pt x="395" y="1721" on="1"/>
        <pt x="639" y="1721" on="1"/>
      </contour>
      <contour>
        <pt x="918" y="1456" on="1"/>
        <pt x="920" y="1450" on="1"/>
        <pt x="905" y="1348" on="0"/>
        <pt x="723" y="1232" on="0"/>
        <pt x="583" y="1232" on="1"/>
        <pt x="454" y="1232" on="0"/>
        <pt x="309" y="1356" on="0"/>
        <pt x="333" y="1450" on="1"/>
        <pt x="336" y="1456" on="1"/>
        <pt x="512" y="1456" on="1"/>
        <pt x="502" y="1407" on="0"/>
        <pt x="546" y="1352" on="0"/>
        <pt x="607" y="1352" on="1"/>
        <pt x="662" y="1352" on="0"/>
        <pt x="735" y="1411" on="0"/>
        <pt x="744" y="1456" on="1"/>
      </contour>
    </TTGlyph>
    <TTGlyph name="brevehookcomb" xMin="300" yMin="1232" xMax="911" yMax="1829">
      <contour>
        <pt x="555" y="1510" on="1"/>
        <pt x="571" y="1628" on="1"/>
        <pt x="637" y="1631" on="0"/>
        <pt x="695" y="1651" on="0"/>
        <pt x="696" y="1676" on="1"/>
        <pt x="696" y="1682" on="1"/>
        <pt x="706" y="1709" on="0"/>
        <pt x="641" y="1734" on="0"/>
        <pt x="583" y="1734" on="1"/>
        <pt x="609" y="1829" on="1"/>
        <pt x="763" y="1829" on="0"/>
        <pt x="905" y="1754" on="0"/>
        <pt x="890" y="1682" on="1"/>
        <pt x="880" y="1631" on="0"/>
        <pt x="793" y="1575" on="0"/>
        <pt x="737" y="1569" on="1"/>
        <pt x="724" y="1510" on="1"/>
      </contour>
      <contour>
        <pt x="909" y="1456" on="1"/>
        <pt x="911" y="1450" on="1"/>
        <pt x="896" y="1348" on="0"/>
        <pt x="714" y="1232" on="0"/>
        <pt x="574" y="1232" on="1"/>
        <pt x="445" y="1232" on="0"/>
        <pt x="300" y="1356" on="0"/>
        <pt x="324" y="1450" on="1"/>
        <pt x="327" y="1456" on="1"/>
        <pt x="503" y="1456" on="1"/>
        <pt x="493" y="1407" on="0"/>
        <pt x="537" y="1352" on="0"/>
        <pt x="598" y="1352" on="1"/>
        <pt x="653" y="1352" on="0"/>
        <pt x="726" y="1411" on="0"/>
        <pt x="735" y="1456" on="1"/>
      </contour>
    </TTGlyph>
    <TTGlyph name="brevetildecomb" xMin="300" yMin="1232" xMax="943" yMax="1756">
      <contour>
        <pt x="909" y="1456" on="1"/>
        <pt x="911" y="1450" on="1"/>
        <pt x="896" y="1348" on="0"/>
        <pt x="714" y="1232" on="0"/>
        <pt x="574" y="1232" on="1"/>
        <pt x="445" y="1232" on="0"/>
        <pt x="300" y="1356" on="0"/>
        <pt x="324" y="1450" on="1"/>
        <pt x="327" y="1456" on="1"/>
        <pt x="503" y="1456" on="1"/>
        <pt x="493" y="1407" on="0"/>
        <pt x="537" y="1352" on="0"/>
        <pt x="598" y="1352" on="1"/>
        <pt x="653" y="1352" on="0"/>
        <pt x="726" y="1411" on="0"/>
        <pt x="735" y="1456" on="1"/>
      </contour>
      <contour>
        <pt x="943" y="1727" on="1"/>
        <pt x="927" y="1647" on="0"/>
        <pt x="820" y="1545" on="0"/>
        <pt x="752" y="1545" on="1"/>
        <pt x="706" y="1545" on="0"/>
        <pt x="595" y="1616" on="0"/>
        <pt x="557" y="1616" on="1"/>
        <pt x="531" y="1616" on="0"/>
        <pt x="481" y="1565" on="0"/>
        <pt x="474" y="1529" on="1"/>
        <pt x="379" y="1556" on="1"/>
        <pt x="394" y="1635" on="0"/>
        <pt x="502" y="1741" on="0"/>
        <pt x="571" y="1741" on="1"/>
        <pt x="606" y="1741" on="0"/>
        <pt x="726" y="1670" on="0"/>
        <pt x="766" y="1670" on="1"/>
        <pt x="791" y="1670" on="0"/>
        <pt x="843" y="1721" on="0"/>
        <pt x="850" y="1756" on="1"/>
      </contour>
    </TTGlyph>
    <TTGlyph name="brokenbar" xMin="-10" yMin="-270" xMax="560" yMax="1456">
      <contour>
        <pt x="-10" y="-270" on="1"/>
        <pt x="149" y="525" on="1"/>
        <pt x="374" y="525" on="1"/>
        <pt x="215" y="-270" on="1"/>
      </contour>
      <contour>
        <pt x="409" y="698" on="1"/>
        <pt x="184" y="698" on="1"/>
        <pt x="335" y="1456" on="1"/>
        <pt x="560" y="1456" on="1"/>
      </contour>
    </TTGlyph>
    <TTGlyph name="bullet" xMin="171" yMin="511" xMax="644" yMax="1016">
      <contour>
        <pt x="205" y="801" on="1"/>
        <pt x="225" y="902" on="0"/>
        <pt x="361" y="1016" on="0"/>
        <pt x="458" y="1016" on="1"/>
        <pt x="548" y="1016" on="0"/>
        <pt x="644" y="894" on="0"/>
        <pt x="626" y="801" on="1"/>
        <pt x="611" y="724" on="1"/>
        <pt x="590" y="622" on="0"/>
        <pt x="456" y="511" on="0"/>
        <pt x="357" y="511" on="1"/>
        <pt x="268" y="511" on="0"/>
        <pt x="171" y="631" on="0"/>
        <pt x="190" y="724" on="1"/>
      </contour>
    </TTGlyph>
    <TTGlyph name="c" xMin="55" yMin="-21" xMax="1022" yMax="1102">
      <contour>
        <pt x="500" y="173" on="1"/>
        <pt x="577" y="173" on="0"/>
        <pt x="703" y="278" on="0"/>
        <pt x="716" y="357" on="1"/>
        <pt x="932" y="357" on="1"/>
        <pt x="934" y="351" on="1"/>
        <pt x="913" y="192" on="0"/>
        <pt x="641" y="-21" on="0"/>
        <pt x="469" y="-21" on="1"/>
        <pt x="253" y="-21" on="0"/>
        <pt x="55" y="290" on="0"/>
        <pt x="93" y="523" on="1"/>
        <pt x="98" y="558" on="1"/>
        <pt x="137" y="802" on="0"/>
        <pt x="422" y="1102" on="0"/>
        <pt x="648" y="1102" on="1"/>
        <pt x="825" y="1102" on="0"/>
        <pt x="1022" y="873" on="0"/>
        <pt x="990" y="699" on="1"/>
        <pt x="988" y="694" on="1"/>
        <pt x="770" y="694" on="1"/>
        <pt x="785" y="787" on="0"/>
        <pt x="703" y="907" on="0"/>
        <pt x="617" y="907" on="1"/>
        <pt x="499" y="907" on="0"/>
        <pt x="361" y="705" on="0"/>
        <pt x="337" y="558" on="1"/>
        <pt x="332" y="523" on="1"/>
        <pt x="306" y="365" on="0"/>
        <pt x="375" y="173" on="0"/>
      </contour>
    </TTGlyph>
    <TTGlyph name="cacute" xMin="55" yMin="-21" xMax="1022" yMax="1503">
      <component glyphName="c" x="0" y="0" flags="0x204"/>
      <component glyphName="acute" x="274" y="25" flags="0x4"/>
    </TTGlyph>
    <TTGlyph name="caron" xMin="332" yMin="1252" xMax="992" yMax="1519">
      <contour>
        <pt x="636" y="1385" on="1"/>
        <pt x="782" y="1519" on="1"/>
        <pt x="992" y="1519" on="1"/>
        <pt x="989" y="1502" on="1"/>
        <pt x="685" y="1252" on="1"/>
        <pt x="534" y="1252" on="1"/>
        <pt x="332" y="1500" on="1"/>
        <pt x="336" y="1519" on="1"/>
        <pt x="544" y="1519" on="1"/>
      </contour>
    </TTGlyph>
    <TTGlyph name="ccaron" xMin="55" yMin="-21" xMax="1022" yMax="1546">
      <component glyphName="c" x="0" y="0" flags="0x204"/>
      <component glyphName="caron" x="24" y="27" flags="0x4"/>
    </TTGlyph>
    <TTGlyph name="ccedilla" xMin="55" yMin="-449" xMax="1022" yMax="1102">
      <component glyphName="c" x="0" y="0" flags="0x204"/>
      <component glyphName="cedilla" x="307" y="-4" flags="0x4"/>
    </TTGlyph>
    <TTGlyph name="ccircumflex" xMin="55" yMin="-21" xMax="1022" yMax="1542">
      <component glyphName="c" x="0" y="0" flags="0x204"/>
      <component glyphName="circumflex" x="2" y="23" flags="0x4"/>
    </TTGlyph>
    <TTGlyph name="cedilla" xMin="-44" yMin="-445" xMax="319" yMax="3">
      <contour>
        <pt x="225" y="3" on="1"/>
        <pt x="203" y="-51" on="1"/>
        <pt x="258" y="-62" on="0"/>
        <pt x="319" y="-144" on="0"/>
        <pt x="304" y="-224" on="1"/>
        <pt x="282" y="-333" on="0"/>
        <pt x="106" y="-445" on="0"/>
        <pt x="-39" y="-443" on="1"/>
        <pt x="-44" y="-440" on="1"/>
        <pt x="-25" y="-310" on="1"/>
        <pt x="26" y="-310" on="0"/>
        <pt x="102" y="-265" on="0"/>
        <pt x="112" y="-221" on="1"/>
        <pt x="121" y="-174" on="0"/>
        <pt x="67" y="-141" on="0"/>
        <pt x="-7" y="-136" on="1"/>
        <pt x="51" y="3" on="1"/>
      </contour>
    </TTGlyph>
    <TTGlyph name="cent" xMin="81" yMin="-245" xMax="1037" yMax="1318">
      <contour>
        <pt x="520" y="173" on="1"/>
        <pt x="597" y="173" on="0"/>
        <pt x="723" y="278" on="0"/>
        <pt x="736" y="357" on="1"/>
        <pt x="953" y="357" on="1"/>
        <pt x="955" y="351" on="1"/>
        <pt x="936" y="210" on="0"/>
        <pt x="712" y="7" on="0"/>
        <pt x="561" y="-15" on="1"/>
        <pt x="516" y="-245" on="1"/>
        <pt x="320" y="-245" on="1"/>
        <pt x="368" y="-5" on="1"/>
        <pt x="214" y="38" on="0"/>
        <pt x="81" y="328" on="0"/>
        <pt x="113" y="523" on="1"/>
        <pt x="118" y="558" on="1"/>
        <pt x="152" y="778" on="0"/>
        <pt x="395" y="1069" on="0"/>
        <pt x="588" y="1096" on="1"/>
        <pt x="633" y="1318" on="1"/>
        <pt x="829" y="1318" on="1"/>
        <pt x="782" y="1087" on="1"/>
        <pt x="909" y="1052" on="0"/>
        <pt x="1037" y="840" on="0"/>
        <pt x="1015" y="694" on="1"/>
        <pt x="790" y="694" on="1"/>
        <pt x="805" y="787" on="0"/>
        <pt x="723" y="907" on="0"/>
        <pt x="637" y="907" on="1"/>
        <pt x="519" y="907" on="0"/>
        <pt x="381" y="705" on="0"/>
        <pt x="357" y="558" on="1"/>
        <pt x="352" y="523" on="1"/>
        <pt x="326" y="365" on="0"/>
        <pt x="395" y="173" on="0"/>
      </contour>
    </TTGlyph>
    <TTGlyph name="chi" xMin="-75" yMin="-435" xMax="1137" yMax="1098">
      <contour>
        <pt x="325" y="1098" on="1"/>
        <pt x="448" y="1098" on="0"/>
        <pt x="573" y="931" on="0"/>
        <pt x="588" y="826" on="1"/>
        <pt x="619" y="663" on="1"/>
        <pt x="624" y="662" on="1"/>
        <pt x="897" y="1082" on="1"/>
        <pt x="1137" y="1082" on="1"/>
        <pt x="674" y="366" on="1"/>
        <pt x="761" y="-93" on="1"/>
        <pt x="772" y="-154" on="0"/>
        <pt x="813" y="-222" on="0"/>
        <pt x="850" y="-227" on="1"/>
        <pt x="864" y="-227" on="0"/>
        <pt x="879" y="-227" on="0"/>
        <pt x="893" y="-225" on="1"/>
        <pt x="846" y="-423" on="1"/>
        <pt x="827" y="-429" on="0"/>
        <pt x="775" y="-435" on="0"/>
        <pt x="753" y="-434" on="1"/>
        <pt x="646" y="-429" on="0"/>
        <pt x="544" y="-267" on="0"/>
        <pt x="526" y="-134" on="1"/>
        <pt x="488" y="66" on="1"/>
        <pt x="482" y="67" on="1"/>
        <pt x="169" y="-416" on="1"/>
        <pt x="-75" y="-416" on="1"/>
        <pt x="430" y="363" on="1"/>
        <pt x="357" y="748" on="1"/>
        <pt x="345" y="814" on="0"/>
        <pt x="277" y="898" on="0"/>
        <pt x="223" y="898" on="1"/>
        <pt x="213" y="898" on="0"/>
        <pt x="173" y="894" on="0"/>
        <pt x="160" y="893" on="1"/>
        <pt x="195" y="1079" on="1"/>
        <pt x="227" y="1087" on="0"/>
        <pt x="293" y="1098" on="0"/>
      </contour>
    </TTGlyph>
    <TTGlyph name="circumflex" xMin="314" yMin="1252" xMax="957" yMax="1519">
      <contour>
        <pt x="957" y="1276" on="1"/>
        <pt x="952" y="1252" on="1"/>
        <pt x="762" y="1252" on="1"/>
        <pt x="660" y="1391" on="1"/>
        <pt x="503" y="1252" on="1"/>
        <pt x="314" y="1252" on="1"/>
        <pt x="320" y="1278" on="1"/>
        <pt x="618" y="1519" on="1"/>
        <pt x="755" y="1519" on="1"/>
      </contour>
    </TTGlyph>
    <TTGlyph name="circumflexacutecomb" xMin="276" yMin="1255" xMax="1390" yMax="1694">
      <contour>
        <pt x="1160" y="1694" on="1"/>
        <pt x="1387" y="1694" on="1"/>
        <pt x="1390" y="1688" on="1"/>
        <pt x="1144" y="1427" on="1"/>
        <pt x="973" y="1427" on="1"/>
      </contour>
      <contour>
        <pt x="1014" y="1260" on="1"/>
        <pt x="1012" y="1255" on="1"/>
        <pt x="808" y="1255" on="1"/>
        <pt x="674" y="1410" on="1"/>
        <pt x="479" y="1255" on="1"/>
        <pt x="277" y="1255" on="1"/>
        <pt x="276" y="1261" on="1"/>
        <pt x="598" y="1505" on="1"/>
        <pt x="789" y="1505" on="1"/>
      </contour>
    </TTGlyph>
    <TTGlyph name="circumflexgravecomb" xMin="58" yMin="1255" xMax="1002" yMax="1694">
      <contour>
        <pt x="371" y="1427" on="1"/>
        <pt x="201" y="1427" on="1"/>
        <pt x="58" y="1694" on="1"/>
        <pt x="292" y="1694" on="1"/>
      </contour>
      <contour>
        <pt x="1002" y="1260" on="1"/>
        <pt x="1000" y="1255" on="1"/>
        <pt x="796" y="1255" on="1"/>
        <pt x="662" y="1410" on="1"/>
        <pt x="467" y="1255" on="1"/>
        <pt x="265" y="1255" on="1"/>
        <pt x="264" y="1261" on="1"/>
        <pt x="586" y="1505" on="1"/>
        <pt x="777" y="1505" on="1"/>
      </contour>
    </TTGlyph>
    <TTGlyph name="circumflexhookcomb" xMin="267" yMin="1255" xMax="1303" yMax="1739">
      <contour>
        <pt x="984" y="1389" on="1"/>
        <pt x="1002" y="1514" on="1"/>
        <pt x="1062" y="1518" on="0"/>
        <pt x="1116" y="1542" on="0"/>
        <pt x="1122" y="1572" on="1"/>
        <pt x="1129" y="1604" on="0"/>
        <pt x="1069" y="1634" on="0"/>
        <pt x="1019" y="1634" on="1"/>
        <pt x="1046" y="1739" on="1"/>
        <pt x="1181" y="1739" on="0"/>
        <pt x="1303" y="1656" on="0"/>
        <pt x="1287" y="1575" on="1"/>
        <pt x="1275" y="1517" on="0"/>
        <pt x="1195" y="1455" on="0"/>
        <pt x="1145" y="1448" on="1"/>
        <pt x="1132" y="1389" on="1"/>
      </contour>
      <contour>
        <pt x="1005" y="1260" on="1"/>
        <pt x="1003" y="1255" on="1"/>
        <pt x="799" y="1255" on="1"/>
        <pt x="665" y="1410" on="1"/>
        <pt x="470" y="1255" on="1"/>
        <pt x="268" y="1255" on="1"/>
        <pt x="267" y="1261" on="1"/>
        <pt x="589" y="1505" on="1"/>
        <pt x="780" y="1505" on="1"/>
      </contour>
    </TTGlyph>
    <TTGlyph name="circumflextildecomb" xMin="264" yMin="1255" xMax="1002" yMax="1786">
      <contour>
        <pt x="1002" y="1260" on="1"/>
        <pt x="1000" y="1255" on="1"/>
        <pt x="796" y="1255" on="1"/>
        <pt x="662" y="1410" on="1"/>
        <pt x="467" y="1255" on="1"/>
        <pt x="265" y="1255" on="1"/>
        <pt x="264" y="1261" on="1"/>
        <pt x="586" y="1505" on="1"/>
        <pt x="777" y="1505" on="1"/>
      </contour>
      <contour>
        <pt x="984" y="1754" on="1"/>
        <pt x="968" y="1680" on="0"/>
        <pt x="863" y="1577" on="0"/>
        <pt x="801" y="1577" on="1"/>
        <pt x="757" y="1577" on="0"/>
        <pt x="649" y="1646" on="0"/>
        <pt x="613" y="1646" on="1"/>
        <pt x="589" y="1646" on="0"/>
        <pt x="537" y="1592" on="0"/>
        <pt x="531" y="1559" on="1"/>
        <pt x="445" y="1585" on="1"/>
        <pt x="459" y="1658" on="0"/>
        <pt x="564" y="1764" on="0"/>
        <pt x="627" y="1764" on="1"/>
        <pt x="660" y="1764" on="0"/>
        <pt x="778" y="1696" on="0"/>
        <pt x="814" y="1696" on="1"/>
        <pt x="837" y="1696" on="0"/>
        <pt x="891" y="1752" on="0"/>
        <pt x="898" y="1786" on="1"/>
      </contour>
    </TTGlyph>
    <TTGlyph name="colon" xMin="63" yMin="0" xMax="516" yMax="1082">
      <component glyphName="period" x="2" y="0" flags="0x4"/>
      <component glyphName="period" x="172" y="849" flags="0x4"/>
    </TTGlyph>
    <TTGlyph name="comma" xMin="-95" yMin="-281" xMax="299" yMax="235">
      <contour>
        <pt x="258" y="31" on="1"/>
        <pt x="44" y="-281" on="1"/>
        <pt x="-95" y="-281" on="1"/>
        <pt x="34" y="40" on="1"/>
        <pt x="73" y="235" on="1"/>
        <pt x="299" y="235" on="1"/>
      </contour>
    </TTGlyph>
    <TTGlyph name="commaaccent" xMin="-37" yMin="-128" xMax="270" yMax="262">
      <contour>
        <pt x="240" y="110" on="1"/>
        <pt x="69" y="-128" on="1"/>
        <pt x="-37" y="-128" on="1"/>
        <pt x="71" y="120" on="1"/>
        <pt x="99" y="262" on="1"/>
        <pt x="270" y="262" on="1"/>
      </contour>
    </TTGlyph>
    <TTGlyph name="commaaccentrotate" xMin="280" yMin="1129" xMax="601" yMax="1548">
      <contour>
        <pt x="313" y="1293" on="1"/>
        <pt x="479" y="1548" on="1"/>
        <pt x="601" y="1548" on="1"/>
        <pt x="525" y="1283" on="1"/>
        <pt x="494" y="1129" on="1"/>
        <pt x="280" y="1129" on="1"/>
      </contour>
    </TTGlyph>
    <TTGlyph name="copyright" xMin="79" yMin="-21" xMax="1499" yMax="1476">
      <contour>
        <pt x="1060" y="596" on="1"/>
        <pt x="1062" y="590" on="1"/>
        <pt x="1041" y="434" on="0"/>
        <pt x="855" y="282" on="0"/>
        <pt x="705" y="282" on="1"/>
        <pt x="561" y="282" on="0"/>
        <pt x="413" y="497" on="0"/>
        <pt x="441" y="669" on="1"/>
        <pt x="460" y="788" on="1"/>
        <pt x="488" y="967" on="0"/>
        <pt x="696" y="1175" on="0"/>
        <pt x="848" y="1175" on="1"/>
        <pt x="990" y="1175" on="0"/>
        <pt x="1135" y="1014" on="0"/>
        <pt x="1108" y="866" on="1"/>
        <pt x="1106" y="861" on="1"/>
        <pt x="961" y="861" on="1"/>
        <pt x="976" y="958" on="0"/>
        <pt x="909" y="1040" on="0"/>
        <pt x="826" y="1040" on="1"/>
        <pt x="744" y="1040" on="0"/>
        <pt x="628" y="901" on="0"/>
        <pt x="610" y="789" on="1"/>
        <pt x="591" y="669" on="1"/>
        <pt x="571" y="550" on="0"/>
        <pt x="641" y="417" on="0"/>
        <pt x="727" y="417" on="1"/>
        <pt x="806" y="417" on="0"/>
        <pt x="902" y="501" on="0"/>
        <pt x="917" y="596" on="1"/>
      </contour>
      <contour>
        <pt x="248" y="729" on="1"/>
        <pt x="203" y="455" on="0"/>
        <pt x="461" y="104" on="0"/>
        <pt x="691" y="104" on="1"/>
        <pt x="907" y="104" on="0"/>
        <pt x="1289" y="468" on="0"/>
        <pt x="1332" y="729" on="1"/>
        <pt x="1375" y="1002" on="0"/>
        <pt x="1118" y="1351" on="0"/>
        <pt x="890" y="1351" on="1"/>
        <pt x="672" y="1351" on="0"/>
        <pt x="289" y="989" on="0"/>
      </contour>
      <contour>
        <pt x="130" y="729" on="1"/>
        <pt x="182" y="1056" on="0"/>
        <pt x="631" y="1476" on="0"/>
        <pt x="910" y="1476" on="1"/>
        <pt x="1173" y="1476" on="0"/>
        <pt x="1499" y="1040" on="0"/>
        <pt x="1450" y="729" on="1"/>
        <pt x="1397" y="401" on="0"/>
        <pt x="948" y="-21" on="0"/>
        <pt x="671" y="-21" on="1"/>
        <pt x="406" y="-21" on="0"/>
        <pt x="79" y="416" on="0"/>
      </contour>
    </TTGlyph>
    <TTGlyph name="crossbar" xMin="192" yMin="647" xMax="840" yMax="817">
      <contour>
        <pt x="806" y="647" on="1"/>
        <pt x="192" y="647" on="1"/>
        <pt x="226" y="817" on="1"/>
        <pt x="840" y="817" on="1"/>
      </contour>
    </TTGlyph>
    <TTGlyph name="currency" xMin="29" yMin="-27" xMax="1406" yMax="1265">
      <contour>
        <pt x="948" y="99" on="1"/>
        <pt x="865" y="40" on="0"/>
        <pt x="681" y="-20" on="0"/>
        <pt x="587" y="-20" on="1"/>
        <pt x="500" y="-20" on="0"/>
        <pt x="346" y="46" on="0"/>
        <pt x="287" y="108" on="1"/>
        <pt x="138" y="-26" on="1"/>
        <pt x="29" y="118" on="1"/>
        <pt x="188" y="260" on="1"/>
        <pt x="156" y="336" on="0"/>
        <pt x="140" y="512" on="0"/>
        <pt x="160" y="608" on="1"/>
        <pt x="181" y="715" on="0"/>
        <pt x="268" y="902" on="0"/>
        <pt x="330" y="978" on="1"/>
        <pt x="229" y="1120" on="1"/>
        <pt x="396" y="1264" on="1"/>
        <pt x="494" y="1127" on="1"/>
        <pt x="572" y="1179" on="0"/>
        <pt x="747" y="1234" on="0"/>
        <pt x="838" y="1234" on="1"/>
        <pt x="921" y="1234" on="0"/>
        <pt x="1070" y="1172" on="0"/>
        <pt x="1130" y="1116" on="1"/>
        <pt x="1296" y="1265" on="1"/>
        <pt x="1406" y="1120" on="1"/>
        <pt x="1234" y="965" on="1"/>
        <pt x="1267" y="887" on="0"/>
        <pt x="1285" y="706" on="0"/>
        <pt x="1266" y="608" on="1"/>
        <pt x="1245" y="506" on="0"/>
        <pt x="1165" y="327" on="0"/>
        <pt x="1109" y="254" on="1"/>
        <pt x="1206" y="118" on="1"/>
        <pt x="1038" y="-27" on="1"/>
      </contour>
      <contour>
        <pt x="341" y="608" on="1"/>
        <pt x="301" y="411" on="0"/>
        <pt x="466" y="165" on="0"/>
        <pt x="624" y="165" on="1"/>
        <pt x="768" y="165" on="0"/>
        <pt x="1047" y="426" on="0"/>
        <pt x="1084" y="608" on="1"/>
        <pt x="1122" y="804" on="0"/>
        <pt x="958" y="1048" on="0"/>
        <pt x="801" y="1048" on="1"/>
        <pt x="656" y="1048" on="0"/>
        <pt x="376" y="788" on="0"/>
      </contour>
    </TTGlyph>
    <TTGlyph name="cyrillicbreve" xMin="256" yMin="1173" xMax="875" yMax="1456">
      <component glyphName="breve" x="0" y="0" flags="0x204"/>
    </TTGlyph>
    <TTGlyph name="cyrillichook" xMin="-233" yMin="-437" xMax="342" yMax="205">
      <contour>
        <pt x="342" y="205" on="1"/>
        <pt x="288" y="-63" on="1"/>
        <pt x="249" y="-253" on="0"/>
        <pt x="42" y="-437" on="0"/>
        <pt x="-118" y="-437" on="1"/>
        <pt x="-149" y="-437" on="0"/>
        <pt x="-205" y="-429" on="0"/>
        <pt x="-233" y="-420" on="1"/>
        <pt x="-180" y="-222" on="1"/>
        <pt x="-165" y="-227" on="0"/>
        <pt x="-112" y="-234" on="0"/>
        <pt x="-93" y="-234" on="1"/>
        <pt x="-44" y="-234" on="0"/>
        <pt x="33" y="-145" on="0"/>
        <pt x="49" y="-63" on="1"/>
        <pt x="103" y="205" on="1"/>
      </contour>
    </TTGlyph>
    <TTGlyph name="cyrillichookleft" xMin="-139" yMin="-417" xMax="335" yMax="66">
      <contour>
        <pt x="187" y="66" on="1"/>
        <pt x="272" y="14" on="0"/>
        <pt x="335" y="-127" on="0"/>
        <pt x="320" y="-203" on="1"/>
        <pt x="298" y="-311" on="0"/>
        <pt x="147" y="-417" on="0"/>
        <pt x="42" y="-417" on="1"/>
        <pt x="-15" y="-417" on="0"/>
        <pt x="-108" y="-391" on="0"/>
        <pt x="-139" y="-373" on="1"/>
        <pt x="-76" y="-231" on="1"/>
        <pt x="-53" y="-240" on="0"/>
        <pt x="-9" y="-254" on="0"/>
        <pt x="20" y="-254" on="1"/>
        <pt x="70" y="-254" on="0"/>
        <pt x="128" y="-207" on="0"/>
        <pt x="135" y="-174" on="1"/>
        <pt x="144" y="-123" on="0"/>
        <pt x="108" y="-51" on="0"/>
        <pt x="64" y="0" on="1"/>
      </contour>
    </TTGlyph>
    <TTGlyph name="cyrillictic" xMin="-73" yMin="-358" xMax="274" yMax="182">
      <contour>
        <pt x="166" y="-358" on="1"/>
        <pt x="-73" y="-358" on="1"/>
        <pt x="35" y="182" on="1"/>
        <pt x="274" y="182" on="1"/>
      </contour>
    </TTGlyph>
    <TTGlyph name="d" xMin="53" yMin="-21" xMax="1192" yMax="1560">
      <contour>
        <pt x="103" y="546" on="1"/>
        <pt x="158" y="822" on="0"/>
        <pt x="400" y="1102" on="0"/>
        <pt x="590" y="1102" on="1"/>
        <pt x="667" y="1102" on="0"/>
        <pt x="794" y="1036" on="0"/>
        <pt x="836" y="976" on="1"/>
        <pt x="953" y="1560" on="1"/>
        <pt x="1192" y="1560" on="1"/>
        <pt x="880" y="0" on="1"/>
        <pt x="674" y="0" on="1"/>
        <pt x="680" y="107" on="1"/>
        <pt x="621" y="44" on="0"/>
        <pt x="480" y="-21" on="0"/>
        <pt x="402" y="-21" on="1"/>
        <pt x="228" y="-21" on="0"/>
        <pt x="53" y="294" on="0"/>
        <pt x="99" y="525" on="1"/>
      </contour>
      <contour>
        <pt x="339" y="525" on="1"/>
        <pt x="307" y="365" on="0"/>
        <pt x="381" y="177" on="0"/>
        <pt x="496" y="177" on="1"/>
        <pt x="556" y="177" on="0"/>
        <pt x="661" y="248" on="0"/>
        <pt x="704" y="312" on="1"/>
        <pt x="799" y="791" on="1"/>
        <pt x="777" y="844" on="0"/>
        <pt x="686" y="903" on="0"/>
        <pt x="620" y="903" on="1"/>
        <pt x="515" y="903" on="0"/>
        <pt x="376" y="710" on="0"/>
        <pt x="343" y="546" on="1"/>
      </contour>
    </TTGlyph>
    <TTGlyph name="dagger" xMin="135" yMin="0" xMax="1088" yMax="1456">
      <contour>
        <pt x="1056" y="882" on="1"/>
        <pt x="712" y="882" on="1"/>
        <pt x="571" y="0" on="1"/>
        <pt x="332" y="0" on="1"/>
        <pt x="473" y="882" on="1"/>
        <pt x="135" y="882" on="1"/>
        <pt x="167" y="1082" on="1"/>
        <pt x="505" y="1082" on="1"/>
        <pt x="565" y="1456" on="1"/>
        <pt x="804" y="1456" on="1"/>
        <pt x="744" y="1082" on="1"/>
        <pt x="1088" y="1082" on="1"/>
      </contour>
    </TTGlyph>
    <TTGlyph name="daggerdbl" xMin="21" yMin="-416" xMax="1114" yMax="1456">
      <contour>
        <pt x="941" y="0" on="1"/>
        <pt x="598" y="0" on="1"/>
        <pt x="532" y="-416" on="1"/>
        <pt x="293" y="-416" on="1"/>
        <pt x="359" y="0" on="1"/>
        <pt x="21" y="0" on="1"/>
        <pt x="52" y="194" on="1"/>
        <pt x="390" y="194" on="1"/>
        <pt x="501" y="886" on="1"/>
        <pt x="163" y="886" on="1"/>
        <pt x="194" y="1082" on="1"/>
        <pt x="533" y="1082" on="1"/>
        <pt x="593" y="1456" on="1"/>
        <pt x="832" y="1456" on="1"/>
        <pt x="772" y="1082" on="1"/>
        <pt x="1114" y="1082" on="1"/>
        <pt x="1083" y="886" on="1"/>
        <pt x="740" y="886" on="1"/>
        <pt x="629" y="194" on="1"/>
        <pt x="972" y="194" on="1"/>
      </contour>
    </TTGlyph>
    <TTGlyph name="dasiaoxia" xMin="245" yMin="1135" xMax="890" yMax="1477">
      <contour>
        <pt x="531" y="1164" on="1"/>
        <pt x="688" y="1477" on="1"/>
        <pt x="890" y="1477" on="1"/>
        <pt x="886" y="1456" on="1"/>
        <pt x="605" y="1137" on="1"/>
        <pt x="525" y="1137" on="1"/>
      </contour>
      <contour>
        <pt x="275" y="1284" on="1"/>
        <pt x="462" y="1476" on="1"/>
        <pt x="564" y="1476" on="1"/>
        <pt x="448" y="1272" on="1"/>
        <pt x="421" y="1135" on="1"/>
        <pt x="245" y="1135" on="1"/>
      </contour>
    </TTGlyph>
    <TTGlyph name="dcaron" xMin="53" yMin="-21" xMax="1485" yMax="1560">
      <component glyphName="d" x="0" y="0" flags="0x4"/>
      <component glyphName="commaaccent" x="1215" y="1298" flags="0x4"/>
    </TTGlyph>
    <TTGlyph name="dcroat" xMin="53" yMin="-21" xMax="1318" yMax="1560">
      <contour>
        <pt x="1284" y="1225" on="1"/>
        <pt x="1125" y="1225" on="1"/>
        <pt x="880" y="0" on="1"/>
        <pt x="674" y="0" on="1"/>
        <pt x="680" y="107" on="1"/>
        <pt x="621" y="44" on="0"/>
        <pt x="480" y="-21" on="0"/>
        <pt x="402" y="-21" on="1"/>
        <pt x="228" y="-21" on="0"/>
        <pt x="53" y="294" on="0"/>
        <pt x="99" y="525" on="1"/>
        <pt x="103" y="546" on="1"/>
        <pt x="158" y="822" on="0"/>
        <pt x="400" y="1102" on="0"/>
        <pt x="590" y="1102" on="1"/>
        <pt x="667" y="1102" on="0"/>
        <pt x="794" y="1036" on="0"/>
        <pt x="836" y="976" on="1"/>
        <pt x="886" y="1225" on="1"/>
        <pt x="670" y="1225" on="1"/>
        <pt x="704" y="1395" on="1"/>
        <pt x="920" y="1395" on="1"/>
        <pt x="953" y="1560" on="1"/>
        <pt x="1192" y="1560" on="1"/>
        <pt x="1159" y="1395" on="1"/>
        <pt x="1318" y="1395" on="1"/>
      </contour>
      <contour>
        <pt x="339" y="525" on="1"/>
        <pt x="307" y="365" on="0"/>
        <pt x="381" y="177" on="0"/>
        <pt x="496" y="177" on="1"/>
        <pt x="556" y="177" on="0"/>
        <pt x="661" y="248" on="0"/>
        <pt x="704" y="312" on="1"/>
        <pt x="799" y="791" on="1"/>
        <pt x="777" y="844" on="0"/>
        <pt x="686" y="903" on="0"/>
        <pt x="620" y="903" on="1"/>
        <pt x="515" y="903" on="0"/>
        <pt x="376" y="710" on="0"/>
        <pt x="343" y="546" on="1"/>
      </contour>
    </TTGlyph>
    <TTGlyph name="degree" xMin="256" yMin="944" xMax="790" yMax="1477">
      <contour>
        <pt x="278" y="1208" on="1"/>
        <pt x="300" y="1325" on="0"/>
        <pt x="475" y="1477" on="0"/>
        <pt x="579" y="1477" on="1"/>
        <pt x="672" y="1477" on="0"/>
        <pt x="790" y="1316" on="0"/>
        <pt x="769" y="1208" on="1"/>
        <pt x="745" y="1091" on="0"/>
        <pt x="575" y="944" on="0"/>
        <pt x="473" y="944" on="1"/>
        <pt x="377" y="944" on="0"/>
        <pt x="256" y="1100" on="0"/>
      </contour>
      <contour>
        <pt x="413" y="1208" on="1"/>
        <pt x="401" y="1152" on="0"/>
        <pt x="453" y="1084" on="0"/>
        <pt x="501" y="1084" on="1"/>
        <pt x="544" y="1084" on="0"/>
        <pt x="623" y="1155" on="0"/>
        <pt x="635" y="1208" on="1"/>
        <pt x="646" y="1266" on="0"/>
        <pt x="597" y="1336" on="0"/>
        <pt x="551" y="1336" on="1"/>
        <pt x="507" y="1336" on="0"/>
        <pt x="423" y="1261" on="0"/>
      </contour>
    </TTGlyph>
    <TTGlyph name="delta" xMin="53" yMin="-21" xMax="1108" yMax="1456">
      <contour>
        <pt x="1108" y="1456" on="1"/>
        <pt x="1070" y="1263" on="1"/>
        <pt x="682" y="1263" on="1"/>
        <pt x="854" y="1125" on="0"/>
        <pt x="1075" y="759" on="0"/>
        <pt x="1034" y="551" on="1"/>
        <pt x="1030" y="530" on="1"/>
        <pt x="978" y="271" on="0"/>
        <pt x="678" y="-21" on="0"/>
        <pt x="457" y="-21" on="1"/>
        <pt x="254" y="-21" on="0"/>
        <pt x="53" y="284" on="0"/>
        <pt x="100" y="516" on="1"/>
        <pt x="104" y="537" on="1"/>
        <pt x="146" y="748" on="0"/>
        <pt x="405" y="1014" on="0"/>
        <pt x="589" y="1043" on="1"/>
        <pt x="593" y="1045" on="1"/>
        <pt x="542" y="1110" on="0"/>
        <pt x="424" y="1238" on="0"/>
        <pt x="363" y="1292" on="1"/>
        <pt x="396" y="1456" on="1"/>
      </contour>
      <contour>
        <pt x="342" y="530" on="1"/>
        <pt x="308" y="361" on="0"/>
        <pt x="378" y="173" on="0"/>
        <pt x="496" y="173" on="1"/>
        <pt x="601" y="173" on="0"/>
        <pt x="760" y="376" on="0"/>
        <pt x="791" y="530" on="1"/>
        <pt x="795" y="551" on="1"/>
        <pt x="819" y="674" on="0"/>
        <pt x="756" y="847" on="0"/>
        <pt x="688" y="898" on="1"/>
        <pt x="677" y="902" on="0"/>
        <pt x="654" y="907" on="0"/>
        <pt x="640" y="907" on="1"/>
        <pt x="534" y="907" on="0"/>
        <pt x="376" y="702" on="0"/>
        <pt x="346" y="551" on="1"/>
      </contour>
    </TTGlyph>
    <TTGlyph name="dieresis" xMin="288" yMin="1252" xMax="1004" yMax="1456">
      <contour>
        <pt x="971" y="1252" on="1"/>
        <pt x="738" y="1252" on="1"/>
        <pt x="771" y="1456" on="1"/>
        <pt x="1004" y="1456" on="1"/>
      </contour>
      <contour>
        <pt x="520" y="1252" on="1"/>
        <pt x="288" y="1252" on="1"/>
        <pt x="321" y="1456" on="1"/>
        <pt x="553" y="1456" on="1"/>
      </contour>
    </TTGlyph>
    <TTGlyph name="dieresistonos" xMin="315" yMin="1252" xMax="1067" yMax="1746">
      <contour>
        <pt x="1026" y="1252" on="1"/>
        <pt x="810" y="1252" on="1"/>
        <pt x="851" y="1456" on="1"/>
        <pt x="1067" y="1456" on="1"/>
      </contour>
      <contour>
        <pt x="532" y="1252" on="1"/>
        <pt x="315" y="1252" on="1"/>
        <pt x="356" y="1456" on="1"/>
        <pt x="573" y="1456" on="1"/>
      </contour>
      <contour>
        <pt x="744" y="1746" on="1"/>
        <pt x="984" y="1746" on="1"/>
        <pt x="788" y="1473" on="1"/>
        <pt x="645" y="1473" on="1"/>
      </contour>
    </TTGlyph>
    <TTGlyph name="divide" xMin="98" yMin="170" xMax="1083" yMax="1206">
      <contour>
        <pt x="1040" y="582" on="1"/>
        <pt x="98" y="582" on="1"/>
        <pt x="141" y="794" on="1"/>
        <pt x="1083" y="794" on="1"/>
      </contour>
      <contour>
        <pt x="769" y="985" on="1"/>
        <pt x="533" y="985" on="1"/>
        <pt x="577" y="1206" on="1"/>
        <pt x="813" y="1206" on="1"/>
      </contour>
      <contour>
        <pt x="606" y="170" on="1"/>
        <pt x="370" y="170" on="1"/>
        <pt x="414" y="391" on="1"/>
        <pt x="650" y="391" on="1"/>
      </contour>
    </TTGlyph>
    <TTGlyph name="dollar" xMin="63" yMin="-211" xMax="1111" yMax="1691">
      <contour>
        <pt x="749" y="380" on="1"/>
        <pt x="763" y="468" on="0"/>
        <pt x="683" y="576" on="0"/>
        <pt x="573" y="623" on="1"/>
        <pt x="387" y="695" on="0"/>
        <pt x="222" y="898" on="0"/>
        <pt x="251" y="1073" on="1"/>
        <pt x="278" y="1245" on="0"/>
        <pt x="497" y="1452" on="0"/>
        <pt x="663" y="1472" on="1"/>
        <pt x="698" y="1691" on="1"/>
        <pt x="854" y="1691" on="1"/>
        <pt x="818" y="1469" on="1"/>
        <pt x="967" y="1442" on="0"/>
        <pt x="1111" y="1200" on="0"/>
        <pt x="1081" y="1005" on="1"/>
        <pt x="843" y="1005" on="1"/>
        <pt x="863" y="1135" on="0"/>
        <pt x="788" y="1276" on="0"/>
        <pt x="701" y="1276" on="1"/>
        <pt x="615" y="1276" on="0"/>
        <pt x="504" y="1165" on="0"/>
        <pt x="490" y="1075" on="1"/>
        <pt x="475" y="986" on="0"/>
        <pt x="554" y="882" on="0"/>
        <pt x="671" y="832" on="1"/>
        <pt x="856" y="756" on="0"/>
        <pt x="1016" y="556" on="0"/>
        <pt x="988" y="382" on="1"/>
        <pt x="958" y="202" on="0"/>
        <pt x="733" y="2" on="0"/>
        <pt x="559" y="-16" on="1"/>
        <pt x="528" y="-211" on="1"/>
        <pt x="372" y="-211" on="1"/>
        <pt x="403" y="-16" on="1"/>
        <pt x="245" y="5" on="0"/>
        <pt x="63" y="229" on="0"/>
        <pt x="98" y="443" on="1"/>
        <pt x="337" y="443" on="1"/>
        <pt x="313" y="295" on="0"/>
        <pt x="415" y="179" on="0"/>
        <pt x="509" y="179" on="1"/>
        <pt x="604" y="179" on="0"/>
        <pt x="733" y="288" on="0"/>
      </contour>
    </TTGlyph>
    <TTGlyph name="dotaccent" xMin="311" yMin="1239" xMax="608" yMax="1462">
      <contour>
        <pt x="564" y="1239" on="1"/>
        <pt x="311" y="1239" on="1"/>
        <pt x="355" y="1462" on="1"/>
        <pt x="608" y="1462" on="1"/>
      </contour>
    </TTGlyph>
    <TTGlyph name="dotbelow" xMin="-839" yMin="-347" xMax="-532" yMax="-124">
      <contour>
        <pt x="-576" y="-347" on="1"/>
        <pt x="-839" y="-347" on="1"/>
        <pt x="-795" y="-124" on="1"/>
        <pt x="-532" y="-124" on="1"/>
      </contour>
    </TTGlyph>
    <TTGlyph name="dotlessi" xMin="50" yMin="0" xMax="506" yMax="1082">
      <contour>
        <pt x="290" y="0" on="1"/>
        <pt x="50" y="0" on="1"/>
        <pt x="266" y="1082" on="1"/>
        <pt x="506" y="1082" on="1"/>
      </contour>
    </TTGlyph>
    <TTGlyph name="e" xMin="63" yMin="-21" xMax="1017" yMax="1103">
      <contour>
        <pt x="486" y="-21" on="1"/>
        <pt x="278" y="-21" on="0"/>
        <pt x="63" y="283" on="0"/>
        <pt x="101" y="516" on="1"/>
        <pt x="107" y="556" on="1"/>
        <pt x="146" y="801" on="0"/>
        <pt x="445" y="1103" on="0"/>
        <pt x="637" y="1102" on="1"/>
        <pt x="836" y="1102" on="0"/>
        <pt x="1017" y="835" on="0"/>
        <pt x="982" y="614" on="1"/>
        <pt x="959" y="471" on="1"/>
        <pt x="334" y="471" on="1"/>
        <pt x="320" y="334" on="0"/>
        <pt x="418" y="173" on="0"/>
        <pt x="532" y="173" on="1"/>
        <pt x="617" y="173" on="0"/>
        <pt x="759" y="222" on="0"/>
        <pt x="826" y="266" on="1"/>
        <pt x="876" y="107" on="1"/>
        <pt x="811" y="53" on="0"/>
        <pt x="611" y="-21" on="0"/>
      </contour>
      <contour>
        <pt x="606" y="907" on="1"/>
        <pt x="530" y="907" on="0"/>
        <pt x="403" y="764" on="0"/>
        <pt x="373" y="654" on="1"/>
        <pt x="375" y="649" on="1"/>
        <pt x="751" y="649" on="1"/>
        <pt x="755" y="674" on="1"/>
        <pt x="771" y="781" on="0"/>
        <pt x="701" y="907" on="0"/>
      </contour>
    </TTGlyph>
    <TTGlyph name="eacute" xMin="63" yMin="-21" xMax="1021" yMax="1504">
      <component glyphName="e" x="0" y="0" flags="0x204"/>
      <component glyphName="acute" x="291" y="26" flags="0x4"/>
    </TTGlyph>
    <TTGlyph name="ebreve" xMin="63" yMin="-21" xMax="1017" yMax="1563">
      <component glyphName="e" x="0" y="0" flags="0x204"/>
      <component glyphName="breve" x="121" y="107" flags="0x4"/>
    </TTGlyph>
    <TTGlyph name="ecaron" xMin="63" yMin="-21" xMax="1033" yMax="1547">
      <component glyphName="e" x="0" y="0" flags="0x204"/>
      <component glyphName="caron" x="41" y="28" flags="0x4"/>
    </TTGlyph>
    <TTGlyph name="ecircumflex" xMin="63" yMin="-21" xMax="1017" yMax="1543">
      <component glyphName="e" x="0" y="0" flags="0x204"/>
      <component glyphName="circumflex" x="19" y="24" flags="0x4"/>
    </TTGlyph>
    <TTGlyph name="edieresis" xMin="63" yMin="-21" xMax="1026" yMax="1484">
      <component glyphName="e" x="0" y="0" flags="0x204"/>
      <component glyphName="dieresis" x="22" y="28" flags="0x4"/>
    </TTGlyph>
    <TTGlyph name="edotaccent" xMin="63" yMin="-21" xMax="1017" yMax="1504">
      <component glyphName="e" x="0" y="0" flags="0x204"/>
      <component glyphName="dotaccent" x="213" y="42" flags="0x4"/>
    </TTGlyph>
    <TTGlyph name="egrave" xMin="63" yMin="-21" xMax="1017" yMax="1505">
      <component glyphName="e" x="0" y="0" flags="0x204"/>
      <component glyphName="grave" x="121" y="27" flags="0x4"/>
    </TTGlyph>
    <TTGlyph name="eight" xMin="49" yMin="-21" xMax="1132" yMax="1477">
      <contour>
        <pt x="1094" y="1072" on="1"/>
        <pt x="1070" y="953" on="0"/>
        <pt x="926" y="785" on="0"/>
        <pt x="820" y="743" on="1"/>
        <pt x="919" y="694" on="0"/>
        <pt x="1016" y="513" on="0"/>
        <pt x="993" y="397" on="1"/>
        <pt x="950" y="180" on="0"/>
        <pt x="666" y="-21" on="0"/>
        <pt x="460" y="-21" on="1"/>
        <pt x="268" y="-21" on="0"/>
        <pt x="49" y="197" on="0"/>
        <pt x="89" y="397" on="1"/>
        <pt x="115" y="527" on="0"/>
        <pt x="280" y="708" on="0"/>
        <pt x="403" y="752" on="1"/>
        <pt x="317" y="798" on="0"/>
        <pt x="237" y="965" on="0"/>
        <pt x="259" y="1072" on="1"/>
        <pt x="300" y="1279" on="0"/>
        <pt x="563" y="1477" on="0"/>
        <pt x="757" y="1477" on="1"/>
        <pt x="932" y="1477" on="0"/>
        <pt x="1132" y="1263" on="0"/>
      </contour>
      <contour>
        <pt x="758" y="409" on="1"/>
        <pt x="780" y="523" on="0"/>
        <pt x="688" y="650" on="0"/>
        <pt x="592" y="650" on="1"/>
        <pt x="502" y="650" on="0"/>
        <pt x="352" y="515" on="0"/>
        <pt x="331" y="409" on="1"/>
        <pt x="307" y="292" on="0"/>
        <pt x="398" y="173" on="0"/>
        <pt x="499" y="173" on="1"/>
        <pt x="587" y="173" on="0"/>
        <pt x="736" y="302" on="0"/>
      </contour>
      <contour>
        <pt x="854" y="1063" on="1"/>
        <pt x="874" y="1166" on="0"/>
        <pt x="799" y="1282" on="0"/>
        <pt x="718" y="1282" on="1"/>
        <pt x="640" y="1282" on="0"/>
        <pt x="516" y="1161" on="0"/>
        <pt x="497" y="1063" on="1"/>
        <pt x="475" y="957" on="0"/>
        <pt x="548" y="845" on="0"/>
        <pt x="633" y="845" on="1"/>
        <pt x="708" y="845" on="0"/>
        <pt x="834" y="966" on="0"/>
      </contour>
    </TTGlyph>
    <TTGlyph name="eight.lnum" xMin="59" yMin="-21" xMax="1182" yMax="1477">
      <contour>
        <pt x="1144" y="1072" on="1"/>
        <pt x="1120" y="952" on="0"/>
        <pt x="970" y="785" on="0"/>
        <pt x="858" y="743" on="1"/>
        <pt x="962" y="694" on="0"/>
        <pt x="1065" y="512" on="0"/>
        <pt x="1042" y="397" on="1"/>
        <pt x="999" y="180" on="0"/>
        <pt x="704" y="-21" on="0"/>
        <pt x="488" y="-21" on="1"/>
        <pt x="288" y="-21" on="0"/>
        <pt x="59" y="197" on="0"/>
        <pt x="99" y="397" on="1"/>
        <pt x="125" y="527" on="0"/>
        <pt x="295" y="708" on="0"/>
        <pt x="423" y="752" on="1"/>
        <pt x="332" y="798" on="0"/>
        <pt x="246" y="965" on="0"/>
        <pt x="268" y="1072" on="1"/>
        <pt x="309" y="1279" on="0"/>
        <pt x="583" y="1477" on="0"/>
        <pt x="785" y="1477" on="1"/>
        <pt x="969" y="1477" on="0"/>
        <pt x="1182" y="1262" on="0"/>
      </contour>
      <contour>
        <pt x="806" y="409" on="1"/>
        <pt x="828" y="523" on="0"/>
        <pt x="724" y="650" on="0"/>
        <pt x="620" y="650" on="1"/>
        <pt x="522" y="650" on="0"/>
        <pt x="362" y="515" on="0"/>
        <pt x="341" y="409" on="1"/>
        <pt x="317" y="292" on="0"/>
        <pt x="418" y="173" on="0"/>
        <pt x="527" y="173" on="1"/>
        <pt x="624" y="173" on="0"/>
        <pt x="784" y="302" on="0"/>
      </contour>
      <contour>
        <pt x="903" y="1063" on="1"/>
        <pt x="923" y="1166" on="0"/>
        <pt x="838" y="1282" on="0"/>
        <pt x="746" y="1282" on="1"/>
        <pt x="661" y="1282" on="0"/>
        <pt x="525" y="1161" on="0"/>
        <pt x="506" y="1063" on="1"/>
        <pt x="484" y="958" on="0"/>
        <pt x="568" y="845" on="0"/>
        <pt x="661" y="845" on="1"/>
        <pt x="746" y="845" on="0"/>
        <pt x="883" y="965" on="0"/>
      </contour>
    </TTGlyph>
    <TTGlyph name="eight.smcp" xMin="26" yMin="-17" xMax="1024" yMax="1181">
      <contour>
        <pt x="994" y="860" on="1"/>
        <pt x="975" y="768" on="0"/>
        <pt x="855" y="636" on="0"/>
        <pt x="765" y="600" on="1"/>
        <pt x="851" y="560" on="0"/>
        <pt x="937" y="418" on="0"/>
        <pt x="920" y="328" on="1"/>
        <pt x="885" y="155" on="0"/>
        <pt x="615" y="-17" on="0"/>
        <pt x="428" y="-17" on="1"/>
        <pt x="251" y="-17" on="0"/>
        <pt x="26" y="169" on="0"/>
        <pt x="59" y="328" on="1"/>
        <pt x="78" y="428" on="0"/>
        <pt x="223" y="570" on="0"/>
        <pt x="332" y="607" on="1"/>
        <pt x="255" y="647" on="0"/>
        <pt x="180" y="777" on="0"/>
        <pt x="197" y="860" on="1"/>
        <pt x="229" y="1023" on="0"/>
        <pt x="486" y="1181" on="0"/>
        <pt x="667" y="1181" on="1"/>
        <pt x="825" y="1181" on="0"/>
        <pt x="1024" y="1011" on="0"/>
      </contour>
      <contour>
        <pt x="683" y="341" on="1"/>
        <pt x="698" y="417" on="0"/>
        <pt x="609" y="506" on="0"/>
        <pt x="532" y="506" on="1"/>
        <pt x="453" y="506" on="0"/>
        <pt x="314" y="412" on="0"/>
        <pt x="300" y="341" on="1"/>
        <pt x="284" y="262" on="0"/>
        <pt x="380" y="175" on="0"/>
        <pt x="466" y="175" on="1"/>
        <pt x="538" y="175" on="0"/>
        <pt x="668" y="268" on="0"/>
      </contour>
      <contour>
        <pt x="752" y="846" on="1"/>
        <pt x="765" y="913" on="0"/>
        <pt x="693" y="988" on="0"/>
        <pt x="629" y="988" on="1"/>
        <pt x="562" y="988" on="0"/>
        <pt x="445" y="909" on="0"/>
        <pt x="433" y="846" on="1"/>
        <pt x="419" y="778" on="0"/>
        <pt x="500" y="700" on="0"/>
        <pt x="571" y="700" on="1"/>
        <pt x="630" y="700" on="0"/>
        <pt x="739" y="783" on="0"/>
      </contour>
    </TTGlyph>
    <TTGlyph name="eight.sup" xMin="36" yMin="-11" xMax="768" yMax="812">
      <contour>
        <pt x="747" y="592" on="1"/>
        <pt x="734" y="529" on="0"/>
        <pt x="648" y="438" on="0"/>
        <pt x="583" y="413" on="1"/>
        <pt x="645" y="383" on="0"/>
        <pt x="708" y="286" on="0"/>
        <pt x="696" y="226" on="1"/>
        <pt x="672" y="106" on="0"/>
        <pt x="475" y="-11" on="0"/>
        <pt x="337" y="-11" on="1"/>
        <pt x="205" y="-11" on="0"/>
        <pt x="36" y="116" on="0"/>
        <pt x="59" y="226" on="1"/>
        <pt x="72" y="294" on="0"/>
        <pt x="176" y="392" on="0"/>
        <pt x="255" y="418" on="1"/>
        <pt x="198" y="446" on="0"/>
        <pt x="142" y="535" on="0"/>
        <pt x="154" y="592" on="1"/>
        <pt x="176" y="704" on="0"/>
        <pt x="366" y="812" on="0"/>
        <pt x="500" y="812" on="1"/>
        <pt x="618" y="812" on="0"/>
        <pt x="768" y="695" on="0"/>
      </contour>
      <contour>
        <pt x="512" y="235" on="1"/>
        <pt x="522" y="286" on="0"/>
        <pt x="460" y="342" on="0"/>
        <pt x="406" y="342" on="1"/>
        <pt x="351" y="342" on="0"/>
        <pt x="256" y="281" on="0"/>
        <pt x="247" y="235" on="1"/>
        <pt x="236" y="186" on="0"/>
        <pt x="305" y="134" on="0"/>
        <pt x="366" y="134" on="1"/>
        <pt x="415" y="134" on="0"/>
        <pt x="502" y="189" on="0"/>
      </contour>
      <contour>
        <pt x="557" y="580" on="1"/>
        <pt x="565" y="622" on="0"/>
        <pt x="515" y="666" on="0"/>
        <pt x="471" y="666" on="1"/>
        <pt x="425" y="666" on="0"/>
        <pt x="348" y="620" on="0"/>
        <pt x="341" y="580" on="1"/>
        <pt x="332" y="536" on="0"/>
        <pt x="387" y="488" on="0"/>
        <pt x="437" y="488" on="1"/>
        <pt x="476" y="488" on="0"/>
        <pt x="549" y="539" on="0"/>
      </contour>
    </TTGlyph>
    <TTGlyph name="ellipsis" xMin="61" yMin="0" xMax="1191" yMax="233">
      <component glyphName="period" x="0" y="0" flags="0x4"/>
      <component glyphName="period" x="431" y="0" flags="0x4"/>
      <component glyphName="period" x="847" y="0" flags="0x4"/>
    </TTGlyph>
    <TTGlyph name="emacron" xMin="63" yMin="-21" xMax="1027" yMax="1461">
      <component glyphName="e" x="0" y="0" flags="0x204"/>
      <component glyphName="macron" x="47" y="5" flags="0x4"/>
    </TTGlyph>
    <TTGlyph name="emdash" xMin="239" yMin="621" xMax="1543" yMax="817">
      <component glyphName="minus" x="-67" y="0" scalex="1.59997558594" scaley="1.0" flags="0x4"/>
    </TTGlyph>
    <TTGlyph name="endash" xMin="220" yMin="621" xMax="1280" yMax="817">
      <component glyphName="minus" x="-28" y="0" scalex="1.29998779297" scaley="1.0" flags="0x4"/>
    </TTGlyph>
    <TTGlyph name="eng" xMin="34" yMin="-437" xMax="1061" yMax="1102">
      <contour>
        <pt x="453" y="945" on="1"/>
        <pt x="517" y="1021" on="0"/>
        <pt x="679" y="1102" on="0"/>
        <pt x="770" y="1102" on="1"/>
        <pt x="918" y="1102" on="0"/>
        <pt x="1061" y="890" on="0"/>
        <pt x="1018" y="673" on="1"/>
        <pt x="870" y="-63" on="1"/>
        <pt x="831" y="-253" on="0"/>
        <pt x="623" y="-437" on="0"/>
        <pt x="463" y="-437" on="1"/>
        <pt x="432" y="-437" on="0"/>
        <pt x="375" y="-429" on="0"/>
        <pt x="348" y="-420" on="1"/>
        <pt x="402" y="-222" on="1"/>
        <pt x="417" y="-227" on="0"/>
        <pt x="469" y="-234" on="0"/>
        <pt x="489" y="-234" on="1"/>
        <pt x="537" y="-234" on="0"/>
        <pt x="614" y="-145" on="0"/>
        <pt x="631" y="-63" on="1"/>
        <pt x="778" y="671" on="1"/>
        <pt x="805" y="805" on="0"/>
        <pt x="740" y="903" on="0"/>
        <pt x="648" y="903" on="1"/>
        <pt x="586" y="903" on="0"/>
        <pt x="476" y="847" on="0"/>
        <pt x="432" y="797" on="1"/>
        <pt x="273" y="0" on="1"/>
        <pt x="34" y="0" on="1"/>
        <pt x="250" y="1082" on="1"/>
        <pt x="469" y="1082" on="1"/>
      </contour>
    </TTGlyph>
    <TTGlyph name="eogonek" xMin="63" yMin="-378" xMax="1017" yMax="1103">
      <component glyphName="e" x="0" y="0" flags="0x204"/>
      <component glyphName="ogonek" x="471" y="52" flags="0x4"/>
    </TTGlyph>
    <TTGlyph name="epsilon" xMin="39" yMin="-20" xMax="1052" yMax="1101">
      <contour>
        <pt x="69" y="306" on="1"/>
        <pt x="88" y="403" on="0"/>
        <pt x="211" y="530" on="0"/>
        <pt x="310" y="560" on="1"/>
        <pt x="238" y="597" on="0"/>
        <pt x="169" y="716" on="0"/>
        <pt x="183" y="786" on="1"/>
        <pt x="215" y="946" on="0"/>
        <pt x="474" y="1101" on="0"/>
        <pt x="675" y="1101" on="1"/>
        <pt x="839" y="1101" on="0"/>
        <pt x="1052" y="921" on="0"/>
        <pt x="1019" y="781" on="1"/>
        <pt x="1017" y="775" on="1"/>
        <pt x="787" y="775" on="1"/>
        <pt x="800" y="839" on="0"/>
        <pt x="711" y="914" on="0"/>
        <pt x="631" y="914" on="1"/>
        <pt x="547" y="914" on="0"/>
        <pt x="431" y="830" on="0"/>
        <pt x="420" y="774" on="1"/>
        <pt x="406" y="707" on="0"/>
        <pt x="478" y="639" on="0"/>
        <pt x="568" y="639" on="1"/>
        <pt x="756" y="639" on="1"/>
        <pt x="745" y="588" on="1"/>
        <pt x="746" y="588" on="1"/>
        <pt x="731" y="516" on="1"/>
        <pt x="721" y="466" on="1"/>
        <pt x="533" y="466" on="1"/>
        <pt x="444" y="466" on="0"/>
        <pt x="325" y="391" on="0"/>
        <pt x="310" y="316" on="1"/>
        <pt x="296" y="250" on="0"/>
        <pt x="386" y="166" on="0"/>
        <pt x="481" y="166" on="1"/>
        <pt x="564" y="166" on="0"/>
        <pt x="699" y="258" on="0"/>
        <pt x="712" y="321" on="1"/>
        <pt x="940" y="321" on="1"/>
        <pt x="942" y="315" on="1"/>
        <pt x="912" y="141" on="0"/>
        <pt x="632" y="-20" on="0"/>
        <pt x="451" y="-20" on="1"/>
        <pt x="266" y="-20" on="0"/>
        <pt x="39" y="158" on="0"/>
      </contour>
    </TTGlyph>
    <TTGlyph name="epsilontonos" xMin="39" yMin="-20" xMax="1052" yMax="1628">
      <component glyphName="epsilon" x="0" y="0" flags="0x204"/>
      <component glyphName="tonos" x="244" y="-20" flags="0x4"/>
    </TTGlyph>
    <TTGlyph name="equal" xMin="128" yMin="366" xMax="1056" yMax="992">
      <contour>
        <pt x="1016" y="790" on="1"/>
        <pt x="213" y="790" on="1"/>
        <pt x="253" y="992" on="1"/>
        <pt x="1056" y="992" on="1"/>
      </contour>
      <contour>
        <pt x="931" y="366" on="1"/>
        <pt x="128" y="366" on="1"/>
        <pt x="168" y="567" on="1"/>
        <pt x="971" y="567" on="1"/>
      </contour>
    </TTGlyph>
    <TTGlyph name="estimated" xMin="123" yMin="-20" xMax="1164" yMax="1102">
      <contour>
        <pt x="910" y="94" on="1"/>
        <pt x="818" y="39" on="0"/>
        <pt x="631" y="-20" on="0"/>
        <pt x="543" y="-20" on="1"/>
        <pt x="354" y="-20" on="0"/>
        <pt x="123" y="313" on="0"/>
        <pt x="168" y="541" on="1"/>
        <pt x="216" y="782" on="0"/>
        <pt x="575" y="1102" on="0"/>
        <pt x="767" y="1102" on="1"/>
        <pt x="947" y="1102" on="0"/>
        <pt x="1164" y="788" on="0"/>
        <pt x="1119" y="561" on="1"/>
        <pt x="1110" y="514" on="1"/>
        <pt x="396" y="514" on="1"/>
        <pt x="330" y="186" on="1"/>
        <pt x="372" y="133" on="0"/>
        <pt x="490" y="76" on="0"/>
        <pt x="562" y="76" on="1"/>
        <pt x="644" y="76" on="0"/>
        <pt x="838" y="137" on="0"/>
        <pt x="929" y="198" on="1"/>
      </contour>
      <contour>
        <pt x="749" y="1008" on="1"/>
        <pt x="685" y="1008" on="0"/>
        <pt x="534" y="942" on="0"/>
        <pt x="470" y="886" on="1"/>
        <pt x="415" y="609" on="1"/>
        <pt x="917" y="609" on="1"/>
        <pt x="974" y="895" on="1"/>
        <pt x="934" y="948" on="0"/>
        <pt x="818" y="1008" on="0"/>
      </contour>
    </TTGlyph>
    <TTGlyph name="eta" xMin="34" yMin="-415" xMax="1062" yMax="1102">
      <contour>
        <pt x="453" y="945" on="1"/>
        <pt x="517" y="1021" on="0"/>
        <pt x="679" y="1102" on="0"/>
        <pt x="770" y="1102" on="1"/>
        <pt x="919" y="1102" on="0"/>
        <pt x="1062" y="897" on="0"/>
        <pt x="1018" y="673" on="1"/>
        <pt x="800" y="-415" on="1"/>
        <pt x="561" y="-415" on="1"/>
        <pt x="778" y="671" on="1"/>
        <pt x="805" y="806" on="0"/>
        <pt x="740" y="907" on="0"/>
        <pt x="648" y="907" on="1"/>
        <pt x="586" y="907" on="0"/>
        <pt x="477" y="850" on="0"/>
        <pt x="432" y="799" on="1"/>
        <pt x="273" y="0" on="1"/>
        <pt x="34" y="0" on="1"/>
        <pt x="250" y="1082" on="1"/>
        <pt x="469" y="1082" on="1"/>
      </contour>
    </TTGlyph>
    <TTGlyph name="etatonos" xMin="34" yMin="-415" xMax="1062" yMax="1629">
      <component glyphName="eta" x="0" y="0" flags="0x204"/>
      <component glyphName="tonos" x="253" y="-19" flags="0x4"/>
    </TTGlyph>
    <TTGlyph name="eth" xMin="23" yMin="-21" xMax="1198" yMax="1517">
      <contour>
        <pt x="996" y="1283" on="1"/>
        <pt x="1072" y="1164" on="0"/>
        <pt x="1117" y="842" on="0"/>
        <pt x="1079" y="649" on="1"/>
        <pt x="1061" y="562" on="1"/>
        <pt x="1006" y="288" on="0"/>
        <pt x="668" y="-21" on="0"/>
        <pt x="452" y="-21" on="1"/>
        <pt x="252" y="-21" on="0"/>
        <pt x="23" y="265" on="0"/>
        <pt x="65" y="468" on="1"/>
        <pt x="112" y="709" on="0"/>
        <pt x="418" y="973" on="0"/>
        <pt x="629" y="973" on="1"/>
        <pt x="698" y="973" on="0"/>
        <pt x="818" y="916" on="0"/>
        <pt x="858" y="868" on="1"/>
        <pt x="862" y="872" on="1"/>
        <pt x="863" y="963" on="0"/>
        <pt x="820" y="1110" on="0"/>
        <pt x="781" y="1166" on="1"/>
        <pt x="517" y="1024" on="1"/>
        <pt x="463" y="1133" on="1"/>
        <pt x="690" y="1255" on="1"/>
        <pt x="662" y="1274" on="0"/>
        <pt x="599" y="1307" on="0"/>
        <pt x="564" y="1321" on="1"/>
        <pt x="676" y="1517" on="1"/>
        <pt x="746" y="1497" on="0"/>
        <pt x="868" y="1427" on="0"/>
        <pt x="918" y="1379" on="1"/>
        <pt x="1144" y="1501" on="1"/>
        <pt x="1198" y="1392" on="1"/>
      </contour>
      <contour>
        <pt x="840" y="651" on="1"/>
        <pt x="845" y="677" on="1"/>
        <pt x="823" y="724" on="0"/>
        <pt x="704" y="785" on="0"/>
        <pt x="612" y="785" on="1"/>
        <pt x="508" y="785" on="0"/>
        <pt x="331" y="601" on="0"/>
        <pt x="305" y="468" on="1"/>
        <pt x="279" y="340" on="0"/>
        <pt x="379" y="173" on="0"/>
        <pt x="495" y="173" on="1"/>
        <pt x="600" y="173" on="0"/>
        <pt x="789" y="396" on="0"/>
        <pt x="822" y="562" on="1"/>
      </contour>
    </TTGlyph>
    <TTGlyph name="exclam" xMin="64" yMin="0" xMax="593" yMax="1456">
      <contour>
        <pt x="400" y="491" on="1"/>
        <pt x="160" y="491" on="1"/>
        <pt x="353" y="1456" on="1"/>
        <pt x="593" y="1456" on="1"/>
      </contour>
      <contour>
        <pt x="300" y="0" on="1"/>
        <pt x="64" y="0" on="1"/>
        <pt x="111" y="234" on="1"/>
        <pt x="347" y="234" on="1"/>
      </contour>
    </TTGlyph>
    <TTGlyph name="exclamdbl" xMin="64" yMin="0" xMax="1124" yMax="1456">
      <component glyphName="exclam" x="0" y="0" flags="0x4"/>
      <component glyphName="exclam" x="531" y="0" flags="0x4"/>
    </TTGlyph>
    <TTGlyph name="exclamdown" xMin="-24" yMin="-374" xMax="505" yMax="1082">
      <contour>
        <pt x="216" y="-374" on="1"/>
        <pt x="-24" y="-374" on="1"/>
        <pt x="169" y="590" on="1"/>
        <pt x="409" y="590" on="1"/>
      </contour>
      <contour>
        <pt x="458" y="847" on="1"/>
        <pt x="222" y="847" on="1"/>
        <pt x="269" y="1082" on="1"/>
        <pt x="505" y="1082" on="1"/>
      </contour>
    </TTGlyph>
    <TTGlyph name="f" xMin="116" yMin="0" xMax="921" yMax="1581">
      <contour>
        <pt x="116" y="0" on="1"/>
        <pt x="296" y="902" on="1"/>
        <pt x="144" y="902" on="1"/>
        <pt x="180" y="1082" on="1"/>
        <pt x="332" y="1082" on="1"/>
        <pt x="358" y="1208" on="1"/>
        <pt x="395" y="1398" on="0"/>
        <pt x="613" y="1581" on="0"/>
        <pt x="782" y="1581" on="1"/>
        <pt x="814" y="1581" on="0"/>
        <pt x="882" y="1569" on="0"/>
        <pt x="921" y="1560" on="1"/>
        <pt x="860" y="1372" on="1"/>
        <pt x="843" y="1376" on="0"/>
        <pt x="798" y="1382" on="0"/>
        <pt x="772" y="1382" on="1"/>
        <pt x="705" y="1382" on="0"/>
        <pt x="613" y="1291" on="0"/>
        <pt x="597" y="1208" on="1"/>
        <pt x="571" y="1082" on="1"/>
        <pt x="771" y="1082" on="1"/>
        <pt x="735" y="902" on="1"/>
        <pt x="535" y="902" on="1"/>
        <pt x="355" y="0" on="1"/>
      </contour>
    </TTGlyph>
    <TTGlyph name="fi" xMin="91" yMin="0" xMax="1121" yMax="1581">
      <contour>
        <pt x="91" y="0" on="1"/>
        <pt x="271" y="902" on="1"/>
        <pt x="119" y="902" on="1"/>
        <pt x="155" y="1082" on="1"/>
        <pt x="307" y="1082" on="1"/>
        <pt x="326" y="1174" on="1"/>
        <pt x="367" y="1382" on="0"/>
        <pt x="621" y="1581" on="0"/>
        <pt x="822" y="1581" on="1"/>
        <pt x="886" y="1581" on="0"/>
        <pt x="1019" y="1549" on="0"/>
        <pt x="1097" y="1521" on="1"/>
        <pt x="1020" y="1320" on="1"/>
        <pt x="970" y="1341" on="0"/>
        <pt x="861" y="1368" on="0"/>
        <pt x="797" y="1368" on="1"/>
        <pt x="703" y="1368" on="0"/>
        <pt x="584" y="1269" on="0"/>
        <pt x="565" y="1174" on="1"/>
        <pt x="546" y="1082" on="1"/>
        <pt x="739" y="1082" on="1"/>
        <pt x="703" y="902" on="1"/>
        <pt x="510" y="902" on="1"/>
        <pt x="330" y="0" on="1"/>
      </contour>
      <contour>
        <pt x="905" y="0" on="1"/>
        <pt x="666" y="0" on="1"/>
        <pt x="882" y="1082" on="1"/>
        <pt x="1121" y="1082" on="1"/>
      </contour>
    </TTGlyph>
    <TTGlyph name="five" xMin="83" yMin="-21" xMax="1109" yMax="1456">
      <contour>
        <pt x="181" y="651" on="1"/>
        <pt x="388" y="1456" on="1"/>
        <pt x="1109" y="1456" on="1"/>
        <pt x="1075" y="1246" on="1"/>
        <pt x="553" y="1246" on="1"/>
        <pt x="455" y="881" on="1"/>
        <pt x="498" y="912" on="0"/>
        <pt x="608" y="954" on="0"/>
        <pt x="669" y="956" on="1"/>
        <pt x="863" y="958" on="0"/>
        <pt x="1036" y="694" on="0"/>
        <pt x="999" y="465" on="1"/>
        <pt x="963" y="244" on="0"/>
        <pt x="695" y="-21" on="0"/>
        <pt x="477" y="-21" on="1"/>
        <pt x="304" y="-21" on="0"/>
        <pt x="83" y="192" on="0"/>
        <pt x="118" y="384" on="1"/>
        <pt x="120" y="389" on="1"/>
        <pt x="346" y="397" on="1"/>
        <pt x="327" y="287" on="0"/>
        <pt x="419" y="173" on="0"/>
        <pt x="508" y="173" on="1"/>
        <pt x="604" y="173" on="0"/>
        <pt x="739" y="334" on="0"/>
        <pt x="760" y="463" on="1"/>
        <pt x="781" y="599" on="0"/>
        <pt x="699" y="760" on="0"/>
        <pt x="597" y="760" on="1"/>
        <pt x="511" y="760" on="0"/>
        <pt x="412" y="694" on="0"/>
        <pt x="384" y="634" on="1"/>
      </contour>
    </TTGlyph>
    <TTGlyph name="five.lnum" xMin="83" yMin="-21" xMax="1161" yMax="1456">
      <contour>
        <pt x="201" y="651" on="1"/>
        <pt x="441" y="1456" on="1"/>
        <pt x="1161" y="1456" on="1"/>
        <pt x="1119" y="1246" on="1"/>
        <pt x="597" y="1246" on="1"/>
        <pt x="485" y="881" on="1"/>
        <pt x="529" y="912" on="0"/>
        <pt x="640" y="954" on="0"/>
        <pt x="702" y="956" on="1"/>
        <pt x="896" y="958" on="0"/>
        <pt x="1058" y="694" on="0"/>
        <pt x="1012" y="465" on="1"/>
        <pt x="967" y="239" on="0"/>
        <pt x="689" y="-21" on="0"/>
        <pt x="470" y="-21" on="1"/>
        <pt x="301" y="-21" on="0"/>
        <pt x="83" y="194" on="0"/>
        <pt x="123" y="389" on="1"/>
        <pt x="356" y="397" on="1"/>
        <pt x="333" y="285" on="0"/>
        <pt x="420" y="173" on="0"/>
        <pt x="509" y="173" on="1"/>
        <pt x="601" y="173" on="0"/>
        <pt x="747" y="336" on="0"/>
        <pt x="773" y="463" on="1"/>
        <pt x="800" y="602" on="0"/>
        <pt x="724" y="760" on="0"/>
        <pt x="621" y="760" on="1"/>
        <pt x="538" y="760" on="0"/>
        <pt x="434" y="694" on="0"/>
        <pt x="403" y="634" on="1"/>
      </contour>
    </TTGlyph>
    <TTGlyph name="five.smcp" xMin="19" yMin="-17" xMax="1002" yMax="1165">
      <contour>
        <pt x="135" y="504" on="1"/>
        <pt x="333" y="1165" on="1"/>
        <pt x="1002" y="1165" on="1"/>
        <pt x="962" y="967" on="1"/>
        <pt x="502" y="967" on="1"/>
        <pt x="424" y="698" on="1"/>
        <pt x="461" y="720" on="0"/>
        <pt x="566" y="752" on="0"/>
        <pt x="616" y="754" on="1"/>
        <pt x="788" y="756" on="0"/>
        <pt x="938" y="554" on="0"/>
        <pt x="902" y="371" on="1"/>
        <pt x="864" y="183" on="0"/>
        <pt x="621" y="-17" on="0"/>
        <pt x="405" y="-17" on="1"/>
        <pt x="236" y="-17" on="0"/>
        <pt x="19" y="149" on="0"/>
        <pt x="56" y="307" on="1"/>
        <pt x="58" y="313" on="1"/>
        <pt x="292" y="328" on="1"/>
        <pt x="277" y="255" on="0"/>
        <pt x="360" y="175" on="0"/>
        <pt x="443" y="175" on="1"/>
        <pt x="528" y="175" on="0"/>
        <pt x="646" y="285" on="0"/>
        <pt x="664" y="377" on="1"/>
        <pt x="684" y="474" on="0"/>
        <pt x="614" y="577" on="0"/>
        <pt x="532" y="577" on="1"/>
        <pt x="460" y="577" on="0"/>
        <pt x="365" y="528" on="0"/>
        <pt x="342" y="491" on="1"/>
      </contour>
    </TTGlyph>
</ttFont>
